<ttFont>
    <TTGlyph name=".notdef" xMin="127" yMin="0" xMax="897" yMax="752">
      <contour>
        <pt x="127" y="0" on="1"/>
        <pt x="127" y="752" on="1"/>
        <pt x="897" y="752" on="1"/>
        <pt x="897" y="0" on="1"/>
      </contour>
      <contour>
        <pt x="768" y="623" on="1"/>
        <pt x="256" y="623" on="1"/>
        <pt x="256" y="129" on="1"/>
        <pt x="768" y="129" on="1"/>
      </contour>
    </TTGlyph>
    <TTGlyph name="A" xMin="0" yMin="0" xMax="1229" yMax="1349">
      <contour>
        <pt x="1229" y="0" on="1"/>
        <pt x="935" y="0" on="1"/>
        <pt x="843" y="330" on="1"/>
        <pt x="387" y="330" on="1"/>
        <pt x="295" y="0" on="1"/>
        <pt x="0" y="0" on="1"/>
        <pt x="443" y="1349" on="1"/>
        <pt x="787" y="1349" on="1"/>
      </contour>
      <contour>
        <pt x="615" y="1167" on="1"/>
        <pt x="607" y="1125" on="0"/>
        <pt x="564" y="958" on="0"/>
        <pt x="449" y="552" on="1"/>
        <pt x="781" y="552" on="1"/>
        <pt x="664" y="964" on="0"/>
        <pt x="623" y="1126" on="0"/>
      </contour>
    </TTGlyph>
    <TTGlyph name="AE" xMin="0" yMin="0" xMax="1215" yMax="1349">
      <contour>
        <pt x="616" y="387" on="1"/>
        <pt x="363" y="387" on="1"/>
        <pt x="261" y="0" on="1"/>
        <pt x="0" y="0" on="1"/>
        <pt x="372" y="1349" on="1"/>
        <pt x="1176" y="1349" on="1"/>
        <pt x="1176" y="1147" on="1"/>
        <pt x="867" y="1147" on="1"/>
        <pt x="867" y="792" on="1"/>
        <pt x="1164" y="792" on="1"/>
        <pt x="1164" y="592" on="1"/>
        <pt x="867" y="592" on="1"/>
        <pt x="867" y="202" on="1"/>
        <pt x="1215" y="202" on="1"/>
        <pt x="1215" y="0" on="1"/>
        <pt x="616" y="0" on="1"/>
      </contour>
      <contour>
        <pt x="616" y="1152" on="1"/>
        <pt x="558" y="1152" on="1"/>
        <pt x="512" y="952" on="1"/>
        <pt x="414" y="586" on="1"/>
        <pt x="616" y="586" on="1"/>
      </contour>
    </TTGlyph>
    <TTGlyph name="AEacute" xMin="0" yMin="0" xMax="1215" yMax="1703">
      <component glyphName="AE" x="0" y="0" flags="0x204"/>
      <component glyphName="acute" x="245" y="245" flags="0x4"/>
    </TTGlyph>
    <TTGlyph name="Aacute" xMin="0" yMin="0" xMax="1229" yMax="1702">
      <component glyphName="A" x="0" y="0" flags="0x204"/>
      <component glyphName="acute" x="93" y="244" flags="0x4"/>
    </TTGlyph>
    <TTGlyph name="Abreve" xMin="0" yMin="0" xMax="1229" yMax="1705">
      <component glyphName="A" x="0" y="0" flags="0x204"/>
      <component glyphName="breve" x="0" y="244" flags="0x4"/>
    </TTGlyph>
    <TTGlyph name="Abreveacute" xMin="0" yMin="0" xMax="1229" yMax="1802">
      <component glyphName="A" x="0" y="0" flags="0x204"/>
      <component glyphName="breveacute" x="614" y="0" flags="0x4"/>
    </TTGlyph>
    <TTGlyph name="Abrevedotbelow" xMin="0" yMin="-366" xMax="1229" yMax="1707">
      <component glyphName="A" x="0" y="0" flags="0x204"/>
      <component glyphName="dotbelow.alt1" x="825" y="0" flags="0x4"/>
      <component glyphName="breve.uc" x="265" y="0" flags="0x4"/>
    </TTGlyph>
    <TTGlyph name="Abrevegrave" xMin="0" yMin="0" xMax="1229" yMax="1802">
      <component glyphName="A" x="0" y="0" flags="0x204"/>
      <component glyphName="brevegrave" x="614" y="0" flags="0x4"/>
    </TTGlyph>
    <TTGlyph name="Abrevehookabove" xMin="0" yMin="0" xMax="1229" yMax="1802">
      <component glyphName="A" x="0" y="0" flags="0x204"/>
      <component glyphName="brevehook" x="614" y="0" flags="0x4"/>
    </TTGlyph>
    <TTGlyph name="Abrevetilde" xMin="0" yMin="0" xMax="1229" yMax="1802">
      <component glyphName="A" x="0" y="0" flags="0x204"/>
      <component glyphName="brevetilde" x="614" y="0" flags="0x4"/>
    </TTGlyph>
    <TTGlyph name="Acircumflex" xMin="0" yMin="0" xMax="1229" yMax="1705">
      <component glyphName="A" x="0" y="0" flags="0x204"/>
      <component glyphName="circumflex" x="0" y="244" flags="0x4"/>
    </TTGlyph>
    <TTGlyph name="Acircumflexacute" xMin="0" yMin="0" xMax="1229" yMax="1800">
      <component glyphName="A" x="0" y="0" flags="0x204"/>
      <component glyphName="circumflexacute" x="614" y="0" flags="0x4"/>
    </TTGlyph>
    <TTGlyph name="Acircumflexdotbelow" xMin="0" yMin="-366" xMax="1229" yMax="1707">
      <component glyphName="A" x="0" y="0" flags="0x204"/>
      <component glyphName="dotbelow.alt1" x="825" y="0" flags="0x4"/>
      <component glyphName="circumflex.uc" x="273" y="0" flags="0x4"/>
    </TTGlyph>
    <TTGlyph name="Acircumflexgrave" xMin="0" yMin="0" xMax="1229" yMax="1800">
      <component glyphName="A" x="0" y="0" flags="0x204"/>
      <component glyphName="circumflexgrave" x="614" y="0" flags="0x4"/>
    </TTGlyph>
    <TTGlyph name="Acircumflexhookabove" xMin="0" yMin="0" xMax="1229" yMax="1799">
      <component glyphName="A" x="0" y="0" flags="0x204"/>
      <component glyphName="circumflexhook" x="614" y="0" flags="0x4"/>
    </TTGlyph>
    <TTGlyph name="Acircumflextilde" xMin="0" yMin="0" xMax="1229" yMax="1800">
      <component glyphName="A" x="0" y="0" flags="0x204"/>
      <component glyphName="circumflextilde" x="614" y="0" flags="0x4"/>
    </TTGlyph>
    <TTGlyph name="Adieresis" xMin="0" yMin="0" xMax="1229" yMax="1664">
      <component glyphName="A" x="0" y="0" flags="0x204"/>
      <component glyphName="dieresis" x="0" y="226" flags="0x4"/>
    </TTGlyph>
    <TTGlyph name="Adotbelow" xMin="0" yMin="-366" xMax="1229" yMax="1349">
      <component glyphName="A" x="0" y="0" flags="0x204"/>
      <component glyphName="dotbelow.alt1" x="825" y="0" flags="0x4"/>
    </TTGlyph>
    <TTGlyph name="Agrave" xMin="0" yMin="0" xMax="1229" yMax="1701">
      <component glyphName="A" x="0" y="0" flags="0x204"/>
      <component glyphName="grave" x="-93" y="243" flags="0x4"/>
    </TTGlyph>
    <TTGlyph name="Ahookabove" xMin="0" yMin="0" xMax="1229" yMax="1785">
      <component glyphName="A" x="0" y="0" flags="0x204"/>
      <component glyphName="hookabovecomb" x="903" y="0" flags="0x4"/>
    </TTGlyph>
    <TTGlyph name="Alpha" xMin="0" yMin="0" xMax="1229" yMax="1349">
      <component glyphName="A" x="0" y="0" flags="0x204"/>
    </TTGlyph>
    <TTGlyph name="Alphatonos" xMin="0" yMin="0" xMax="1229" yMax="1350">
      <component glyphName="A" x="0" y="0" flags="0x204"/>
      <component glyphName="tonos" x="-472" y="-206" flags="0x4"/>
    </TTGlyph>
    <TTGlyph name="Amacron" xMin="0" yMin="0" xMax="1229" yMax="1638">
      <component glyphName="A" x="0" y="0" flags="0x204"/>
      <component glyphName="uni02C9" x="2" y="267" flags="0x4"/>
    </TTGlyph>
    <TTGlyph name="Aogonek" xMin="0" yMin="-414" xMax="1229" yMax="1349">
      <component glyphName="A" x="0" y="0" flags="0x204"/>
      <component glyphName="ogonek" x="420" y="11" flags="0x4"/>
    </TTGlyph>
    <TTGlyph name="Aring" xMin="0" yMin="0" xMax="1229" yMax="1678">
      <component glyphName="A" x="0" y="0" flags="0x204"/>
      <component glyphName="ring" x="3" y="131" flags="0x4"/>
    </TTGlyph>
    <TTGlyph name="Aringacute" xMin="0" yMin="0" xMax="1229" yMax="1705">
      <contour>
        <pt x="856" y="1218" on="1"/>
        <pt x="856" y="1145" on="0"/>
        <pt x="808" y="1091" on="1"/>
        <pt x="1229" y="0" on="1"/>
        <pt x="935" y="0" on="1"/>
        <pt x="847" y="263" on="1"/>
        <pt x="381" y="263" on="1"/>
        <pt x="295" y="0" on="1"/>
        <pt x="0" y="0" on="1"/>
        <pt x="421" y="1090" on="1"/>
        <pt x="372" y="1141" on="0"/>
        <pt x="372" y="1218" on="1"/>
        <pt x="372" y="1307" on="0"/>
        <pt x="505" y="1417" on="0"/>
        <pt x="614" y="1417" on="1"/>
        <pt x="725" y="1417" on="0"/>
        <pt x="856" y="1306" on="0"/>
      </contour>
      <contour>
        <pt x="615" y="992" on="1"/>
        <pt x="608" y="962" on="1"/>
        <pt x="557" y="792" on="1"/>
        <pt x="454" y="485" on="1"/>
        <pt x="775" y="485" on="1"/>
        <pt x="673" y="792" on="1"/>
        <pt x="629" y="927" on="0"/>
      </contour>
      <contour>
        <pt x="510" y="1459" on="1"/>
        <pt x="510" y="1490" on="1"/>
        <pt x="742" y="1705" on="1"/>
        <pt x="1000" y="1705" on="1"/>
        <pt x="1000" y="1662" on="1"/>
        <pt x="660" y="1459" on="1"/>
      </contour>
      <contour>
        <pt x="717" y="1218" on="1"/>
        <pt x="717" y="1250" on="0"/>
        <pt x="661" y="1289" on="0"/>
        <pt x="614" y="1289" on="1"/>
        <pt x="568" y="1289" on="0"/>
        <pt x="510" y="1251" on="0"/>
        <pt x="510" y="1218" on="1"/>
        <pt x="510" y="1185" on="0"/>
        <pt x="568" y="1147" on="0"/>
        <pt x="614" y="1147" on="1"/>
        <pt x="661" y="1147" on="0"/>
        <pt x="717" y="1186" on="0"/>
      </contour>
    </TTGlyph>
    <TTGlyph name="Atilde" xMin="0" yMin="0" xMax="1229" yMax="1705">
      <component glyphName="A" x="0" y="0" flags="0x204"/>
      <component glyphName="tilde" x="0" y="239" flags="0x4"/>
    </TTGlyph>
    <TTGlyph name="B" xMin="137" yMin="0" xMax="1186" yMax="1349">
      <contour>
        <pt x="1186" y="385" on="1"/>
        <pt x="1186" y="204" on="0"/>
        <pt x="938" y="0" on="0"/>
        <pt x="719" y="0" on="1"/>
        <pt x="137" y="0" on="1"/>
        <pt x="137" y="1349" on="1"/>
        <pt x="662" y="1349" on="1"/>
        <pt x="880" y="1349" on="0"/>
        <pt x="1105" y="1174" on="0"/>
        <pt x="1105" y="1010" on="1"/>
        <pt x="1105" y="895" on="0"/>
        <pt x="973" y="738" on="0"/>
        <pt x="836" y="709" on="1"/>
        <pt x="1007" y="691" on="0"/>
        <pt x="1186" y="523" on="0"/>
      </contour>
      <contour>
        <pt x="808" y="970" on="1"/>
        <pt x="808" y="1130" on="0"/>
        <pt x="641" y="1130" on="1"/>
        <pt x="432" y="1130" on="1"/>
        <pt x="432" y="811" on="1"/>
        <pt x="643" y="811" on="1"/>
        <pt x="808" y="811" on="0"/>
      </contour>
      <contour>
        <pt x="889" y="410" on="1"/>
        <pt x="889" y="498" on="0"/>
        <pt x="783" y="593" on="0"/>
        <pt x="682" y="593" on="1"/>
        <pt x="432" y="593" on="1"/>
        <pt x="432" y="219" on="1"/>
        <pt x="689" y="219" on="1"/>
        <pt x="889" y="219" on="0"/>
      </contour>
    </TTGlyph>
    <TTGlyph name="Beta" xMin="137" yMin="0" xMax="1186" yMax="1349">
      <component glyphName="B" x="0" y="0" flags="0x204"/>
    </TTGlyph>
    <TTGlyph name="C" xMin="80" yMin="-20" xMax="1172" yMax="1370">
      <contour>
        <pt x="380" y="681" on="1"/>
        <pt x="380" y="456" on="0"/>
        <pt x="520" y="212" on="0"/>
        <pt x="659" y="212" on="1"/>
        <pt x="821" y="212" on="0"/>
        <pt x="899" y="456" on="1"/>
        <pt x="1172" y="404" on="1"/>
        <pt x="1039" y="-20" on="0"/>
        <pt x="656" y="-20" on="1"/>
        <pt x="375" y="-20" on="0"/>
        <pt x="80" y="337" on="0"/>
        <pt x="80" y="681" on="1"/>
        <pt x="80" y="1370" on="0"/>
        <pt x="648" y="1370" on="1"/>
        <pt x="834" y="1370" on="0"/>
        <pt x="1085" y="1174" on="0"/>
        <pt x="1144" y="981" on="1"/>
        <pt x="872" y="915" on="1"/>
        <pt x="843" y="1021" on="0"/>
        <pt x="727" y="1138" on="0"/>
        <pt x="652" y="1138" on="1"/>
        <pt x="380" y="1138" on="0"/>
      </contour>
    </TTGlyph>
    <TTGlyph name="Cacute" xMin="80" yMin="-20" xMax="1172" yMax="1702">
      <component glyphName="C" x="0" y="0" flags="0x204"/>
      <component glyphName="acute" x="132" y="244" flags="0x4"/>
    </TTGlyph>
    <TTGlyph name="Ccaron" xMin="80" yMin="-20" xMax="1172" yMax="1705">
      <component glyphName="C" x="0" y="0" flags="0x204"/>
      <component glyphName="caron" x="17" y="244" flags="0x4"/>
    </TTGlyph>
    <TTGlyph name="Ccedilla" xMin="80" yMin="-445" xMax="1172" yMax="1370">
      <component glyphName="C" x="0" y="0" flags="0x204"/>
      <component glyphName="cedilla" x="354" y="0" flags="0x4"/>
    </TTGlyph>
    <TTGlyph name="Ccircumflex" xMin="80" yMin="-20" xMax="1172" yMax="1705">
      <component glyphName="C" x="0" y="0" flags="0x204"/>
      <component glyphName="circumflex" x="20" y="244" flags="0x4"/>
    </TTGlyph>
    <TTGlyph name="Cdotaccent" xMin="80" yMin="-20" xMax="1172" yMax="1628">
      <component glyphName="C" x="0" y="0" flags="0x204"/>
      <component glyphName="dotaccent" x="30" y="154" flags="0x4"/>
    </TTGlyph>
    <TTGlyph name="Chi" xMin="0" yMin="0" xMax="1229" yMax="1349">
      <component glyphName="X" x="0" y="0" flags="0x204"/>
    </TTGlyph>
    <TTGlyph name="D" xMin="135" yMin="0" xMax="1149" yMax="1349">
      <contour>
        <pt x="1149" y="685" on="1"/>
        <pt x="1149" y="355" on="0"/>
        <pt x="841" y="0" on="0"/>
        <pt x="556" y="0" on="1"/>
        <pt x="135" y="0" on="1"/>
        <pt x="135" y="1349" on="1"/>
        <pt x="496" y="1349" on="1"/>
        <pt x="824" y="1349" on="0"/>
        <pt x="1149" y="1020" on="0"/>
      </contour>
      <contour>
        <pt x="852" y="685" on="1"/>
        <pt x="852" y="912" on="0"/>
        <pt x="681" y="1121" on="0"/>
        <pt x="491" y="1121" on="1"/>
        <pt x="430" y="1121" on="1"/>
        <pt x="430" y="228" on="1"/>
        <pt x="532" y="228" on="1"/>
        <pt x="852" y="228" on="0"/>
      </contour>
    </TTGlyph>
    <TTGlyph name="Dcaron" xMin="135" yMin="0" xMax="1149" yMax="1705">
      <component glyphName="D" x="0" y="0" flags="0x204"/>
      <component glyphName="caron" x="-29" y="244" flags="0x4"/>
    </TTGlyph>
    <TTGlyph name="Dcroat" xMin="14" yMin="0" xMax="1162" yMax="1349">
      <component glyphName="Eth" x="0" y="0" flags="0x204"/>
    </TTGlyph>
    <TTGlyph name="Delta" xMin="18" yMin="0" xMax="1212" yMax="1349">
      <contour>
        <pt x="18" y="226" on="1"/>
        <pt x="446" y="1349" on="1"/>
        <pt x="791" y="1349" on="1"/>
        <pt x="1212" y="226" on="1"/>
        <pt x="1212" y="0" on="1"/>
        <pt x="18" y="0" on="1"/>
      </contour>
      <contour>
        <pt x="918" y="244" on="1"/>
        <pt x="695" y="862" on="1"/>
        <pt x="651" y="1000" on="0"/>
        <pt x="625" y="1120" on="1"/>
        <pt x="616" y="1159" on="1"/>
        <pt x="615" y="1149" on="0"/>
        <pt x="560" y="933" on="0"/>
        <pt x="537" y="860" on="1"/>
        <pt x="317" y="244" on="1"/>
      </contour>
    </TTGlyph>
    <TTGlyph name="E" xMin="137" yMin="0" xMax="1146" yMax="1349">
      <contour>
        <pt x="137" y="0" on="1"/>
        <pt x="137" y="1349" on="1"/>
        <pt x="1105" y="1349" on="1"/>
        <pt x="1105" y="1121" on="1"/>
        <pt x="432" y="1121" on="1"/>
        <pt x="432" y="797" on="1"/>
        <pt x="1044" y="797" on="1"/>
        <pt x="1044" y="569" on="1"/>
        <pt x="432" y="569" on="1"/>
        <pt x="432" y="228" on="1"/>
        <pt x="1146" y="228" on="1"/>
        <pt x="1146" y="0" on="1"/>
      </contour>
    </TTGlyph>
    <TTGlyph name="Eacute" xMin="137" yMin="0" xMax="1146" yMax="1702">
      <component glyphName="E" x="0" y="0" flags="0x204"/>
      <component glyphName="acute" x="91" y="244" flags="0x4"/>
    </TTGlyph>
    <TTGlyph name="Ebreve" xMin="137" yMin="0" xMax="1146" yMax="1705">
      <component glyphName="E" x="0" y="0" flags="0x204"/>
      <component glyphName="breve" x="0" y="244" flags="0x4"/>
    </TTGlyph>
    <TTGlyph name="Ecaron" xMin="137" yMin="0" xMax="1146" yMax="1705">
      <component glyphName="E" x="0" y="0" flags="0x204"/>
      <component glyphName="caron" x="11" y="244" flags="0x4"/>
    </TTGlyph>
    <TTGlyph name="Ecircumflex" xMin="137" yMin="0" xMax="1146" yMax="1705">
      <component glyphName="E" x="0" y="0" flags="0x204"/>
      <component glyphName="circumflex" x="0" y="244" flags="0x4"/>
    </TTGlyph>
    <TTGlyph name="Ecircumflexacute" xMin="137" yMin="0" xMax="1163" yMax="1800">
      <component glyphName="E" x="0" y="0" flags="0x204"/>
      <component glyphName="circumflexacute" x="634" y="0" flags="0x4"/>
    </TTGlyph>
    <TTGlyph name="Ecircumflexdotbelow" xMin="137" yMin="-366" xMax="1146" yMax="1707">
      <component glyphName="E" x="0" y="0" flags="0x204"/>
      <component glyphName="circumflex.uc" x="320" y="0" flags="0x4"/>
      <component glyphName="dotbelow.alt1" x="885" y="0" flags="0x4"/>
    </TTGlyph>
    <TTGlyph name="Ecircumflexgrave" xMin="103" yMin="0" xMax="1146" yMax="1800">
      <component glyphName="E" x="0" y="0" flags="0x204"/>
      <component glyphName="circumflexgrave" x="633" y="0" flags="0x4"/>
    </TTGlyph>
    <TTGlyph name="Ecircumflexhookabove" xMin="137" yMin="0" xMax="1146" yMax="1799">
      <component glyphName="E" x="0" y="0" flags="0x204"/>
      <component glyphName="circumflexhook" x="634" y="0" flags="0x4"/>
    </TTGlyph>
    <TTGlyph name="Ecircumflextilde" xMin="137" yMin="0" xMax="1146" yMax="1800">
      <component glyphName="E" x="0" y="0" flags="0x204"/>
      <component glyphName="circumflextilde" x="633" y="0" flags="0x4"/>
    </TTGlyph>
    <TTGlyph name="Edieresis" xMin="137" yMin="0" xMax="1146" yMax="1664">
      <component glyphName="E" x="0" y="0" flags="0x204"/>
      <component glyphName="dieresis" x="20" y="226" flags="0x4"/>
    </TTGlyph>
    <TTGlyph name="Edotaccent" xMin="137" yMin="0" xMax="1146" yMax="1628">
      <component glyphName="E" x="0" y="0" flags="0x204"/>
      <component glyphName="dotaccent" x="0" y="154" flags="0x4"/>
    </TTGlyph>
    <TTGlyph name="Edotbelow" xMin="137" yMin="-366" xMax="1146" yMax="1349">
      <component glyphName="E" x="0" y="0" flags="0x204"/>
      <component glyphName="dotbelow.alt1" x="825" y="0" flags="0x4"/>
    </TTGlyph>
    <TTGlyph name="Egrave" xMin="137" yMin="0" xMax="1146" yMax="1702">
      <component glyphName="E" x="0" y="0" flags="0x204"/>
      <component glyphName="grave" x="-71" y="244" flags="0x4"/>
    </TTGlyph>
    <TTGlyph name="Ehookabove" xMin="137" yMin="0" xMax="1146" yMax="1785">
      <component glyphName="E" x="0" y="0" flags="0x204"/>
      <component glyphName="hookabovecomb" x="903" y="0" flags="0x4"/>
    </TTGlyph>
    <TTGlyph name="Emacron" xMin="137" yMin="0" xMax="1146" yMax="1638">
      <component glyphName="E" x="0" y="0" flags="0x204"/>
      <component glyphName="uni02C9" x="18" y="267" flags="0x4"/>
    </TTGlyph>
    <TTGlyph name="Eng" xMin="113" yMin="-20" xMax="1135" yMax="1369">
      <contour>
        <pt x="774" y="-20" on="1"/>
        <pt x="652" y="-20" on="0"/>
        <pt x="500" y="99" on="0"/>
        <pt x="461" y="234" on="1"/>
        <pt x="670" y="302" on="1"/>
        <pt x="686" y="244" on="0"/>
        <pt x="725" y="202" on="0"/>
        <pt x="759" y="202" on="1"/>
        <pt x="806" y="202" on="0"/>
        <pt x="845" y="323" on="0"/>
        <pt x="845" y="475" on="1"/>
        <pt x="845" y="848" on="1"/>
        <pt x="845" y="1016" on="0"/>
        <pt x="775" y="1140" on="0"/>
        <pt x="683" y="1140" on="1"/>
        <pt x="620" y="1140" on="0"/>
        <pt x="490" y="1016" on="0"/>
        <pt x="412" y="818" on="0"/>
        <pt x="412" y="709" on="1"/>
        <pt x="412" y="0" on="1"/>
        <pt x="117" y="0" on="1"/>
        <pt x="117" y="1032" on="1"/>
        <pt x="113" y="1349" on="1"/>
        <pt x="401" y="1349" on="1"/>
        <pt x="412" y="1228" on="0"/>
        <pt x="412" y="1098" on="1"/>
        <pt x="416" y="1098" on="1"/>
        <pt x="468" y="1219" on="0"/>
        <pt x="673" y="1369" on="0"/>
        <pt x="784" y="1369" on="1"/>
        <pt x="963" y="1369" on="0"/>
        <pt x="1135" y="1126" on="0"/>
        <pt x="1135" y="869" on="1"/>
        <pt x="1135" y="502" on="1"/>
        <pt x="1135" y="237" on="0"/>
        <pt x="958" y="-20" on="0"/>
      </contour>
    </TTGlyph>
    <TTGlyph name="Eng.alt1" xMin="138" yMin="-425" xMax="1091" yMax="1370">
      <contour>
        <pt x="1091" y="-18" on="1"/>
        <pt x="1091" y="-425" on="0"/>
        <pt x="686" y="-425" on="1"/>
        <pt x="598" y="-425" on="0"/>
        <pt x="490" y="-406" on="1"/>
        <pt x="490" y="-196" on="1"/>
        <pt x="569" y="-207" on="0"/>
        <pt x="617" y="-207" on="1"/>
        <pt x="717" y="-207" on="0"/>
        <pt x="796" y="-95" on="0"/>
        <pt x="796" y="32" on="1"/>
        <pt x="796" y="833" on="1"/>
        <pt x="796" y="995" on="0"/>
        <pt x="715" y="1138" on="0"/>
        <pt x="618" y="1138" on="1"/>
        <pt x="534" y="1138" on="0"/>
        <pt x="433" y="984" on="0"/>
        <pt x="433" y="852" on="1"/>
        <pt x="433" y="0" on="1"/>
        <pt x="138" y="0" on="1"/>
        <pt x="138" y="1349" on="1"/>
        <pt x="414" y="1349" on="1"/>
        <pt x="414" y="1183" on="1"/>
        <pt x="462" y="1274" on="0"/>
        <pt x="616" y="1370" on="0"/>
        <pt x="717" y="1370" on="1"/>
        <pt x="890" y="1370" on="0"/>
        <pt x="1091" y="1096" on="0"/>
        <pt x="1091" y="865" on="1"/>
      </contour>
    </TTGlyph>
    <TTGlyph name="Eng.alt2" xMin="135" yMin="-425" xMax="1094" yMax="1349">
      <contour>
        <pt x="1094" y="-128" on="1"/>
        <pt x="1094" y="-280" on="0"/>
        <pt x="965" y="-425" on="0"/>
        <pt x="831" y="-425" on="1"/>
        <pt x="731" y="-425" on="0"/>
        <pt x="661" y="-416" on="1"/>
        <pt x="661" y="-218" on="1"/>
        <pt x="712" y="-222" on="1"/>
        <pt x="784" y="-222" on="0"/>
        <pt x="837" y="-159" on="0"/>
        <pt x="837" y="-60" on="1"/>
        <pt x="837" y="2" on="1"/>
        <pt x="364" y="1010" on="1"/>
        <pt x="392" y="758" on="0"/>
        <pt x="392" y="656" on="1"/>
        <pt x="392" y="0" on="1"/>
        <pt x="135" y="0" on="1"/>
        <pt x="135" y="1349" on="1"/>
        <pt x="472" y="1349" on="1"/>
        <pt x="859" y="516" on="1"/>
        <pt x="852" y="577" on="0"/>
        <pt x="837" y="801" on="0"/>
        <pt x="837" y="862" on="1"/>
        <pt x="837" y="1349" on="1"/>
        <pt x="1094" y="1349" on="1"/>
      </contour>
    </TTGlyph>
    <TTGlyph name="Eng.alt3" xMin="72" yMin="-13" xMax="1158" yMax="1370">
      <contour>
        <pt x="353" y="456" on="1"/>
        <pt x="385" y="328" on="0"/>
        <pt x="508" y="218" on="0"/>
        <pt x="619" y="218" on="1"/>
        <pt x="737" y="218" on="0"/>
        <pt x="858" y="447" on="0"/>
        <pt x="858" y="675" on="1"/>
        <pt x="858" y="763" on="1"/>
        <pt x="858" y="970" on="0"/>
        <pt x="751" y="1138" on="0"/>
        <pt x="621" y="1138" on="1"/>
        <pt x="507" y="1138" on="0"/>
        <pt x="372" y="980" on="0"/>
        <pt x="372" y="852" on="1"/>
        <pt x="372" y="670" on="1"/>
        <pt x="72" y="670" on="1"/>
        <pt x="72" y="1349" on="1"/>
        <pt x="313" y="1349" on="1"/>
        <pt x="313" y="1183" on="1"/>
        <pt x="372" y="1274" on="0"/>
        <pt x="567" y="1370" on="0"/>
        <pt x="692" y="1370" on="1"/>
        <pt x="1158" y="1370" on="0"/>
        <pt x="1158" y="757" on="1"/>
        <pt x="1158" y="675" on="1"/>
        <pt x="1158" y="328" on="0"/>
        <pt x="891" y="-13" on="0"/>
        <pt x="620" y="-13" on="1"/>
        <pt x="187" y="-13" on="0"/>
        <pt x="81" y="403" on="1"/>
      </contour>
    </TTGlyph>
    <TTGlyph name="Eogonek" xMin="137" yMin="-425" xMax="1146" yMax="1349">
      <component glyphName="E" x="0" y="0" flags="0x204"/>
      <component glyphName="ogonek" x="331" y="0" flags="0x4"/>
    </TTGlyph>
    <TTGlyph name="Epsilon" xMin="137" yMin="0" xMax="1146" yMax="1349">
      <component glyphName="E" x="0" y="0" flags="0x204"/>
    </TTGlyph>
    <TTGlyph name="Epsilontonos" xMin="-55" yMin="0" xMax="1176" yMax="1349">
      <contour>
        <pt x="327" y="0" on="1"/>
        <pt x="327" y="1349" on="1"/>
        <pt x="1135" y="1349" on="1"/>
        <pt x="1135" y="1121" on="1"/>
        <pt x="622" y="1121" on="1"/>
        <pt x="622" y="797" on="1"/>
        <pt x="1074" y="797" on="1"/>
        <pt x="1074" y="569" on="1"/>
        <pt x="622" y="569" on="1"/>
        <pt x="622" y="228" on="1"/>
        <pt x="1176" y="228" on="1"/>
        <pt x="1176" y="0" on="1"/>
      </contour>
      <contour>
        <pt x="-55" y="994" on="1"/>
        <pt x="-55" y="1027" on="1"/>
        <pt x="-1" y="1349" on="1"/>
        <pt x="256" y="1349" on="1"/>
        <pt x="256" y="1312" on="1"/>
        <pt x="50" y="994" on="1"/>
      </contour>
    </TTGlyph>
    <TTGlyph name="Eta" xMin="138" yMin="0" xMax="1091" yMax="1349">
      <component glyphName="H" x="0" y="0" flags="0x204"/>
    </TTGlyph>
    <TTGlyph name="Etatonos" xMin="-55" yMin="0" xMax="1170" yMax="1349">
      <contour>
        <pt x="890" y="0" on="1"/>
        <pt x="890" y="574" on="1"/>
        <pt x="607" y="574" on="1"/>
        <pt x="607" y="0" on="1"/>
        <pt x="327" y="0" on="1"/>
        <pt x="327" y="1349" on="1"/>
        <pt x="607" y="1349" on="1"/>
        <pt x="607" y="818" on="1"/>
        <pt x="890" y="818" on="1"/>
        <pt x="890" y="1349" on="1"/>
        <pt x="1170" y="1349" on="1"/>
        <pt x="1170" y="0" on="1"/>
      </contour>
      <contour>
        <pt x="-55" y="994" on="1"/>
        <pt x="-55" y="1027" on="1"/>
        <pt x="-1" y="1349" on="1"/>
        <pt x="256" y="1349" on="1"/>
        <pt x="256" y="1312" on="1"/>
        <pt x="50" y="994" on="1"/>
      </contour>
    </TTGlyph>
    <TTGlyph name="Eth" xMin="14" yMin="0" xMax="1162" yMax="1349">
      <contour>
        <pt x="1162" y="685" on="1"/>
        <pt x="1162" y="355" on="0"/>
        <pt x="854" y="0" on="0"/>
        <pt x="569" y="0" on="1"/>
        <pt x="148" y="0" on="1"/>
        <pt x="148" y="564" on="1"/>
        <pt x="14" y="564" on="1"/>
        <pt x="14" y="783" on="1"/>
        <pt x="148" y="783" on="1"/>
        <pt x="148" y="1349" on="1"/>
        <pt x="509" y="1349" on="1"/>
        <pt x="837" y="1349" on="0"/>
        <pt x="1162" y="1020" on="0"/>
      </contour>
      <contour>
        <pt x="865" y="685" on="1"/>
        <pt x="865" y="912" on="0"/>
        <pt x="694" y="1121" on="0"/>
        <pt x="504" y="1121" on="1"/>
        <pt x="443" y="1121" on="1"/>
        <pt x="443" y="783" on="1"/>
        <pt x="650" y="783" on="1"/>
        <pt x="650" y="564" on="1"/>
        <pt x="443" y="564" on="1"/>
        <pt x="443" y="228" on="1"/>
        <pt x="545" y="228" on="1"/>
        <pt x="865" y="228" on="0"/>
      </contour>
    </TTGlyph>
    <TTGlyph name="Etilde" xMin="137" yMin="0" xMax="1146" yMax="1705">
      <component glyphName="E" x="0" y="0" flags="0x204"/>
      <component glyphName="tilde" x="20" y="239" flags="0x4"/>
    </TTGlyph>
    <TTGlyph name="Euro" xMin="71" yMin="-20" xMax="1178" yMax="1370">
      <contour>
        <pt x="893" y="463" on="1"/>
        <pt x="520" y="463" on="1"/>
        <pt x="547" y="342" on="0"/>
        <pt x="673" y="211" on="0"/>
        <pt x="769" y="211" on="1"/>
        <pt x="848" y="211" on="0"/>
        <pt x="979" y="272" on="0"/>
        <pt x="1047" y="326" on="1"/>
        <pt x="1178" y="142" on="1"/>
        <pt x="1090" y="61" on="0"/>
        <pt x="882" y="-20" on="0"/>
        <pt x="747" y="-20" on="1"/>
        <pt x="532" y="-20" on="0"/>
        <pt x="256" y="229" on="0"/>
        <pt x="219" y="460" on="1"/>
        <pt x="71" y="460" on="1"/>
        <pt x="71" y="604" on="1"/>
        <pt x="202" y="604" on="1"/>
        <pt x="199" y="674" on="0"/>
        <pt x="199" y="679" on="1"/>
        <pt x="202" y="758" on="1"/>
        <pt x="71" y="758" on="1"/>
        <pt x="71" y="900" on="1"/>
        <pt x="218" y="900" on="1"/>
        <pt x="254" y="1125" on="0"/>
        <pt x="527" y="1370" on="0"/>
        <pt x="749" y="1370" on="1"/>
        <pt x="994" y="1370" on="0"/>
        <pt x="1161" y="1228" on="1"/>
        <pt x="1030" y="1026" on="1"/>
        <pt x="969" y="1075" on="0"/>
        <pt x="837" y="1139" on="0"/>
        <pt x="760" y="1139" on="1"/>
        <pt x="667" y="1139" on="0"/>
        <pt x="547" y="1015" on="0"/>
        <pt x="523" y="898" on="1"/>
        <pt x="893" y="898" on="1"/>
        <pt x="893" y="757" on="1"/>
        <pt x="501" y="757" on="1"/>
        <pt x="498" y="736" on="0"/>
        <pt x="498" y="679" on="1"/>
        <pt x="498" y="637" on="0"/>
        <pt x="502" y="605" on="1"/>
        <pt x="893" y="605" on="1"/>
      </contour>
    </TTGlyph>
    <TTGlyph name="F" xMin="167" yMin="0" xMax="1106" yMax="1349">
      <contour>
        <pt x="462" y="1121" on="1"/>
        <pt x="462" y="737" on="1"/>
        <pt x="1083" y="737" on="1"/>
        <pt x="1083" y="509" on="1"/>
        <pt x="462" y="509" on="1"/>
        <pt x="462" y="0" on="1"/>
        <pt x="167" y="0" on="1"/>
        <pt x="167" y="1349" on="1"/>
        <pt x="1106" y="1349" on="1"/>
        <pt x="1106" y="1121" on="1"/>
      </contour>
    </TTGlyph>
    <TTGlyph name="G" xMin="80" yMin="-20" xMax="1128" yMax="1370">
      <contour>
        <pt x="1128" y="185" on="1"/>
        <pt x="885" y="-20" on="0"/>
        <pt x="635" y="-20" on="1"/>
        <pt x="374" y="-20" on="0"/>
        <pt x="80" y="347" on="0"/>
        <pt x="80" y="681" on="1"/>
        <pt x="80" y="1370" on="0"/>
        <pt x="638" y="1370" on="1"/>
        <pt x="818" y="1370" on="0"/>
        <pt x="1046" y="1184" on="0"/>
        <pt x="1100" y="995" on="1"/>
        <pt x="826" y="941" on="1"/>
        <pt x="773" y="1138" on="0"/>
        <pt x="641" y="1138" on="1"/>
        <pt x="506" y="1138" on="0"/>
        <pt x="379" y="922" on="0"/>
        <pt x="379" y="681" on="1"/>
        <pt x="379" y="458" on="0"/>
        <pt x="513" y="216" on="0"/>
        <pt x="650" y="216" on="1"/>
        <pt x="703" y="216" on="0"/>
        <pt x="816" y="256" on="0"/>
        <pt x="858" y="290" on="1"/>
        <pt x="858" y="525" on="1"/>
        <pt x="584" y="525" on="1"/>
        <pt x="584" y="743" on="1"/>
        <pt x="1128" y="743" on="1"/>
      </contour>
    </TTGlyph>
    <TTGlyph name="Gamma" xMin="177" yMin="1" xMax="1144" yMax="1349">
      <contour>
        <pt x="1144" y="1349" on="1"/>
        <pt x="1144" y="1121" on="1"/>
        <pt x="472" y="1121" on="1"/>
        <pt x="472" y="1" on="1"/>
        <pt x="177" y="1" on="1"/>
        <pt x="177" y="1349" on="1"/>
      </contour>
    </TTGlyph>
    <TTGlyph name="Gbreve" xMin="80" yMin="-20" xMax="1128" yMax="1705">
      <component glyphName="G" x="0" y="0" flags="0x204"/>
      <component glyphName="breve" x="3" y="244" flags="0x4"/>
    </TTGlyph>
    <TTGlyph name="Gcircumflex" xMin="80" yMin="-20" xMax="1128" yMax="1705">
      <component glyphName="G" x="0" y="0" flags="0x204"/>
      <component glyphName="circumflex" x="0" y="244" flags="0x4"/>
    </TTGlyph>
    <TTGlyph name="Gcommaaccent" xMin="80" yMin="-453" xMax="1128" yMax="1370">
      <component glyphName="G" x="0" y="0" flags="0x204"/>
      <component glyphName="undercommaaccent" x="0" y="0" flags="0x4"/>
    </TTGlyph>
    <TTGlyph name="Gdotaccent" xMin="80" yMin="-20" xMax="1128" yMax="1628">
      <component glyphName="G" x="0" y="0" flags="0x204"/>
      <component glyphName="dotaccent" x="10" y="154" flags="0x4"/>
    </TTGlyph>
    <TTGlyph name="H" xMin="138" yMin="0" xMax="1091" yMax="1349">
      <contour>
        <pt x="796" y="0" on="1"/>
        <pt x="796" y="574" on="1"/>
        <pt x="433" y="574" on="1"/>
        <pt x="433" y="0" on="1"/>
        <pt x="138" y="0" on="1"/>
        <pt x="138" y="1349" on="1"/>
        <pt x="433" y="1349" on="1"/>
        <pt x="433" y="818" on="1"/>
        <pt x="796" y="818" on="1"/>
        <pt x="796" y="1349" on="1"/>
        <pt x="1091" y="1349" on="1"/>
        <pt x="1091" y="0" on="1"/>
      </contour>
    </TTGlyph>
    <TTGlyph name="Hbar" xMin="2" yMin="0" xMax="1226" yMax="1349">
      <contour>
        <pt x="796" y="0" on="1"/>
        <pt x="796" y="574" on="1"/>
        <pt x="433" y="574" on="1"/>
        <pt x="433" y="0" on="1"/>
        <pt x="138" y="0" on="1"/>
        <pt x="138" y="1004" on="1"/>
        <pt x="2" y="1004" on="1"/>
        <pt x="2" y="1172" on="1"/>
        <pt x="138" y="1172" on="1"/>
        <pt x="138" y="1349" on="1"/>
        <pt x="433" y="1349" on="1"/>
        <pt x="433" y="1172" on="1"/>
        <pt x="796" y="1172" on="1"/>
        <pt x="796" y="1349" on="1"/>
        <pt x="1091" y="1349" on="1"/>
        <pt x="1091" y="1172" on="1"/>
        <pt x="1226" y="1172" on="1"/>
        <pt x="1226" y="1004" on="1"/>
        <pt x="1091" y="1004" on="1"/>
        <pt x="1091" y="0" on="1"/>
      </contour>
      <contour>
        <pt x="796" y="818" on="1"/>
        <pt x="796" y="1004" on="1"/>
        <pt x="433" y="1004" on="1"/>
        <pt x="433" y="818" on="1"/>
      </contour>
    </TTGlyph>
    <TTGlyph name="Hcircumflex" xMin="138" yMin="0" xMax="1091" yMax="1705">
      <component glyphName="H" x="0" y="0" flags="0x204"/>
      <component glyphName="circumflex" x="0" y="244" flags="0x4"/>
    </TTGlyph>
    <TTGlyph name="I" xMin="157" yMin="0" xMax="1073" yMax="1349">
      <contour>
        <pt x="157" y="1349" on="1"/>
        <pt x="1073" y="1349" on="1"/>
        <pt x="1073" y="1121" on="1"/>
        <pt x="762" y="1121" on="1"/>
        <pt x="762" y="228" on="1"/>
        <pt x="1073" y="228" on="1"/>
        <pt x="1073" y="0" on="1"/>
        <pt x="157" y="0" on="1"/>
        <pt x="157" y="228" on="1"/>
        <pt x="468" y="228" on="1"/>
        <pt x="468" y="1121" on="1"/>
        <pt x="157" y="1121" on="1"/>
      </contour>
    </TTGlyph>
    <TTGlyph name="IJ" xMin="73" yMin="-20" xMax="1159" yMax="1349">
      <contour>
        <pt x="73" y="1349" on="1"/>
        <pt x="357" y="1349" on="1"/>
        <pt x="357" y="0" on="1"/>
        <pt x="73" y="0" on="1"/>
      </contour>
      <contour>
        <pt x="784" y="-20" on="1"/>
        <pt x="611" y="-20" on="0"/>
        <pt x="434" y="158" on="0"/>
        <pt x="417" y="360" on="1"/>
        <pt x="681" y="398" on="1"/>
        <pt x="692" y="296" on="0"/>
        <pt x="739" y="211" on="0"/>
        <pt x="791" y="211" on="1"/>
        <pt x="837" y="211" on="0"/>
        <pt x="873" y="305" on="0"/>
        <pt x="873" y="414" on="1"/>
        <pt x="873" y="1118" on="1"/>
        <pt x="619" y="1118" on="1"/>
        <pt x="619" y="1349" on="1"/>
        <pt x="1159" y="1349" on="1"/>
        <pt x="1159" y="446" on="1"/>
        <pt x="1159" y="-20" on="0"/>
      </contour>
    </TTGlyph>
    <TTGlyph name="Iacute" xMin="157" yMin="0" xMax="1073" yMax="1702">
      <component glyphName="I" x="0" y="0" flags="0x204"/>
      <component glyphName="acute" x="103" y="244" flags="0x4"/>
    </TTGlyph>
    <TTGlyph name="Ibreve" xMin="157" yMin="0" xMax="1073" yMax="1705">
      <component glyphName="I" x="0" y="0" flags="0x204"/>
      <component glyphName="breve" x="0" y="244" flags="0x4"/>
    </TTGlyph>
    <TTGlyph name="Icircumflex" xMin="157" yMin="0" xMax="1073" yMax="1705">
      <component glyphName="I" x="0" y="0" flags="0x204"/>
      <component glyphName="circumflex" x="0" y="244" flags="0x4"/>
    </TTGlyph>
    <TTGlyph name="Idieresis" xMin="157" yMin="0" xMax="1073" yMax="1664">
      <component glyphName="I" x="0" y="0" flags="0x204"/>
      <component glyphName="dieresis" x="0" y="226" flags="0x4"/>
    </TTGlyph>
    <TTGlyph name="Idotaccent" xMin="157" yMin="0" xMax="1073" yMax="1628">
      <component glyphName="I" x="0" y="0" flags="0x204"/>
      <component glyphName="dotaccent" x="0" y="154" flags="0x4"/>
    </TTGlyph>
    <TTGlyph name="Idotbelow" xMin="157" yMin="-366" xMax="1073" yMax="1349">
      <component glyphName="I" x="0" y="0" flags="0x204"/>
      <component glyphName="dotbelow.alt1" x="825" y="0" flags="0x4"/>
    </TTGlyph>
    <TTGlyph name="Igrave" xMin="157" yMin="0" xMax="1073" yMax="1702">
      <component glyphName="I" x="0" y="0" flags="0x204"/>
      <component glyphName="grave" x="-81" y="244" flags="0x4"/>
    </TTGlyph>
    <TTGlyph name="Ihookabove" xMin="157" yMin="0" xMax="1073" yMax="1785">
      <component glyphName="I" x="0" y="0" flags="0x204"/>
      <component glyphName="hookabovecomb" x="883" y="0" flags="0x4"/>
    </TTGlyph>
    <TTGlyph name="Imacron" xMin="157" yMin="0" xMax="1073" yMax="1638">
      <component glyphName="I" x="0" y="0" flags="0x204"/>
      <component glyphName="uni02C9" x="2" y="267" flags="0x4"/>
    </TTGlyph>
    <TTGlyph name="Iogonek" xMin="157" yMin="-425" xMax="1073" yMax="1349">
      <component glyphName="I" x="0" y="0" flags="0x204"/>
      <component glyphName="ogonek" x="13" y="0" flags="0x4"/>
    </TTGlyph>
    <TTGlyph name="Iota" xMin="157" yMin="0" xMax="1073" yMax="1349">
      <component glyphName="I" x="0" y="0" flags="0x204"/>
    </TTGlyph>
    <TTGlyph name="Iotadieresis" xMin="157" yMin="0" xMax="1073" yMax="1705">
      <component glyphName="I" x="0" y="0" flags="0x204"/>
      <component glyphName="dieresis" x="0" y="267" flags="0x4"/>
    </TTGlyph>
    <TTGlyph name="Iotatonos" xMin="-54" yMin="0" xMax="1198" yMax="1350">
      <component glyphName="I" x="125" y="0" flags="0x4"/>
      <component glyphName="tonos" x="-529" y="-206" flags="0x4"/>
    </TTGlyph>
    <TTGlyph name="Itilde" xMin="157" yMin="0" xMax="1073" yMax="1705">
      <component glyphName="I" x="0" y="0" flags="0x204"/>
      <component glyphName="tilde" x="0" y="239" flags="0x4"/>
    </TTGlyph>
    <TTGlyph name="J" xMin="102" yMin="-20" xMax="1019" yMax="1349">
      <contour>
        <pt x="564" y="-20" on="1"/>
        <pt x="368" y="-20" on="0"/>
        <pt x="132" y="198" on="0"/>
        <pt x="102" y="402" on="1"/>
        <pt x="393" y="445" on="1"/>
        <pt x="413" y="327" on="0"/>
        <pt x="503" y="211" on="0"/>
        <pt x="566" y="211" on="1"/>
        <pt x="639" y="211" on="0"/>
        <pt x="725" y="329" on="0"/>
        <pt x="725" y="439" on="1"/>
        <pt x="725" y="1118" on="1"/>
        <pt x="424" y="1118" on="1"/>
        <pt x="424" y="1349" on="1"/>
        <pt x="1019" y="1349" on="1"/>
        <pt x="1019" y="446" on="1"/>
        <pt x="1019" y="228" on="0"/>
        <pt x="777" y="-20" on="0"/>
      </contour>
    </TTGlyph>
    <TTGlyph name="Jcircumflex" xMin="102" yMin="-20" xMax="1103" yMax="1705">
      <component glyphName="J" x="0" y="0" flags="0x204"/>
      <component glyphName="circumflex" x="120" y="244" flags="0x4"/>
    </TTGlyph>
    <TTGlyph name="K" xMin="136" yMin="0" xMax="1229" yMax="1349">
      <contour>
        <pt x="881" y="0" on="1"/>
        <pt x="558" y="557" on="1"/>
        <pt x="431" y="415" on="1"/>
        <pt x="431" y="0" on="1"/>
        <pt x="136" y="0" on="1"/>
        <pt x="136" y="1349" on="1"/>
        <pt x="431" y="1349" on="1"/>
        <pt x="431" y="750" on="1"/>
        <pt x="867" y="1349" on="1"/>
        <pt x="1210" y="1349" on="1"/>
        <pt x="750" y="770" on="1"/>
        <pt x="1229" y="0" on="1"/>
      </contour>
    </TTGlyph>
    <TTGlyph name="Kappa" xMin="136" yMin="0" xMax="1229" yMax="1349">
      <component glyphName="K" x="0" y="0" flags="0x204"/>
    </TTGlyph>
    <TTGlyph name="Kcommaaccent" xMin="136" yMin="-453" xMax="1229" yMax="1349">
      <component glyphName="K" x="0" y="0" flags="0x204"/>
      <component glyphName="undercommaaccent" x="0" y="0" flags="0x4"/>
    </TTGlyph>
    <TTGlyph name="L" xMin="211" yMin="0" xMax="1122" yMax="1349">
      <contour>
        <pt x="211" y="0" on="1"/>
        <pt x="211" y="1349" on="1"/>
        <pt x="506" y="1349" on="1"/>
        <pt x="506" y="228" on="1"/>
        <pt x="1122" y="228" on="1"/>
        <pt x="1122" y="0" on="1"/>
      </contour>
    </TTGlyph>
    <TTGlyph name="Lacute" xMin="211" yMin="0" xMax="1122" yMax="1703">
      <component glyphName="L" x="0" y="0" flags="0x204"/>
      <component glyphName="acute" x="-98" y="245" flags="0x4"/>
    </TTGlyph>
    <TTGlyph name="Lambda" xMin="20" yMin="0" xMax="1209" yMax="1349">
      <contour>
        <pt x="20" y="0" on="1"/>
        <pt x="463" y="1349" on="1"/>
        <pt x="767" y="1349" on="1"/>
        <pt x="1209" y="0" on="1"/>
        <pt x="905" y="0" on="1"/>
        <pt x="657" y="865" on="1"/>
        <pt x="622" y="990" on="0"/>
        <pt x="615" y="1055" on="1"/>
        <pt x="599" y="958" on="0"/>
        <pt x="573" y="865" on="1"/>
        <pt x="325" y="0" on="1"/>
      </contour>
    </TTGlyph>
    <TTGlyph name="Lcaron" xMin="211" yMin="0" xMax="1122" yMax="1349">
      <component glyphName="L" x="0" y="0" flags="0x204"/>
      <component glyphName="undercommaaccent" x="320" y="1447" flags="0x4"/>
    </TTGlyph>
    <TTGlyph name="Lcommaaccent" xMin="211" yMin="-453" xMax="1122" yMax="1349">
      <component glyphName="L" x="0" y="0" flags="0x204"/>
      <component glyphName="undercommaaccent" x="10" y="0" flags="0x4"/>
    </TTGlyph>
    <TTGlyph name="Ldot" xMin="211" yMin="0" xMax="1122" yMax="1349">
      <component glyphName="L" x="0" y="0" flags="0x204"/>
      <component glyphName="dotaccent" x="186" y="-684" flags="0x4"/>
    </TTGlyph>
    <TTGlyph name="Lslash" xMin="0" yMin="0" xMax="1132" yMax="1349">
      <contour>
        <pt x="221" y="657" on="1"/>
        <pt x="221" y="1349" on="1"/>
        <pt x="516" y="1349" on="1"/>
        <pt x="516" y="810" on="1"/>
        <pt x="762" y="938" on="1"/>
        <pt x="854" y="757" on="1"/>
        <pt x="516" y="580" on="1"/>
        <pt x="516" y="228" on="1"/>
        <pt x="1132" y="228" on="1"/>
        <pt x="1132" y="0" on="1"/>
        <pt x="221" y="0" on="1"/>
        <pt x="221" y="426" on="1"/>
        <pt x="97" y="362" on="1"/>
        <pt x="0" y="543" on="1"/>
      </contour>
    </TTGlyph>
    <TTGlyph name="M" xMin="99" yMin="0" xMax="1130" yMax="1349">
      <contour>
        <pt x="908" y="0" on="1"/>
        <pt x="908" y="868" on="1"/>
        <pt x="908" y="973" on="0"/>
        <pt x="924" y="1169" on="1"/>
        <pt x="865" y="879" on="0"/>
        <pt x="849" y="828" on="1"/>
        <pt x="725" y="360" on="1"/>
        <pt x="507" y="360" on="1"/>
        <pt x="381" y="828" on="1"/>
        <pt x="352" y="936" on="0"/>
        <pt x="305" y="1169" on="1"/>
        <pt x="312" y="1069" on="1"/>
        <pt x="319" y="964" on="0"/>
        <pt x="319" y="868" on="1"/>
        <pt x="319" y="0" on="1"/>
        <pt x="99" y="0" on="1"/>
        <pt x="99" y="1349" on="1"/>
        <pt x="446" y="1349" on="1"/>
        <pt x="581" y="850" on="1"/>
        <pt x="596" y="803" on="0"/>
        <pt x="619" y="619" on="1"/>
        <pt x="639" y="774" on="0"/>
        <pt x="659" y="849" on="1"/>
        <pt x="795" y="1349" on="1"/>
        <pt x="1130" y="1349" on="1"/>
        <pt x="1130" y="0" on="1"/>
      </contour>
    </TTGlyph>
    <TTGlyph name="Mu" xMin="99" yMin="0" xMax="1130" yMax="1349">
      <component glyphName="M" x="0" y="0" flags="0x204"/>
    </TTGlyph>
    <TTGlyph name="N" xMin="135" yMin="0" xMax="1094" yMax="1349">
      <contour>
        <pt x="748" y="0" on="1"/>
        <pt x="364" y="1010" on="1"/>
        <pt x="392" y="758" on="0"/>
        <pt x="392" y="656" on="1"/>
        <pt x="392" y="0" on="1"/>
        <pt x="135" y="0" on="1"/>
        <pt x="135" y="1349" on="1"/>
        <pt x="472" y="1349" on="1"/>
        <pt x="865" y="312" on="1"/>
        <pt x="837" y="547" on="0"/>
        <pt x="837" y="677" on="1"/>
        <pt x="837" y="1349" on="1"/>
        <pt x="1094" y="1349" on="1"/>
        <pt x="1094" y="0" on="1"/>
      </contour>
    </TTGlyph>
    <TTGlyph name="Nacute" xMin="135" yMin="0" xMax="1094" yMax="1703">
      <component glyphName="N" x="0" y="0" flags="0x204"/>
      <component glyphName="acute" x="122" y="245" flags="0x4"/>
    </TTGlyph>
    <TTGlyph name="Ncaron" xMin="135" yMin="0" xMax="1094" yMax="1705">
      <component glyphName="N" x="0" y="0" flags="0x204"/>
      <component glyphName="caron" x="-4" y="244" flags="0x4"/>
    </TTGlyph>
    <TTGlyph name="Ncommaaccent" xMin="135" yMin="-453" xMax="1094" yMax="1349">
      <component glyphName="N" x="0" y="0" flags="0x204"/>
      <component glyphName="undercommaaccent" x="-31" y="0" flags="0x4"/>
    </TTGlyph>
    <TTGlyph name="Ntilde" xMin="135" yMin="0" xMax="1094" yMax="1705">
      <component glyphName="N" x="0" y="0" flags="0x204"/>
      <component glyphName="tilde" x="0" y="239" flags="0x4"/>
    </TTGlyph>
    <TTGlyph name="Nu" xMin="135" yMin="0" xMax="1094" yMax="1349">
      <component glyphName="N" x="0" y="0" flags="0x204"/>
    </TTGlyph>
    <TTGlyph name="O" xMin="72" yMin="-20" xMax="1157" yMax="1370">
      <contour>
        <pt x="1157" y="679" on="1"/>
        <pt x="1157" y="334" on="0"/>
        <pt x="877" y="-20" on="0"/>
        <pt x="615" y="-20" on="1"/>
        <pt x="353" y="-20" on="0"/>
        <pt x="72" y="334" on="0"/>
        <pt x="72" y="679" on="1"/>
        <pt x="72" y="1024" on="0"/>
        <pt x="353" y="1370" on="0"/>
        <pt x="615" y="1370" on="1"/>
        <pt x="877" y="1370" on="0"/>
        <pt x="1157" y="1024" on="0"/>
      </contour>
      <contour>
        <pt x="858" y="679" on="1"/>
        <pt x="858" y="1138" on="0"/>
        <pt x="615" y="1138" on="1"/>
        <pt x="371" y="1138" on="0"/>
        <pt x="371" y="679" on="1"/>
        <pt x="371" y="449" on="0"/>
        <pt x="494" y="212" on="0"/>
        <pt x="615" y="212" on="1"/>
        <pt x="736" y="212" on="0"/>
        <pt x="858" y="449" on="0"/>
      </contour>
    </TTGlyph>
    <TTGlyph name="OE" xMin="30" yMin="-5" xMax="1211" yMax="1355">
      <contour>
        <pt x="599" y="0" on="1"/>
        <pt x="521" y="-5" on="1"/>
        <pt x="266" y="-5" on="0"/>
        <pt x="30" y="333" on="0"/>
        <pt x="30" y="681" on="1"/>
        <pt x="30" y="1031" on="0"/>
        <pt x="267" y="1355" on="0"/>
        <pt x="523" y="1355" on="1"/>
        <pt x="561" y="1355" on="0"/>
        <pt x="612" y="1349" on="1"/>
        <pt x="1170" y="1349" on="1"/>
        <pt x="1170" y="1147" on="1"/>
        <pt x="857" y="1147" on="1"/>
        <pt x="857" y="792" on="1"/>
        <pt x="1144" y="792" on="1"/>
        <pt x="1144" y="592" on="1"/>
        <pt x="857" y="592" on="1"/>
        <pt x="857" y="202" on="1"/>
        <pt x="1211" y="202" on="1"/>
        <pt x="1211" y="0" on="1"/>
      </contour>
      <contour>
        <pt x="522" y="190" on="1"/>
        <pt x="578" y="190" on="0"/>
        <pt x="606" y="196" on="1"/>
        <pt x="606" y="1153" on="1"/>
        <pt x="568" y="1159" on="0"/>
        <pt x="523" y="1159" on="1"/>
        <pt x="399" y="1159" on="0"/>
        <pt x="292" y="929" on="0"/>
        <pt x="292" y="681" on="1"/>
        <pt x="292" y="431" on="0"/>
        <pt x="405" y="190" on="0"/>
      </contour>
    </TTGlyph>
    <TTGlyph name="Oacute" xMin="72" yMin="-20" xMax="1157" yMax="1702">
      <component glyphName="O" x="0" y="0" flags="0x204"/>
      <component glyphName="acute" x="98" y="244" flags="0x4"/>
    </TTGlyph>
    <TTGlyph name="Obreve" xMin="72" yMin="-20" xMax="1157" yMax="1705">
      <component glyphName="O" x="0" y="0" flags="0x204"/>
      <component glyphName="breve" x="0" y="244" flags="0x4"/>
    </TTGlyph>
    <TTGlyph name="Ocircumflex" xMin="72" yMin="-20" xMax="1157" yMax="1705">
      <component glyphName="O" x="0" y="0" flags="0x204"/>
      <component glyphName="circumflex" x="0" y="244" flags="0x4"/>
    </TTGlyph>
    <TTGlyph name="Ocircumflexacute" xMin="72" yMin="-20" xMax="1157" yMax="1800">
      <component glyphName="O" x="0" y="0" flags="0x204"/>
      <component glyphName="circumflexacute" x="614" y="0" flags="0x4"/>
    </TTGlyph>
    <TTGlyph name="Ocircumflexdotbelow" xMin="72" yMin="-366" xMax="1157" yMax="1707">
      <component glyphName="O" x="0" y="0" flags="0x204"/>
      <component glyphName="dotbelow.alt1" x="825" y="0" flags="0x4"/>
      <component glyphName="circumflex.uc" x="273" y="0" flags="0x4"/>
    </TTGlyph>
    <TTGlyph name="Ocircumflexgrave" xMin="72" yMin="-20" xMax="1157" yMax="1800">
      <component glyphName="O" x="0" y="0" flags="0x204"/>
      <component glyphName="circumflexgrave" x="614" y="0" flags="0x4"/>
    </TTGlyph>
    <TTGlyph name="Ocircumflexhookabove" xMin="72" yMin="-20" xMax="1157" yMax="1799">
      <component glyphName="O" x="0" y="0" flags="0x204"/>
      <component glyphName="circumflexhook" x="614" y="0" flags="0x4"/>
    </TTGlyph>
    <TTGlyph name="Ocircumflextilde" xMin="72" yMin="-20" xMax="1157" yMax="1800">
      <component glyphName="O" x="0" y="0" flags="0x204"/>
      <component glyphName="circumflextilde" x="614" y="0" flags="0x4"/>
    </TTGlyph>
    <TTGlyph name="Odieresis" xMin="72" yMin="-20" xMax="1157" yMax="1664">
      <component glyphName="O" x="0" y="0" flags="0x204"/>
      <component glyphName="dieresis" x="3" y="226" flags="0x4"/>
    </TTGlyph>
    <TTGlyph name="Odotbelow" xMin="72" yMin="-366" xMax="1157" yMax="1370">
      <component glyphName="O" x="0" y="0" flags="0x204"/>
      <component glyphName="dotbelow.alt1" x="825" y="0" flags="0x4"/>
    </TTGlyph>
    <TTGlyph name="Ograve" xMin="72" yMin="-20" xMax="1157" yMax="1702">
      <component glyphName="O" x="0" y="0" flags="0x204"/>
      <component glyphName="grave" x="-86" y="244" flags="0x4"/>
    </TTGlyph>
    <TTGlyph name="Ohm" xMin="50" yMin="0" xMax="1178" yMax="1370">
      <contour>
        <pt x="614" y="1143" on="1"/>
        <pt x="494" y="1143" on="0"/>
        <pt x="352" y="937" on="0"/>
        <pt x="352" y="754" on="1"/>
        <pt x="352" y="620" on="0"/>
        <pt x="439" y="414" on="0"/>
        <pt x="545" y="304" on="1"/>
        <pt x="545" y="0" on="1"/>
        <pt x="50" y="0" on="1"/>
        <pt x="50" y="228" on="1"/>
        <pt x="166" y="228" on="1"/>
        <pt x="230" y="228" on="0"/>
        <pt x="340" y="217" on="1"/>
        <pt x="68" y="434" on="0"/>
        <pt x="68" y="798" on="1"/>
        <pt x="68" y="967" on="0"/>
        <pt x="210" y="1228" on="0"/>
        <pt x="461" y="1370" on="0"/>
        <pt x="614" y="1370" on="1"/>
        <pt x="766" y="1370" on="0"/>
        <pt x="1018" y="1228" on="0"/>
        <pt x="1160" y="966" on="0"/>
        <pt x="1160" y="798" on="1"/>
        <pt x="1160" y="434" on="0"/>
        <pt x="888" y="217" on="1"/>
        <pt x="1002" y="228" on="0"/>
        <pt x="1066" y="228" on="1"/>
        <pt x="1178" y="228" on="1"/>
        <pt x="1178" y="0" on="1"/>
        <pt x="683" y="0" on="1"/>
        <pt x="683" y="304" on="1"/>
        <pt x="789" y="414" on="0"/>
        <pt x="876" y="618" on="0"/>
        <pt x="876" y="754" on="1"/>
        <pt x="876" y="937" on="0"/>
        <pt x="734" y="1143" on="0"/>
      </contour>
    </TTGlyph>
    <TTGlyph name="Ohookabove" xMin="72" yMin="-20" xMax="1157" yMax="1785">
      <component glyphName="O" x="0" y="0" flags="0x204"/>
      <component glyphName="hookabovecomb" x="903" y="0" flags="0x4"/>
    </TTGlyph>
    <TTGlyph name="Ohorn" xMin="72" yMin="-20" xMax="1281" yMax="1409">
      <contour>
        <pt x="1117" y="679" on="1"/>
        <pt x="1117" y="-20" on="0"/>
        <pt x="595" y="-20" on="1"/>
        <pt x="333" y="-20" on="0"/>
        <pt x="72" y="334" on="0"/>
        <pt x="72" y="679" on="1"/>
        <pt x="72" y="1370" on="0"/>
        <pt x="595" y="1370" on="1"/>
        <pt x="794" y="1370" on="0"/>
        <pt x="1034" y="1168" on="0"/>
        <pt x="1085" y="966" on="1"/>
        <pt x="1160" y="1036" on="0"/>
        <pt x="1160" y="1149" on="1"/>
        <pt x="1068" y="1149" on="1"/>
        <pt x="1068" y="1409" on="1"/>
        <pt x="1281" y="1409" on="1"/>
        <pt x="1281" y="1199" on="1"/>
        <pt x="1281" y="1073" on="0"/>
        <pt x="1194" y="882" on="0"/>
        <pt x="1110" y="822" on="1"/>
        <pt x="1117" y="743" on="0"/>
      </contour>
      <contour>
        <pt x="818" y="679" on="1"/>
        <pt x="818" y="911" on="0"/>
        <pt x="715" y="1138" on="0"/>
        <pt x="595" y="1138" on="1"/>
        <pt x="475" y="1138" on="0"/>
        <pt x="371" y="908" on="0"/>
        <pt x="371" y="679" on="1"/>
        <pt x="371" y="450" on="0"/>
        <pt x="475" y="212" on="0"/>
        <pt x="595" y="212" on="1"/>
        <pt x="715" y="212" on="0"/>
        <pt x="818" y="450" on="0"/>
      </contour>
    </TTGlyph>
    <TTGlyph name="Ohornacute" xMin="72" yMin="-20" xMax="1281" yMax="1703">
      <component glyphName="Ohorn" x="0" y="0" flags="0x204"/>
      <component glyphName="acute.uc" x="382" y="0" flags="0x4"/>
    </TTGlyph>
    <TTGlyph name="Ohorndotbelow" xMin="72" yMin="-366" xMax="1281" yMax="1409">
      <component glyphName="Ohorn" x="0" y="0" flags="0x204"/>
      <component glyphName="dotbelow.alt1" x="808" y="0" flags="0x4"/>
    </TTGlyph>
    <TTGlyph name="Ohorngrave" xMin="72" yMin="-20" xMax="1281" yMax="1702">
      <component glyphName="Ohorn" x="0" y="0" flags="0x204"/>
      <component glyphName="grave.uc" x="167" y="0" flags="0x4"/>
    </TTGlyph>
    <TTGlyph name="Ohornhookabove" xMin="72" yMin="-20" xMax="1281" yMax="1785">
      <component glyphName="Ohorn" x="0" y="0" flags="0x204"/>
      <component glyphName="hookabovecomb" x="916" y="0" flags="0x4"/>
    </TTGlyph>
    <TTGlyph name="Ohorntilde" xMin="72" yMin="-20" xMax="1281" yMax="1705">
      <component glyphName="Ohorn" x="0" y="0" flags="0x204"/>
      <component glyphName="tilde" x="-24" y="239" flags="0x4"/>
    </TTGlyph>
    <TTGlyph name="Ohungarumlaut" xMin="72" yMin="-20" xMax="1167" yMax="1705">
      <component glyphName="O" x="0" y="0" flags="0x204"/>
      <component glyphName="hungarumlaut" x="301" y="244" flags="0x4"/>
    </TTGlyph>
    <TTGlyph name="Omacron" xMin="72" yMin="-20" xMax="1157" yMax="1638">
      <component glyphName="O" x="0" y="0" flags="0x204"/>
      <component glyphName="uni02C9" x="2" y="267" flags="0x4"/>
    </TTGlyph>
    <TTGlyph name="Omega" xMin="50" yMin="0" xMax="1178" yMax="1370">
      <contour>
        <pt x="614" y="1143" on="1"/>
        <pt x="494" y="1143" on="0"/>
        <pt x="352" y="937" on="0"/>
        <pt x="352" y="754" on="1"/>
        <pt x="352" y="620" on="0"/>
        <pt x="439" y="414" on="0"/>
        <pt x="545" y="304" on="1"/>
        <pt x="545" y="0" on="1"/>
        <pt x="50" y="0" on="1"/>
        <pt x="50" y="228" on="1"/>
        <pt x="166" y="228" on="1"/>
        <pt x="230" y="228" on="0"/>
        <pt x="340" y="217" on="1"/>
        <pt x="68" y="434" on="0"/>
        <pt x="68" y="798" on="1"/>
        <pt x="68" y="967" on="0"/>
        <pt x="210" y="1228" on="0"/>
        <pt x="461" y="1370" on="0"/>
        <pt x="614" y="1370" on="1"/>
        <pt x="766" y="1370" on="0"/>
        <pt x="1018" y="1228" on="0"/>
        <pt x="1160" y="966" on="0"/>
        <pt x="1160" y="798" on="1"/>
        <pt x="1160" y="434" on="0"/>
        <pt x="888" y="217" on="1"/>
        <pt x="1002" y="228" on="0"/>
        <pt x="1066" y="228" on="1"/>
        <pt x="1178" y="228" on="1"/>
        <pt x="1178" y="0" on="1"/>
        <pt x="683" y="0" on="1"/>
        <pt x="683" y="304" on="1"/>
        <pt x="789" y="414" on="0"/>
        <pt x="876" y="618" on="0"/>
        <pt x="876" y="754" on="1"/>
        <pt x="876" y="937" on="0"/>
        <pt x="734" y="1143" on="0"/>
      </contour>
    </TTGlyph>
    <TTGlyph name="Omegatonos" xMin="-55" yMin="0" xMax="1228" yMax="1370">
      <contour>
        <pt x="704" y="1143" on="1"/>
        <pt x="596" y="1143" on="0"/>
        <pt x="467" y="938" on="0"/>
        <pt x="467" y="754" on="1"/>
        <pt x="467" y="609" on="0"/>
        <pt x="549" y="394" on="0"/>
        <pt x="645" y="294" on="1"/>
        <pt x="645" y="0" on="1"/>
        <pt x="180" y="0" on="1"/>
        <pt x="180" y="228" on="1"/>
        <pt x="286" y="228" on="1"/>
        <pt x="349" y="228" on="0"/>
        <pt x="452" y="217" on="1"/>
        <pt x="328" y="327" on="0"/>
        <pt x="193" y="610" on="0"/>
        <pt x="193" y="798" on="1"/>
        <pt x="193" y="968" on="0"/>
        <pt x="324" y="1228" on="0"/>
        <pt x="559" y="1370" on="0"/>
        <pt x="704" y="1370" on="1"/>
        <pt x="847" y="1370" on="0"/>
        <pt x="1083" y="1229" on="0"/>
        <pt x="1215" y="969" on="0"/>
        <pt x="1215" y="798" on="1"/>
        <pt x="1215" y="610" on="0"/>
        <pt x="1081" y="327" on="0"/>
        <pt x="956" y="217" on="1"/>
        <pt x="1062" y="228" on="0"/>
        <pt x="1126" y="228" on="1"/>
        <pt x="1228" y="228" on="1"/>
        <pt x="1228" y="0" on="1"/>
        <pt x="763" y="0" on="1"/>
        <pt x="763" y="294" on="1"/>
        <pt x="859" y="394" on="0"/>
        <pt x="941" y="608" on="0"/>
        <pt x="941" y="754" on="1"/>
        <pt x="941" y="936" on="0"/>
        <pt x="813" y="1143" on="0"/>
      </contour>
      <contour>
        <pt x="-55" y="994" on="1"/>
        <pt x="-55" y="1027" on="1"/>
        <pt x="-1" y="1349" on="1"/>
        <pt x="256" y="1349" on="1"/>
        <pt x="256" y="1312" on="1"/>
        <pt x="50" y="994" on="1"/>
      </contour>
    </TTGlyph>
    <TTGlyph name="Omicron" xMin="72" yMin="-20" xMax="1157" yMax="1370">
      <component glyphName="O" x="0" y="0" flags="0x204"/>
    </TTGlyph>
    <TTGlyph name="Omicrontonos" xMin="-55" yMin="-20" xMax="1201" yMax="1370">
      <contour>
        <pt x="1201" y="679" on="1"/>
        <pt x="1201" y="339" on="0"/>
        <pt x="942" y="-20" on="0"/>
        <pt x="699" y="-20" on="1"/>
        <pt x="455" y="-20" on="0"/>
        <pt x="196" y="339" on="0"/>
        <pt x="196" y="679" on="1"/>
        <pt x="196" y="1019" on="0"/>
        <pt x="455" y="1370" on="0"/>
        <pt x="699" y="1370" on="1"/>
        <pt x="941" y="1370" on="0"/>
        <pt x="1201" y="1020" on="0"/>
      </contour>
      <contour>
        <pt x="902" y="679" on="1"/>
        <pt x="902" y="1138" on="0"/>
        <pt x="699" y="1138" on="1"/>
        <pt x="601" y="1138" on="0"/>
        <pt x="495" y="909" on="0"/>
        <pt x="495" y="679" on="1"/>
        <pt x="495" y="449" on="0"/>
        <pt x="601" y="212" on="0"/>
        <pt x="699" y="212" on="1"/>
        <pt x="797" y="212" on="0"/>
        <pt x="902" y="449" on="0"/>
      </contour>
      <contour>
        <pt x="-55" y="994" on="1"/>
        <pt x="-55" y="1027" on="1"/>
        <pt x="-1" y="1349" on="1"/>
        <pt x="256" y="1349" on="1"/>
        <pt x="256" y="1312" on="1"/>
        <pt x="50" y="994" on="1"/>
      </contour>
    </TTGlyph>
    <TTGlyph name="Oslash" xMin="46" yMin="-43" xMax="1180" yMax="1397">
      <contour>
        <pt x="1157" y="679" on="1"/>
        <pt x="1157" y="334" on="0"/>
        <pt x="877" y="-20" on="0"/>
        <pt x="615" y="-20" on="1"/>
        <pt x="400" y="-20" on="0"/>
        <pt x="266" y="99" on="1"/>
        <pt x="160" y="-43" on="1"/>
        <pt x="46" y="32" on="1"/>
        <pt x="177" y="208" on="1"/>
        <pt x="72" y="384" on="0"/>
        <pt x="72" y="679" on="1"/>
        <pt x="72" y="1024" on="0"/>
        <pt x="353" y="1370" on="0"/>
        <pt x="615" y="1370" on="1"/>
        <pt x="827" y="1370" on="0"/>
        <pt x="960" y="1255" on="1"/>
        <pt x="1066" y="1397" on="1"/>
        <pt x="1180" y="1322" on="1"/>
        <pt x="1050" y="1149" on="1"/>
        <pt x="1157" y="975" on="0"/>
      </contour>
      <contour>
        <pt x="858" y="679" on="1"/>
        <pt x="858" y="788" on="0"/>
        <pt x="844" y="872" on="1"/>
        <pt x="436" y="326" on="1"/>
        <pt x="498" y="212" on="0"/>
        <pt x="615" y="212" on="1"/>
        <pt x="736" y="212" on="0"/>
        <pt x="858" y="449" on="0"/>
      </contour>
      <contour>
        <pt x="371" y="679" on="1"/>
        <pt x="371" y="560" on="0"/>
        <pt x="385" y="486" on="1"/>
        <pt x="792" y="1031" on="1"/>
        <pt x="732" y="1138" on="0"/>
        <pt x="615" y="1138" on="1"/>
        <pt x="371" y="1138" on="0"/>
      </contour>
    </TTGlyph>
    <TTGlyph name="Oslashacute" xMin="46" yMin="-43" xMax="1180" yMax="1703">
      <component glyphName="Oslash" x="0" y="0" flags="0x204"/>
      <component glyphName="acute" x="100" y="245" flags="0x4"/>
    </TTGlyph>
    <TTGlyph name="Otilde" xMin="72" yMin="-20" xMax="1157" yMax="1705">
      <component glyphName="O" x="0" y="0" flags="0x204"/>
      <component glyphName="tilde" x="0" y="239" flags="0x4"/>
    </TTGlyph>
    <TTGlyph name="P" xMin="136" yMin="0" xMax="1142" yMax="1349">
      <contour>
        <pt x="1142" y="923" on="1"/>
        <pt x="1142" y="789" on="0"/>
        <pt x="1020" y="586" on="0"/>
        <pt x="789" y="476" on="0"/>
        <pt x="628" y="476" on="1"/>
        <pt x="431" y="476" on="1"/>
        <pt x="431" y="0" on="1"/>
        <pt x="136" y="0" on="1"/>
        <pt x="136" y="1349" on="1"/>
        <pt x="616" y="1349" on="1"/>
        <pt x="873" y="1349" on="0"/>
        <pt x="1142" y="1132" on="0"/>
      </contour>
      <contour>
        <pt x="845" y="918" on="1"/>
        <pt x="845" y="1027" on="0"/>
        <pt x="714" y="1120" on="0"/>
        <pt x="583" y="1120" on="1"/>
        <pt x="431" y="1120" on="1"/>
        <pt x="431" y="703" on="1"/>
        <pt x="591" y="703" on="1"/>
        <pt x="723" y="703" on="0"/>
        <pt x="845" y="812" on="0"/>
      </contour>
    </TTGlyph>
    <TTGlyph name="Phi" xMin="9" yMin="-11" xMax="1221" yMax="1359">
      <contour>
        <pt x="964" y="700" on="1"/>
        <pt x="964" y="833" on="0"/>
        <pt x="850" y="992" on="0"/>
        <pt x="753" y="992" on="1"/>
        <pt x="734" y="992" on="1"/>
        <pt x="734" y="397" on="1"/>
        <pt x="760" y="397" on="1"/>
        <pt x="851" y="397" on="0"/>
        <pt x="964" y="566" on="0"/>
      </contour>
      <contour>
        <pt x="496" y="-11" on="1"/>
        <pt x="496" y="198" on="1"/>
        <pt x="472" y="198" on="1"/>
        <pt x="339" y="198" on="0"/>
        <pt x="126" y="327" on="0"/>
        <pt x="9" y="560" on="0"/>
        <pt x="9" y="704" on="1"/>
        <pt x="9" y="930" on="0"/>
        <pt x="262" y="1191" on="0"/>
        <pt x="484" y="1191" on="1"/>
        <pt x="496" y="1191" on="1"/>
        <pt x="496" y="1359" on="1"/>
        <pt x="734" y="1359" on="1"/>
        <pt x="734" y="1191" on="1"/>
        <pt x="746" y="1191" on="1"/>
        <pt x="968" y="1191" on="0"/>
        <pt x="1221" y="930" on="0"/>
        <pt x="1221" y="704" on="1"/>
        <pt x="1221" y="482" on="0"/>
        <pt x="962" y="198" on="0"/>
        <pt x="758" y="198" on="1"/>
        <pt x="734" y="198" on="1"/>
        <pt x="734" y="-11" on="1"/>
      </contour>
      <contour>
        <pt x="266" y="700" on="1"/>
        <pt x="266" y="565" on="0"/>
        <pt x="379" y="397" on="0"/>
        <pt x="470" y="397" on="1"/>
        <pt x="496" y="397" on="1"/>
        <pt x="496" y="992" on="1"/>
        <pt x="477" y="992" on="1"/>
        <pt x="381" y="992" on="0"/>
        <pt x="266" y="834" on="0"/>
      </contour>
    </TTGlyph>
    <TTGlyph name="Pi" xMin="138" yMin="0" xMax="1091" yMax="1349">
      <contour>
        <pt x="796" y="0" on="1"/>
        <pt x="796" y="1105" on="1"/>
        <pt x="433" y="1105" on="1"/>
        <pt x="433" y="0" on="1"/>
        <pt x="138" y="0" on="1"/>
        <pt x="138" y="1349" on="1"/>
        <pt x="1091" y="1349" on="1"/>
        <pt x="1091" y="0" on="1"/>
      </contour>
    </TTGlyph>
    <TTGlyph name="Psi" xMin="46" yMin="0" xMax="1183" yMax="1349">
      <contour>
        <pt x="734" y="397" on="1"/>
        <pt x="734" y="0" on="1"/>
        <pt x="495" y="0" on="1"/>
        <pt x="495" y="397" on="1"/>
        <pt x="485" y="397" on="1"/>
        <pt x="264" y="397" on="0"/>
        <pt x="46" y="663" on="0"/>
        <pt x="46" y="916" on="1"/>
        <pt x="46" y="1349" on="1"/>
        <pt x="285" y="1349" on="1"/>
        <pt x="285" y="912" on="1"/>
        <pt x="285" y="756" on="0"/>
        <pt x="377" y="618" on="0"/>
        <pt x="486" y="618" on="1"/>
        <pt x="495" y="618" on="1"/>
        <pt x="495" y="1349" on="1"/>
        <pt x="734" y="1349" on="1"/>
        <pt x="734" y="618" on="1"/>
        <pt x="743" y="618" on="1"/>
        <pt x="852" y="618" on="0"/>
        <pt x="944" y="756" on="0"/>
        <pt x="944" y="912" on="1"/>
        <pt x="944" y="1349" on="1"/>
        <pt x="1183" y="1349" on="1"/>
        <pt x="1183" y="916" on="1"/>
        <pt x="1183" y="663" on="0"/>
        <pt x="965" y="397" on="0"/>
        <pt x="744" y="397" on="1"/>
      </contour>
    </TTGlyph>
    <TTGlyph name="Q" xMin="72" yMin="-403" xMax="1168" yMax="1370">
      <contour>
        <pt x="1157" y="679" on="1"/>
        <pt x="1157" y="391" on="0"/>
        <pt x="964" y="51" on="0"/>
        <pt x="779" y="0" on="1"/>
        <pt x="814" y="-97" on="0"/>
        <pt x="940" y="-186" on="0"/>
        <pt x="1045" y="-186" on="1"/>
        <pt x="1090" y="-186" on="0"/>
        <pt x="1168" y="-173" on="1"/>
        <pt x="1168" y="-375" on="1"/>
        <pt x="1042" y="-403" on="0"/>
        <pt x="926" y="-403" on="1"/>
        <pt x="762" y="-403" on="0"/>
        <pt x="548" y="-218" on="0"/>
        <pt x="482" y="-7" on="1"/>
        <pt x="282" y="35" on="0"/>
        <pt x="72" y="379" on="0"/>
        <pt x="72" y="679" on="1"/>
        <pt x="72" y="1024" on="0"/>
        <pt x="353" y="1370" on="0"/>
        <pt x="615" y="1370" on="1"/>
        <pt x="877" y="1370" on="0"/>
        <pt x="1157" y="1024" on="0"/>
      </contour>
      <contour>
        <pt x="858" y="679" on="1"/>
        <pt x="858" y="1138" on="0"/>
        <pt x="615" y="1138" on="1"/>
        <pt x="371" y="1138" on="0"/>
        <pt x="371" y="679" on="1"/>
        <pt x="371" y="449" on="0"/>
        <pt x="494" y="212" on="0"/>
        <pt x="615" y="212" on="1"/>
        <pt x="736" y="212" on="0"/>
        <pt x="858" y="449" on="0"/>
      </contour>
    </TTGlyph>
    <TTGlyph name="R" xMin="137" yMin="0" xMax="1227" yMax="1349">
      <contour>
        <pt x="895" y="0" on="1"/>
        <pt x="605" y="515" on="1"/>
        <pt x="432" y="515" on="1"/>
        <pt x="432" y="0" on="1"/>
        <pt x="137" y="0" on="1"/>
        <pt x="137" y="1349" on="1"/>
        <pt x="631" y="1349" on="1"/>
        <pt x="895" y="1349" on="0"/>
        <pt x="1157" y="1143" on="0"/>
        <pt x="1157" y="949" on="1"/>
        <pt x="1157" y="812" on="0"/>
        <pt x="1009" y="620" on="0"/>
        <pt x="878" y="581" on="1"/>
        <pt x="1227" y="0" on="1"/>
      </contour>
      <contour>
        <pt x="860" y="937" on="1"/>
        <pt x="860" y="1031" on="0"/>
        <pt x="736" y="1120" on="0"/>
        <pt x="600" y="1120" on="1"/>
        <pt x="432" y="1120" on="1"/>
        <pt x="432" y="744" on="1"/>
        <pt x="608" y="744" on="1"/>
        <pt x="860" y="744" on="0"/>
      </contour>
    </TTGlyph>
    <TTGlyph name="Racute" xMin="137" yMin="0" xMax="1227" yMax="1703">
      <component glyphName="R" x="0" y="0" flags="0x204"/>
      <component glyphName="acute" x="72" y="245" flags="0x4"/>
    </TTGlyph>
    <TTGlyph name="Rcaron" xMin="137" yMin="0" xMax="1227" yMax="1705">
      <component glyphName="R" x="0" y="0" flags="0x204"/>
      <component glyphName="caron" x="-19" y="244" flags="0x4"/>
    </TTGlyph>
    <TTGlyph name="Rcommaaccent" xMin="137" yMin="-453" xMax="1227" yMax="1349">
      <component glyphName="R" x="0" y="0" flags="0x204"/>
      <component glyphName="undercommaaccent" x="-3" y="0" flags="0x4"/>
    </TTGlyph>
    <TTGlyph name="Rho" xMin="136" yMin="0" xMax="1142" yMax="1349">
      <component glyphName="P" x="0" y="0" flags="0x204"/>
    </TTGlyph>
    <TTGlyph name="S" xMin="38" yMin="-20" xMax="1165" yMax="1370">
      <contour>
        <pt x="1165" y="391" on="1"/>
        <pt x="1165" y="199" on="0"/>
        <pt x="872" y="-20" on="0"/>
        <pt x="611" y="-20" on="1"/>
        <pt x="376" y="-20" on="0"/>
        <pt x="80" y="178" on="0"/>
        <pt x="38" y="367" on="1"/>
        <pt x="323" y="404" on="1"/>
        <pt x="346" y="310" on="0"/>
        <pt x="492" y="201" on="0"/>
        <pt x="619" y="201" on="1"/>
        <pt x="751" y="201" on="0"/>
        <pt x="878" y="285" on="0"/>
        <pt x="878" y="374" on="1"/>
        <pt x="878" y="440" on="0"/>
        <pt x="766" y="531" on="0"/>
        <pt x="659" y="557" on="1"/>
        <pt x="444" y="609" on="0"/>
        <pt x="267" y="686" on="0"/>
        <pt x="161" y="782" on="0"/>
        <pt x="104" y="911" on="0"/>
        <pt x="104" y="991" on="1"/>
        <pt x="104" y="1166" on="0"/>
        <pt x="385" y="1370" on="0"/>
        <pt x="615" y="1370" on="1"/>
        <pt x="839" y="1370" on="0"/>
        <pt x="1091" y="1193" on="0"/>
        <pt x="1128" y="1007" on="1"/>
        <pt x="842" y="978" on="1"/>
        <pt x="798" y="1161" on="0"/>
        <pt x="609" y="1161" on="1"/>
        <pt x="503" y="1161" on="0"/>
        <pt x="391" y="1082" on="0"/>
        <pt x="391" y="1008" on="1"/>
        <pt x="391" y="959" on="0"/>
        <pt x="445" y="894" on="0"/>
        <pt x="538" y="849" on="0"/>
        <pt x="681" y="812" on="1"/>
        <pt x="869" y="766" on="0"/>
        <pt x="1071" y="653" on="0"/>
        <pt x="1165" y="493" on="0"/>
      </contour>
    </TTGlyph>
    <TTGlyph name="Sacute" xMin="38" yMin="-20" xMax="1165" yMax="1703">
      <component glyphName="S" x="0" y="0" flags="0x204"/>
      <component glyphName="acute" x="120" y="245" flags="0x4"/>
    </TTGlyph>
    <TTGlyph name="Scaron" xMin="38" yMin="-20" xMax="1165" yMax="1705">
      <component glyphName="S" x="0" y="0" flags="0x204"/>
      <component glyphName="caron" x="0" y="244" flags="0x4"/>
    </TTGlyph>
    <TTGlyph name="Scedilla" xMin="38" yMin="-445" xMax="1165" yMax="1370">
      <component glyphName="S" x="0" y="0" flags="0x204"/>
      <component glyphName="cedilla" x="332" y="0" flags="0x4"/>
    </TTGlyph>
    <TTGlyph name="Scircumflex" xMin="38" yMin="-20" xMax="1165" yMax="1705">
      <component glyphName="S" x="0" y="0" flags="0x204"/>
      <component glyphName="circumflex" x="4" y="244" flags="0x4"/>
    </TTGlyph>
    <TTGlyph name="Scommaaccent" xMin="38" yMin="-475" xMax="1165" yMax="1370">
      <component glyphName="S" x="0" y="0" flags="0x204"/>
      <component glyphName="uni0326" x="626" y="-20" flags="0x4"/>
    </TTGlyph>
    <TTGlyph name="Sigma" xMin="100" yMin="0" xMax="1157" yMax="1349">
      <contour>
        <pt x="100" y="0" on="1"/>
        <pt x="100" y="234" on="1"/>
        <pt x="558" y="711" on="1"/>
        <pt x="117" y="1116" on="1"/>
        <pt x="117" y="1349" on="1"/>
        <pt x="1096" y="1349" on="1"/>
        <pt x="1096" y="1105" on="1"/>
        <pt x="454" y="1105" on="1"/>
        <pt x="815" y="778" on="1"/>
        <pt x="815" y="644" on="1"/>
        <pt x="421" y="244" on="1"/>
        <pt x="1157" y="244" on="1"/>
        <pt x="1157" y="0" on="1"/>
      </contour>
    </TTGlyph>
    <TTGlyph name="T" xMin="61" yMin="0" xMax="1168" yMax="1349">
      <contour>
        <pt x="762" y="1121" on="1"/>
        <pt x="762" y="0" on="1"/>
        <pt x="467" y="0" on="1"/>
        <pt x="467" y="1121" on="1"/>
        <pt x="61" y="1121" on="1"/>
        <pt x="61" y="1349" on="1"/>
        <pt x="1168" y="1349" on="1"/>
        <pt x="1168" y="1121" on="1"/>
      </contour>
    </TTGlyph>
    <TTGlyph name="Tau" xMin="61" yMin="0" xMax="1168" yMax="1349">
      <component glyphName="T" x="0" y="0" flags="0x204"/>
    </TTGlyph>
    <TTGlyph name="Tbar" xMin="62" yMin="0" xMax="1168" yMax="1349">
      <contour>
        <pt x="762" y="1121" on="1"/>
        <pt x="762" y="776" on="1"/>
        <pt x="990" y="776" on="1"/>
        <pt x="990" y="586" on="1"/>
        <pt x="762" y="586" on="1"/>
        <pt x="762" y="0" on="1"/>
        <pt x="467" y="0" on="1"/>
        <pt x="467" y="586" on="1"/>
        <pt x="240" y="586" on="1"/>
        <pt x="240" y="776" on="1"/>
        <pt x="467" y="776" on="1"/>
        <pt x="467" y="1121" on="1"/>
        <pt x="62" y="1121" on="1"/>
        <pt x="62" y="1349" on="1"/>
        <pt x="1168" y="1349" on="1"/>
        <pt x="1168" y="1121" on="1"/>
      </contour>
    </TTGlyph>
    <TTGlyph name="Tcaron" xMin="61" yMin="0" xMax="1168" yMax="1705">
      <component glyphName="T" x="0" y="0" flags="0x204"/>
      <component glyphName="caron" x="0" y="244" flags="0x4"/>
    </TTGlyph>
    <TTGlyph name="Tcommaaccent" xMin="61" yMin="-453" xMax="1168" yMax="1349">
      <component glyphName="T" x="0" y="0" flags="0x204"/>
      <component glyphName="undercommaaccent" x="-40" y="0" flags="0x4"/>
    </TTGlyph>
    <TTGlyph name="Theta" xMin="62" yMin="-20" xMax="1167" yMax="1370">
      <contour>
        <pt x="792" y="787" on="1"/>
        <pt x="792" y="573" on="1"/>
        <pt x="437" y="573" on="1"/>
        <pt x="437" y="787" on="1"/>
      </contour>
      <contour>
        <pt x="1167" y="679" on="1"/>
        <pt x="1167" y="339" on="0"/>
        <pt x="881" y="-20" on="0"/>
        <pt x="615" y="-20" on="1"/>
        <pt x="348" y="-20" on="0"/>
        <pt x="62" y="341" on="0"/>
        <pt x="62" y="679" on="1"/>
        <pt x="62" y="1016" on="0"/>
        <pt x="348" y="1370" on="0"/>
        <pt x="615" y="1370" on="1"/>
        <pt x="881" y="1370" on="0"/>
        <pt x="1167" y="1019" on="0"/>
      </contour>
      <contour>
        <pt x="878" y="679" on="1"/>
        <pt x="878" y="901" on="0"/>
        <pt x="740" y="1138" on="0"/>
        <pt x="615" y="1138" on="1"/>
        <pt x="490" y="1138" on="0"/>
        <pt x="351" y="898" on="0"/>
        <pt x="351" y="679" on="1"/>
        <pt x="351" y="460" on="0"/>
        <pt x="490" y="212" on="0"/>
        <pt x="615" y="212" on="1"/>
        <pt x="738" y="212" on="0"/>
        <pt x="878" y="455" on="0"/>
      </contour>
    </TTGlyph>
    <TTGlyph name="Thorn" xMin="137" yMin="0" xMax="1161" yMax="1349">
      <contour>
        <pt x="1161" y="693" on="1"/>
        <pt x="1161" y="567" on="0"/>
        <pt x="1036" y="367" on="0"/>
        <pt x="803" y="256" on="0"/>
        <pt x="647" y="256" on="1"/>
        <pt x="432" y="256" on="1"/>
        <pt x="432" y="0" on="1"/>
        <pt x="137" y="0" on="1"/>
        <pt x="137" y="1349" on="1"/>
        <pt x="432" y="1349" on="1"/>
        <pt x="432" y="1114" on="1"/>
        <pt x="635" y="1114" on="1"/>
        <pt x="885" y="1114" on="0"/>
        <pt x="1161" y="893" on="0"/>
      </contour>
      <contour>
        <pt x="864" y="689" on="1"/>
        <pt x="864" y="790" on="0"/>
        <pt x="725" y="905" on="0"/>
        <pt x="602" y="905" on="1"/>
        <pt x="432" y="905" on="1"/>
        <pt x="432" y="465" on="1"/>
        <pt x="610" y="465" on="1"/>
        <pt x="725" y="465" on="0"/>
        <pt x="864" y="585" on="0"/>
      </contour>
    </TTGlyph>
    <TTGlyph name="U" xMin="129" yMin="-20" xMax="1100" yMax="1349">
      <contour>
        <pt x="599" y="-20" on="1"/>
        <pt x="353" y="-20" on="0"/>
        <pt x="129" y="248" on="0"/>
        <pt x="129" y="528" on="1"/>
        <pt x="129" y="1349" on="1"/>
        <pt x="424" y="1349" on="1"/>
        <pt x="424" y="531" on="1"/>
        <pt x="424" y="356" on="0"/>
        <pt x="505" y="211" on="0"/>
        <pt x="607" y="211" on="1"/>
        <pt x="711" y="211" on="0"/>
        <pt x="805" y="365" on="0"/>
        <pt x="805" y="541" on="1"/>
        <pt x="805" y="1349" on="1"/>
        <pt x="1100" y="1349" on="1"/>
        <pt x="1100" y="543" on="1"/>
        <pt x="1100" y="257" on="0"/>
        <pt x="853" y="-20" on="0"/>
      </contour>
    </TTGlyph>
    <TTGlyph name="Uacute" xMin="129" yMin="-20" xMax="1100" yMax="1702">
      <component glyphName="U" x="0" y="0" flags="0x204"/>
      <component glyphName="acute" x="86" y="244" flags="0x4"/>
    </TTGlyph>
    <TTGlyph name="Ubreve" xMin="129" yMin="-20" xMax="1100" yMax="1705">
      <component glyphName="U" x="0" y="0" flags="0x204"/>
      <component glyphName="breve" x="0" y="244" flags="0x4"/>
    </TTGlyph>
    <TTGlyph name="Ucircumflex" xMin="129" yMin="-20" xMax="1100" yMax="1705">
      <component glyphName="U" x="0" y="0" flags="0x204"/>
      <component glyphName="circumflex" x="0" y="244" flags="0x4"/>
    </TTGlyph>
    <TTGlyph name="Udieresis" xMin="129" yMin="-20" xMax="1100" yMax="1664">
      <component glyphName="U" x="0" y="0" flags="0x204"/>
      <component glyphName="dieresis" x="0" y="226" flags="0x4"/>
    </TTGlyph>
    <TTGlyph name="Udotbelow" xMin="129" yMin="-366" xMax="1100" yMax="1349">
      <component glyphName="U" x="0" y="0" flags="0x204"/>
      <component glyphName="dotbelow.alt1" x="825" y="0" flags="0x4"/>
    </TTGlyph>
    <TTGlyph name="Ugrave" xMin="129" yMin="-20" xMax="1100" yMax="1702">
      <component glyphName="U" x="0" y="0" flags="0x204"/>
      <component glyphName="grave" x="-97" y="244" flags="0x4"/>
    </TTGlyph>
    <TTGlyph name="Uhookabove" xMin="129" yMin="-20" xMax="1100" yMax="1785">
      <component glyphName="U" x="0" y="0" flags="0x204"/>
      <component glyphName="hookabovecomb" x="883" y="0" flags="0x4"/>
    </TTGlyph>
    <TTGlyph name="Uhorn" xMin="129" yMin="-20" xMax="1317" yMax="1409">
      <contour>
        <pt x="569" y="-20" on="1"/>
        <pt x="335" y="-20" on="0"/>
        <pt x="129" y="234" on="0"/>
        <pt x="129" y="528" on="1"/>
        <pt x="129" y="1349" on="1"/>
        <pt x="424" y="1349" on="1"/>
        <pt x="424" y="531" on="1"/>
        <pt x="424" y="352" on="0"/>
        <pt x="492" y="211" on="0"/>
        <pt x="577" y="211" on="1"/>
        <pt x="666" y="211" on="0"/>
        <pt x="745" y="368" on="0"/>
        <pt x="745" y="541" on="1"/>
        <pt x="745" y="1349" on="1"/>
        <pt x="1040" y="1349" on="1"/>
        <pt x="1040" y="900" on="1"/>
        <pt x="1123" y="919" on="0"/>
        <pt x="1205" y="1049" on="0"/>
        <pt x="1205" y="1149" on="1"/>
        <pt x="1103" y="1149" on="1"/>
        <pt x="1103" y="1409" on="1"/>
        <pt x="1317" y="1409" on="1"/>
        <pt x="1317" y="1199" on="1"/>
        <pt x="1317" y="1013" on="0"/>
        <pt x="1183" y="794" on="0"/>
        <pt x="1040" y="764" on="1"/>
        <pt x="1040" y="543" on="1"/>
        <pt x="1040" y="252" on="0"/>
        <pt x="817" y="-20" on="0"/>
      </contour>
    </TTGlyph>
    <TTGlyph name="Uhornacute" xMin="129" yMin="-20" xMax="1317" yMax="1703">
      <component glyphName="Uhorn" x="0" y="0" flags="0x204"/>
      <component glyphName="acute.uc" x="398" y="0" flags="0x4"/>
    </TTGlyph>
    <TTGlyph name="Uhorndotbelow" xMin="129" yMin="-366" xMax="1317" yMax="1409">
      <component glyphName="Uhorn" x="0" y="0" flags="0x204"/>
      <component glyphName="dotbelow.alt1" x="794" y="0" flags="0x4"/>
    </TTGlyph>
    <TTGlyph name="Uhorngrave" xMin="129" yMin="-20" xMax="1317" yMax="1702">
      <component glyphName="Uhorn" x="0" y="0" flags="0x204"/>
      <component glyphName="grave.uc" x="121" y="0" flags="0x4"/>
    </TTGlyph>
    <TTGlyph name="Uhornhookabove" xMin="129" yMin="-20" xMax="1317" yMax="1785">
      <component glyphName="Uhorn" x="0" y="0" flags="0x204"/>
      <component glyphName="hookabovecomb" x="871" y="0" flags="0x4"/>
    </TTGlyph>
    <TTGlyph name="Uhorntilde" xMin="129" yMin="-20" xMax="1317" yMax="1705">
      <component glyphName="Uhorn" x="0" y="0" flags="0x204"/>
      <component glyphName="tilde" x="-25" y="239" flags="0x4"/>
    </TTGlyph>
    <TTGlyph name="Uhungarumlaut" xMin="129" yMin="-20" xMax="1130" yMax="1705">
      <component glyphName="U" x="0" y="0" flags="0x204"/>
      <component glyphName="hungarumlaut" x="264" y="244" flags="0x4"/>
    </TTGlyph>
    <TTGlyph name="Umacron" xMin="129" yMin="-20" xMax="1100" yMax="1638">
      <component glyphName="U" x="0" y="0" flags="0x204"/>
      <component glyphName="uni02C9" x="2" y="267" flags="0x4"/>
    </TTGlyph>
    <TTGlyph name="Uogonek" xMin="129" yMin="-425" xMax="1100" yMax="1349">
      <component glyphName="U" x="0" y="0" flags="0x204"/>
      <component glyphName="ogonek" x="59" y="0" flags="0x4"/>
    </TTGlyph>
    <TTGlyph name="Upsilon" xMin="3" yMin="0" xMax="1225" yMax="1349">
      <component glyphName="Y" x="0" y="0" flags="0x204"/>
    </TTGlyph>
    <TTGlyph name="Upsilondieresis" xMin="3" yMin="0" xMax="1225" yMax="1705">
      <component glyphName="Y" x="0" y="0" flags="0x204"/>
      <component glyphName="dieresis" x="0" y="267" flags="0x4"/>
    </TTGlyph>
    <TTGlyph name="Upsilontonos" xMin="-55" yMin="0" xMax="1229" yMax="1349">
      <contour>
        <pt x="896" y="446" on="1"/>
        <pt x="896" y="0" on="1"/>
        <pt x="610" y="0" on="1"/>
        <pt x="610" y="446" on="1"/>
        <pt x="277" y="1349" on="1"/>
        <pt x="564" y="1349" on="1"/>
        <pt x="751" y="747" on="1"/>
        <pt x="942" y="1349" on="1"/>
        <pt x="1229" y="1349" on="1"/>
      </contour>
      <contour>
        <pt x="-55" y="994" on="1"/>
        <pt x="-55" y="1027" on="1"/>
        <pt x="-1" y="1349" on="1"/>
        <pt x="256" y="1349" on="1"/>
        <pt x="256" y="1312" on="1"/>
        <pt x="50" y="994" on="1"/>
      </contour>
    </TTGlyph>
    <TTGlyph name="Uring" xMin="129" yMin="-20" xMax="1100" yMax="1705">
      <component glyphName="U" x="0" y="0" flags="0x204"/>
      <component glyphName="ring" x="0" y="158" flags="0x4"/>
    </TTGlyph>
    <TTGlyph name="Utilde" xMin="129" yMin="-20" xMax="1100" yMax="1705">
      <component glyphName="U" x="0" y="0" flags="0x204"/>
      <component glyphName="tilde" x="0" y="239" flags="0x4"/>
    </TTGlyph>
    <TTGlyph name="V" xMin="3" yMin="0" xMax="1227" yMax="1349">
      <contour>
        <pt x="766" y="0" on="1"/>
        <pt x="467" y="0" on="1"/>
        <pt x="3" y="1349" on="1"/>
        <pt x="311" y="1349" on="1"/>
        <pt x="544" y="574" on="1"/>
        <pt x="571" y="486" on="0"/>
        <pt x="618" y="308" on="1"/>
        <pt x="639" y="394" on="1"/>
        <pt x="690" y="574" on="1"/>
        <pt x="922" y="1349" on="1"/>
        <pt x="1227" y="1349" on="1"/>
      </contour>
    </TTGlyph>
    <TTGlyph name="W" xMin="0" yMin="0" xMax="1228" yMax="1349">
      <contour>
        <pt x="1018" y="0" on="1"/>
        <pt x="770" y="0" on="1"/>
        <pt x="706" y="267" on="1"/>
        <pt x="656" y="456" on="0"/>
        <pt x="616" y="636" on="1"/>
        <pt x="581" y="489" on="1"/>
        <pt x="537" y="312" on="1"/>
        <pt x="459" y="0" on="1"/>
        <pt x="211" y="0" on="1"/>
        <pt x="0" y="1349" on="1"/>
        <pt x="259" y="1349" on="1"/>
        <pt x="348" y="654" on="1"/>
        <pt x="360" y="558" on="0"/>
        <pt x="364" y="388" on="1"/>
        <pt x="379" y="464" on="1"/>
        <pt x="419" y="632" on="1"/>
        <pt x="518" y="971" on="1"/>
        <pt x="713" y="971" on="1"/>
        <pt x="812" y="632" on="1"/>
        <pt x="825" y="587" on="0"/>
        <pt x="844" y="500" on="0"/>
        <pt x="867" y="388" on="1"/>
        <pt x="869" y="415" on="1"/>
        <pt x="875" y="576" on="0"/>
        <pt x="885" y="654" on="1"/>
        <pt x="969" y="1349" on="1"/>
        <pt x="1228" y="1349" on="1"/>
      </contour>
    </TTGlyph>
    <TTGlyph name="Wacute" xMin="0" yMin="0" xMax="1228" yMax="1705">
      <component glyphName="W" x="0" y="0" flags="0x204"/>
      <component glyphName="acute" x="103" y="247" flags="0x4"/>
    </TTGlyph>
    <TTGlyph name="Wcircumflex" xMin="0" yMin="0" xMax="1228" yMax="1705">
      <component glyphName="W" x="0" y="0" flags="0x204"/>
      <component glyphName="circumflex" x="0" y="244" flags="0x4"/>
    </TTGlyph>
    <TTGlyph name="Wdieresis" xMin="0" yMin="0" xMax="1228" yMax="1665">
      <component glyphName="W" x="0" y="0" flags="0x204"/>
      <component glyphName="dieresis" x="1" y="227" flags="0x4"/>
    </TTGlyph>
    <TTGlyph name="Wgrave" xMin="0" yMin="0" xMax="1228" yMax="1703">
      <component glyphName="W" x="0" y="0" flags="0x204"/>
      <component glyphName="grave" x="-79" y="245" flags="0x4"/>
    </TTGlyph>
    <TTGlyph name="X" xMin="0" yMin="0" xMax="1229" yMax="1349">
      <contour>
        <pt x="919" y="0" on="1"/>
        <pt x="616" y="493" on="1"/>
        <pt x="312" y="0" on="1"/>
        <pt x="0" y="0" on="1"/>
        <pt x="459" y="711" on="1"/>
        <pt x="41" y="1349" on="1"/>
        <pt x="353" y="1349" on="1"/>
        <pt x="616" y="919" on="1"/>
        <pt x="878" y="1349" on="1"/>
        <pt x="1188" y="1349" on="1"/>
        <pt x="760" y="711" on="1"/>
        <pt x="1229" y="0" on="1"/>
      </contour>
    </TTGlyph>
    <TTGlyph name="Xi" xMin="115" yMin="0" xMax="1114" yMax="1349">
      <contour>
        <pt x="135" y="1105" on="1"/>
        <pt x="135" y="1349" on="1"/>
        <pt x="1094" y="1349" on="1"/>
        <pt x="1094" y="1105" on="1"/>
      </contour>
      <contour>
        <pt x="115" y="0" on="1"/>
        <pt x="115" y="244" on="1"/>
        <pt x="1114" y="244" on="1"/>
        <pt x="1114" y="0" on="1"/>
      </contour>
      <contour>
        <pt x="969" y="808" on="1"/>
        <pt x="969" y="580" on="1"/>
        <pt x="260" y="580" on="1"/>
        <pt x="260" y="808" on="1"/>
      </contour>
    </TTGlyph>
    <TTGlyph name="Y" xMin="3" yMin="0" xMax="1225" yMax="1349">
      <contour>
        <pt x="761" y="556" on="1"/>
        <pt x="761" y="0" on="1"/>
        <pt x="467" y="0" on="1"/>
        <pt x="467" y="556" on="1"/>
        <pt x="3" y="1349" on="1"/>
        <pt x="312" y="1349" on="1"/>
        <pt x="612" y="783" on="1"/>
        <pt x="916" y="1349" on="1"/>
        <pt x="1225" y="1349" on="1"/>
      </contour>
    </TTGlyph>
    <TTGlyph name="Yacute" xMin="3" yMin="0" xMax="1225" yMax="1702">
      <component glyphName="Y" x="0" y="0" flags="0x204"/>
      <component glyphName="acute" x="101" y="244" flags="0x4"/>
    </TTGlyph>
    <TTGlyph name="Ycircumflex" xMin="3" yMin="0" xMax="1225" yMax="1705">
      <component glyphName="Y" x="0" y="0" flags="0x204"/>
      <component glyphName="circumflex" x="0" y="244" flags="0x4"/>
    </TTGlyph>
    <TTGlyph name="Ydieresis" xMin="3" yMin="0" xMax="1225" yMax="1664">
      <component glyphName="Y" x="0" y="0" flags="0x204"/>
      <component glyphName="dieresis" x="0" y="226" flags="0x4"/>
    </TTGlyph>
    <TTGlyph name="Ydotbelow" xMin="3" yMin="-366" xMax="1225" yMax="1349">
      <component glyphName="Y" x="0" y="0" flags="0x204"/>
      <component glyphName="dotbelow.alt1" x="825" y="0" flags="0x4"/>
    </TTGlyph>
    <TTGlyph name="Ygrave" xMin="3" yMin="0" xMax="1225" yMax="1705">
      <component glyphName="Y" x="0" y="0" flags="0x204"/>
      <component glyphName="grave" x="-80" y="247" flags="0x4"/>
    </TTGlyph>
    <TTGlyph name="Yhookabove" xMin="3" yMin="0" xMax="1225" yMax="1785">
      <component glyphName="Y" x="0" y="0" flags="0x204"/>
      <component glyphName="hookabovecomb" x="884" y="0" flags="0x4"/>
    </TTGlyph>
    <TTGlyph name="Ytilde" xMin="3" yMin="0" xMax="1225" yMax="1705">
      <component glyphName="Y" x="0" y="0" flags="0x204"/>
      <component glyphName="tilde" x="0" y="239" flags="0x4"/>
    </TTGlyph>
    <TTGlyph name="Z" xMin="87" yMin="0" xMax="1138" yMax="1349">
      <contour>
        <pt x="1138" y="0" on="1"/>
        <pt x="87" y="0" on="1"/>
        <pt x="87" y="209" on="1"/>
        <pt x="758" y="1118" on="1"/>
        <pt x="163" y="1118" on="1"/>
        <pt x="163" y="1349" on="1"/>
        <pt x="1097" y="1349" on="1"/>
        <pt x="1097" y="1144" on="1"/>
        <pt x="426" y="231" on="1"/>
        <pt x="1138" y="231" on="1"/>
      </contour>
    </TTGlyph>
    <TTGlyph name="Zacute" xMin="87" yMin="0" xMax="1138" yMax="1703">
      <component glyphName="Z" x="0" y="0" flags="0x204"/>
      <component glyphName="acute" x="102" y="245" flags="0x4"/>
    </TTGlyph>
    <TTGlyph name="Zcaron" xMin="87" yMin="0" xMax="1138" yMax="1705">
      <component glyphName="Z" x="0" y="0" flags="0x204"/>
      <component glyphName="caron" x="10" y="244" flags="0x4"/>
    </TTGlyph>
    <TTGlyph name="Zdotaccent" xMin="87" yMin="0" xMax="1138" yMax="1628">
      <component glyphName="Z" x="0" y="0" flags="0x204"/>
      <component glyphName="dotaccent" x="13" y="154" flags="0x4"/>
    </TTGlyph>
    <TTGlyph name="Zeta" xMin="87" yMin="0" xMax="1138" yMax="1349">
      <component glyphName="Z" x="0" y="0" flags="0x204"/>
    </TTGlyph>
    <TTGlyph name="a" xMin="106" yMin="-20" xMax="1178" yMax="1102">
      <contour>
        <pt x="439" y="-20" on="1"/>
        <pt x="282" y="-20" on="0"/>
        <pt x="106" y="151" on="0"/>
        <pt x="106" y="306" on="1"/>
        <pt x="106" y="474" on="0"/>
        <pt x="315" y="649" on="0"/>
        <pt x="523" y="652" on="1"/>
        <pt x="746" y="656" on="1"/>
        <pt x="746" y="711" on="1"/>
        <pt x="746" y="814" on="0"/>
        <pt x="676" y="920" on="0"/>
        <pt x="598" y="920" on="1"/>
        <pt x="525" y="920" on="0"/>
        <pt x="456" y="847" on="0"/>
        <pt x="448" y="767" on="1"/>
        <pt x="155" y="781" on="1"/>
        <pt x="209" y="1102" on="0"/>
        <pt x="610" y="1102" on="1"/>
        <pt x="812" y="1102" on="0"/>
        <pt x="1027" y="904" on="0"/>
        <pt x="1027" y="712" on="1"/>
        <pt x="1027" y="320" on="1"/>
        <pt x="1027" y="229" on="0"/>
        <pt x="1068" y="160" on="0"/>
        <pt x="1116" y="160" on="1"/>
        <pt x="1148" y="160" on="0"/>
        <pt x="1178" y="166" on="1"/>
        <pt x="1178" y="14" on="1"/>
        <pt x="1153" y="8" on="0"/>
        <pt x="1113" y="-2" on="0"/>
        <pt x="1073" y="-8" on="0"/>
        <pt x="1028" y="-12" on="0"/>
        <pt x="998" y="-12" on="1"/>
        <pt x="892" y="-12" on="0"/>
        <pt x="791" y="92" on="0"/>
        <pt x="781" y="193" on="1"/>
        <pt x="775" y="193" on="1"/>
        <pt x="712" y="80" on="0"/>
        <pt x="551" y="-20" on="0"/>
      </contour>
      <contour>
        <pt x="746" y="501" on="1"/>
        <pt x="612" y="499" on="1"/>
        <pt x="522" y="497" on="0"/>
        <pt x="441" y="464" on="0"/>
        <pt x="399" y="391" on="0"/>
        <pt x="399" y="328" on="1"/>
        <pt x="399" y="176" on="0"/>
        <pt x="519" y="176" on="1"/>
        <pt x="616" y="176" on="0"/>
        <pt x="746" y="329" on="0"/>
        <pt x="746" y="446" on="1"/>
      </contour>
    </TTGlyph>
    <TTGlyph name="aacute" xMin="106" yMin="-20" xMax="1178" yMax="1458">
      <component glyphName="a" x="0" y="0" flags="0x204"/>
      <component glyphName="acute" x="77" y="0" flags="0x4"/>
    </TTGlyph>
    <TTGlyph name="abreve" xMin="106" yMin="-20" xMax="1178" yMax="1461">
      <component glyphName="a" x="0" y="0" flags="0x204"/>
      <component glyphName="breve" x="-19" y="0" flags="0x4"/>
    </TTGlyph>
    <TTGlyph name="abreveacute" xMin="106" yMin="-20" xMax="1178" yMax="1786">
      <component glyphName="a" x="0" y="0" flags="0x204"/>
      <component glyphName="breveacute.lc" x="613" y="0" flags="0x4"/>
    </TTGlyph>
    <TTGlyph name="abrevedotbelow" xMin="106" yMin="-366" xMax="1178" yMax="1461">
      <component glyphName="a" x="0" y="0" flags="0x204"/>
      <component glyphName="breve" x="0" y="0" flags="0x4"/>
      <component glyphName="dotbelow.alt1" x="825" y="0" flags="0x4"/>
    </TTGlyph>
    <TTGlyph name="abrevegrave" xMin="106" yMin="-20" xMax="1178" yMax="1786">
      <component glyphName="a" x="0" y="0" flags="0x204"/>
      <component glyphName="brevegrave.lc" x="613" y="0" flags="0x4"/>
    </TTGlyph>
    <TTGlyph name="abrevehookabove" xMin="106" yMin="-20" xMax="1178" yMax="1794">
      <component glyphName="a" x="0" y="0" flags="0x204"/>
      <component glyphName="brevehook.lc" x="614" y="0" flags="0x4"/>
    </TTGlyph>
    <TTGlyph name="abrevetilde" xMin="106" yMin="-20" xMax="1178" yMax="1785">
      <component glyphName="a" x="0" y="0" flags="0x204"/>
      <component glyphName="brevetilde.lc" x="611" y="0" flags="0x4"/>
    </TTGlyph>
    <TTGlyph name="acircumflex" xMin="106" yMin="-20" xMax="1178" yMax="1461">
      <component glyphName="a" x="0" y="0" flags="0x204"/>
      <component glyphName="circumflex" x="-18" y="0" flags="0x4"/>
    </TTGlyph>
    <TTGlyph name="acircumflexacute" xMin="106" yMin="-20" xMax="1183" yMax="1574">
      <component glyphName="a" x="0" y="0" flags="0x204"/>
      <component glyphName="circumflexacute.lc" x="614" y="0" flags="0x4"/>
    </TTGlyph>
    <TTGlyph name="acircumflexdotbelow" xMin="106" yMin="-366" xMax="1178" yMax="1461">
      <component glyphName="a" x="0" y="0" flags="0x204"/>
      <component glyphName="circumflex" x="0" y="0" flags="0x4"/>
      <component glyphName="dotbelow.alt1" x="825" y="0" flags="0x4"/>
    </TTGlyph>
    <TTGlyph name="acircumflexgrave" xMin="51" yMin="-20" xMax="1178" yMax="1574">
      <component glyphName="a" x="0" y="0" flags="0x204"/>
      <component glyphName="circumflexgrave.lc" x="614" y="0" flags="0x4"/>
    </TTGlyph>
    <TTGlyph name="acircumflexhookabove" xMin="106" yMin="-20" xMax="1178" yMax="1653">
      <component glyphName="a" x="0" y="0" flags="0x204"/>
      <component glyphName="circumflexhook.lc" x="614" y="0" flags="0x4"/>
    </TTGlyph>
    <TTGlyph name="acircumflextilde" xMin="106" yMin="-20" xMax="1178" yMax="1787">
      <component glyphName="a" x="0" y="0" flags="0x204"/>
      <component glyphName="circumflextilde.lc" x="614" y="0" flags="0x4"/>
    </TTGlyph>
    <TTGlyph name="acute" xMin="367" yMin="1184" xMax="877" yMax="1458">
      <contour>
        <pt x="367" y="1184" on="1"/>
        <pt x="367" y="1215" on="1"/>
        <pt x="619" y="1458" on="1"/>
        <pt x="877" y="1458" on="1"/>
        <pt x="877" y="1415" on="1"/>
        <pt x="537" y="1184" on="1"/>
      </contour>
    </TTGlyph>
    <TTGlyph name="acute.uc" xMin="87" yMin="1429" xMax="597" yMax="1703">
      <contour>
        <pt x="87" y="1429" on="1"/>
        <pt x="87" y="1460" on="1"/>
        <pt x="339" y="1703" on="1"/>
        <pt x="597" y="1703" on="1"/>
        <pt x="597" y="1660" on="1"/>
        <pt x="257" y="1429" on="1"/>
      </contour>
    </TTGlyph>
    <TTGlyph name="acutecomb" xMin="-415" yMin="1572" xMax="15" yMax="1854">
      <contour>
        <pt x="-415" y="1572" on="1"/>
        <pt x="-415" y="1599" on="1"/>
        <pt x="-243" y="1854" on="1"/>
        <pt x="15" y="1854" on="1"/>
        <pt x="15" y="1816" on="1"/>
        <pt x="-266" y="1572" on="1"/>
      </contour>
    </TTGlyph>
    <TTGlyph name="adieresis" xMin="106" yMin="-20" xMax="1178" yMax="1438">
      <component glyphName="a" x="0" y="0" flags="0x204"/>
      <component glyphName="dieresis" x="-16" y="0" flags="0x4"/>
    </TTGlyph>
    <TTGlyph name="adotbelow" xMin="106" yMin="-366" xMax="1178" yMax="1102">
      <component glyphName="a" x="0" y="0" flags="0x204"/>
      <component glyphName="dotbelow.alt1" x="825" y="0" flags="0x4"/>
    </TTGlyph>
    <TTGlyph name="ae" xMin="20" yMin="-20" xMax="1208" yMax="1102">
      <contour>
        <pt x="699" y="484" on="1"/>
        <pt x="699" y="482" on="1"/>
        <pt x="699" y="333" on="0"/>
        <pt x="788" y="160" on="0"/>
        <pt x="864" y="160" on="1"/>
        <pt x="924" y="160" on="0"/>
        <pt x="988" y="236" on="0"/>
        <pt x="1004" y="301" on="1"/>
        <pt x="1182" y="256" on="1"/>
        <pt x="1145" y="116" on="0"/>
        <pt x="984" y="-20" on="0"/>
        <pt x="868" y="-20" on="1"/>
        <pt x="753" y="-20" on="0"/>
        <pt x="620" y="90" on="0"/>
        <pt x="586" y="212" on="1"/>
        <pt x="536" y="94" on="0"/>
        <pt x="378" y="-20" on="0"/>
        <pt x="278" y="-20" on="1"/>
        <pt x="155" y="-20" on="0"/>
        <pt x="20" y="153" on="0"/>
        <pt x="20" y="302" on="1"/>
        <pt x="20" y="474" on="0"/>
        <pt x="184" y="657" on="0"/>
        <pt x="350" y="660" on="1"/>
        <pt x="497" y="664" on="1"/>
        <pt x="497" y="719" on="1"/>
        <pt x="497" y="812" on="0"/>
        <pt x="437" y="920" on="0"/>
        <pt x="381" y="920" on="1"/>
        <pt x="332" y="920" on="0"/>
        <pt x="281" y="846" on="0"/>
        <pt x="273" y="773" on="1"/>
        <pt x="65" y="790" on="1"/>
        <pt x="104" y="1102" on="0"/>
        <pt x="380" y="1102" on="1"/>
        <pt x="556" y="1102" on="0"/>
        <pt x="627" y="963" on="1"/>
        <pt x="712" y="1102" on="0"/>
        <pt x="873" y="1102" on="1"/>
        <pt x="1039" y="1102" on="0"/>
        <pt x="1208" y="819" on="0"/>
        <pt x="1208" y="527" on="1"/>
        <pt x="1208" y="484" on="1"/>
      </contour>
      <contour>
        <pt x="229" y="299" on="1"/>
        <pt x="229" y="235" on="0"/>
        <pt x="270" y="162" on="0"/>
        <pt x="308" y="162" on="1"/>
        <pt x="386" y="162" on="0"/>
        <pt x="497" y="334" on="0"/>
        <pt x="497" y="445" on="1"/>
        <pt x="497" y="499" on="1"/>
        <pt x="395" y="496" on="1"/>
        <pt x="302" y="493" on="0"/>
        <pt x="229" y="400" on="0"/>
      </contour>
      <contour>
        <pt x="859" y="924" on="1"/>
        <pt x="819" y="924" on="0"/>
        <pt x="747" y="859" on="0"/>
        <pt x="703" y="742" on="0"/>
        <pt x="701" y="660" on="1"/>
        <pt x="1002" y="660" on="1"/>
        <pt x="994" y="793" on="0"/>
        <pt x="925" y="924" on="0"/>
      </contour>
    </TTGlyph>
    <TTGlyph name="aeacute" xMin="20" yMin="-20" xMax="1208" yMax="1458">
      <component glyphName="ae" x="0" y="0" flags="0x204"/>
      <component glyphName="acute" x="110" y="0" flags="0x4"/>
    </TTGlyph>
    <TTGlyph name="agrave" xMin="106" yMin="-20" xMax="1178" yMax="1458">
      <component glyphName="a" x="0" y="0" flags="0x204"/>
      <component glyphName="grave" x="-114" y="0" flags="0x4"/>
    </TTGlyph>
    <TTGlyph name="ahookabove" xMin="106" yMin="-20" xMax="1178" yMax="1531">
      <component glyphName="a" x="0" y="0" flags="0x204"/>
      <component glyphName="hookabove.alt4" x="873" y="0" flags="0x4"/>
    </TTGlyph>
    <TTGlyph name="alef" xMin="25" yMin="0" xMax="1208" yMax="1241">
      <contour>
        <pt x="78" y="1241" on="1"/>
        <pt x="393" y="1241" on="1"/>
        <pt x="758" y="680" on="1"/>
        <pt x="804" y="730" on="0"/>
        <pt x="853" y="885" on="0"/>
        <pt x="866" y="1022" on="1"/>
        <pt x="885" y="1241" on="1"/>
        <pt x="1153" y="1241" on="1"/>
        <pt x="1133" y="1004" on="1"/>
        <pt x="1123" y="903" on="0"/>
        <pt x="1071" y="749" on="0"/>
        <pt x="977" y="610" on="0"/>
        <pt x="874" y="508" on="1"/>
        <pt x="1208" y="0" on="1"/>
        <pt x="895" y="0" on="1"/>
        <pt x="446" y="692" on="1"/>
        <pt x="422" y="676" on="0"/>
        <pt x="395" y="612" on="0"/>
        <pt x="369" y="478" on="0"/>
        <pt x="297" y="0" on="1"/>
        <pt x="25" y="0" on="1"/>
        <pt x="98" y="414" on="1"/>
        <pt x="134" y="594" on="0"/>
        <pt x="188" y="735" on="0"/>
        <pt x="266" y="819" on="0"/>
        <pt x="338" y="854" on="1"/>
      </contour>
    </TTGlyph>
    <TTGlyph name="alefdagesh" xMin="25" yMin="0" xMax="1208" yMax="1241">
      <component glyphName="alef" x="0" y="0" flags="0x204"/>
      <component glyphName="dagesh" x="-101" y="-511" flags="0x4"/>
    </TTGlyph>
    <TTGlyph name="aleflamed" xMin="39" yMin="0" xMax="1200" yMax="1679">
      <contour>
        <pt x="188" y="1057" on="1"/>
        <pt x="39" y="1057" on="1"/>
        <pt x="39" y="1679" on="1"/>
        <pt x="309" y="1679" on="1"/>
        <pt x="309" y="1241" on="1"/>
        <pt x="383" y="1241" on="1"/>
        <pt x="739" y="686" on="1"/>
        <pt x="786" y="727" on="0"/>
        <pt x="830" y="852" on="0"/>
        <pt x="848" y="1022" on="1"/>
        <pt x="870" y="1241" on="1"/>
        <pt x="1147" y="1241" on="1"/>
        <pt x="1122" y="1001" on="1"/>
        <pt x="1106" y="839" on="0"/>
        <pt x="993" y="621" on="0"/>
        <pt x="862" y="506" on="1"/>
        <pt x="1200" y="0" on="1"/>
        <pt x="883" y="0" on="1"/>
      </contour>
    </TTGlyph>
    <TTGlyph name="aleflamedhatafsegol" xMin="39" yMin="-385" xMax="1200" yMax="1679">
      <component glyphName="aleflamed" x="0" y="0" flags="0x204"/>
      <component glyphName="hatafsegol" x="-11" y="0" flags="0x4"/>
    </TTGlyph>
    <TTGlyph name="aleflamedsegol" xMin="39" yMin="-385" xMax="1200" yMax="1679">
      <component glyphName="aleflamed" x="0" y="0" flags="0x4"/>
      <component glyphName="segol" x="-30" y="0" flags="0x4"/>
    </TTGlyph>
    <TTGlyph name="aleflamedtsere" xMin="39" yMin="-348" xMax="1200" yMax="1679">
      <component glyphName="aleflamed" x="0" y="0" flags="0x4"/>
      <component glyphName="tsere" x="-24" y="0" flags="0x4"/>
    </TTGlyph>
    <TTGlyph name="alefmapiq" xMin="25" yMin="0" xMax="1208" yMax="1241">
      <component glyphName="alef" x="0" y="0" flags="0x204"/>
      <component glyphName="dagesh" x="-101" y="-511" flags="0x4"/>
    </TTGlyph>
    <TTGlyph name="alefpatah" xMin="25" yMin="-231" xMax="1208" yMax="1241">
      <component glyphName="alef" x="0" y="0" flags="0x204"/>
      <component glyphName="patah" x="-22" y="0" flags="0x4"/>
    </TTGlyph>
    <TTGlyph name="alefqamats" xMin="25" yMin="-348" xMax="1208" yMax="1241">
      <component glyphName="alef" x="0" y="0" flags="0x204"/>
      <component glyphName="qamats" x="-22" y="0" flags="0x4"/>
    </TTGlyph>
    <TTGlyph name="alefwide" xMin="25" yMin="0" xMax="1208" yMax="1241">
      <component glyphName="alef" x="0" y="0" flags="0x204"/>
    </TTGlyph>
    <TTGlyph name="alpha" xMin="70" yMin="-20" xMax="1228" yMax="1102">
      <contour>
        <pt x="850" y="237" on="1"/>
        <pt x="788" y="102" on="0"/>
        <pt x="616" y="-20" on="0"/>
        <pt x="491" y="-20" on="1"/>
        <pt x="279" y="-20" on="0"/>
        <pt x="70" y="255" on="0"/>
        <pt x="70" y="536" on="1"/>
        <pt x="70" y="820" on="0"/>
        <pt x="297" y="1102" on="0"/>
        <pt x="517" y="1102" on="1"/>
        <pt x="648" y="1102" on="0"/>
        <pt x="837" y="969" on="0"/>
        <pt x="885" y="847" on="1"/>
        <pt x="888" y="847" on="1"/>
        <pt x="913" y="971" on="0"/>
        <pt x="963" y="1082" on="1"/>
        <pt x="1228" y="1082" on="1"/>
        <pt x="1178" y="991" on="0"/>
        <pt x="1071" y="671" on="0"/>
        <pt x="1059" y="556" on="1"/>
        <pt x="1091" y="247" on="0"/>
        <pt x="1195" y="0" on="1"/>
        <pt x="925" y="0" on="1"/>
        <pt x="876" y="120" on="0"/>
        <pt x="854" y="237" on="1"/>
      </contour>
      <contour>
        <pt x="365" y="539" on="1"/>
        <pt x="365" y="343" on="0"/>
        <pt x="450" y="173" on="0"/>
        <pt x="546" y="173" on="1"/>
        <pt x="635" y="173" on="0"/>
        <pt x="763" y="375" on="0"/>
        <pt x="781" y="542" on="1"/>
        <pt x="759" y="720" on="0"/>
        <pt x="642" y="908" on="0"/>
        <pt x="554" y="908" on="1"/>
        <pt x="452" y="908" on="0"/>
        <pt x="365" y="730" on="0"/>
      </contour>
    </TTGlyph>
    <TTGlyph name="alphatonos" xMin="70" yMin="-20" xMax="1228" yMax="1556">
      <component glyphName="alpha" x="0" y="0" flags="0x204"/>
      <component glyphName="tonos" x="60" y="0" flags="0x4"/>
    </TTGlyph>
    <TTGlyph name="alt_plussign" xMin="84" yMin="457" xMax="1143" yMax="1143">
      <contour>
        <pt x="1143" y="457" on="1"/>
        <pt x="84" y="457" on="1"/>
        <pt x="84" y="715" on="1"/>
        <pt x="475" y="715" on="1"/>
        <pt x="475" y="1143" on="1"/>
        <pt x="748" y="1143" on="1"/>
        <pt x="748" y="715" on="1"/>
        <pt x="1143" y="715" on="1"/>
      </contour>
    </TTGlyph>
    <TTGlyph name="alternativeayin" xMin="53" yMin="-47" xMax="1176" yMax="1241">
      <component glyphName="ayin" x="0" y="0" flags="0x204"/>
    </TTGlyph>
    <TTGlyph name="alternativelamed" xMin="113" yMin="-59" xMax="1116" yMax="1665">
      <component glyphName="lamed" x="0" y="0" flags="0x204"/>
    </TTGlyph>
    <TTGlyph name="amacron" xMin="106" yMin="-20" xMax="1178" yMax="1371">
      <component glyphName="a" x="0" y="0" flags="0x204"/>
      <component glyphName="uni02C9" x="-7" y="0" flags="0x4"/>
    </TTGlyph>
    <TTGlyph name="ampersand" xMin="24" yMin="-19" xMax="1221" yMax="1357">
      <contour>
        <pt x="24" y="369" on="1"/>
        <pt x="24" y="496" on="0"/>
        <pt x="185" y="712" on="0"/>
        <pt x="326" y="779" on="1"/>
        <pt x="255" y="921" on="0"/>
        <pt x="255" y="1046" on="1"/>
        <pt x="255" y="1194" on="0"/>
        <pt x="442" y="1357" on="0"/>
        <pt x="616" y="1357" on="1"/>
        <pt x="769" y="1357" on="0"/>
        <pt x="953" y="1203" on="0"/>
        <pt x="953" y="1073" on="1"/>
        <pt x="953" y="971" on="0"/>
        <pt x="793" y="797" on="0"/>
        <pt x="588" y="702" on="1"/>
        <pt x="683" y="536" on="0"/>
        <pt x="802" y="400" on="1"/>
        <pt x="877" y="549" on="0"/>
        <pt x="910" y="724" on="1"/>
        <pt x="1114" y="697" on="1"/>
        <pt x="1072" y="460" on="0"/>
        <pt x="959" y="262" on="1"/>
        <pt x="1044" y="189" on="0"/>
        <pt x="1128" y="189" on="1"/>
        <pt x="1185" y="189" on="0"/>
        <pt x="1221" y="206" on="1"/>
        <pt x="1221" y="10" on="1"/>
        <pt x="1183" y="-11" on="0"/>
        <pt x="1126" y="-11" on="1"/>
        <pt x="966" y="-11" on="0"/>
        <pt x="826" y="104" on="1"/>
        <pt x="662" y="-19" on="0"/>
        <pt x="467" y="-19" on="1"/>
        <pt x="255" y="-19" on="0"/>
        <pt x="24" y="182" on="0"/>
      </contour>
      <contour>
        <pt x="671" y="239" on="1"/>
        <pt x="512" y="415" on="0"/>
        <pt x="409" y="599" on="1"/>
        <pt x="341" y="559" on="0"/>
        <pt x="267" y="443" on="0"/>
        <pt x="267" y="373" on="1"/>
        <pt x="267" y="275" on="0"/>
        <pt x="377" y="163" on="0"/>
        <pt x="477" y="163" on="1"/>
        <pt x="581" y="163" on="0"/>
      </contour>
      <contour>
        <pt x="739" y="1071" on="1"/>
        <pt x="739" y="1126" on="0"/>
        <pt x="677" y="1195" on="0"/>
        <pt x="614" y="1195" on="1"/>
        <pt x="540" y="1195" on="0"/>
        <pt x="463" y="1112" on="0"/>
        <pt x="463" y="1044" on="1"/>
        <pt x="463" y="956" on="0"/>
        <pt x="515" y="859" on="1"/>
        <pt x="615" y="906" on="0"/>
        <pt x="695" y="964" on="0"/>
        <pt x="739" y="1030" on="0"/>
      </contour>
    </TTGlyph>
    <TTGlyph name="anoteleia" xMin="470" yMin="417" xMax="758" yMax="722">
      <contour>
        <pt x="470" y="417" on="1"/>
        <pt x="470" y="722" on="1"/>
        <pt x="758" y="722" on="1"/>
        <pt x="758" y="417" on="1"/>
      </contour>
    </TTGlyph>
    <TTGlyph name="aogonek" xMin="106" yMin="-425" xMax="1178" yMax="1102">
      <component glyphName="a" x="0" y="0" flags="0x204"/>
      <component glyphName="ogonek" x="363" y="0" flags="0x4"/>
    </TTGlyph>
    <TTGlyph name="approxequal" xMin="95" yMin="274" xMax="1133" yMax="1079">
      <contour>
        <pt x="866" y="756" on="1"/>
        <pt x="791" y="756" on="0"/>
        <pt x="646" y="797" on="0"/>
        <pt x="571" y="823" on="1"/>
        <pt x="439" y="870" on="0"/>
        <pt x="350" y="870" on="1"/>
        <pt x="283" y="870" on="0"/>
        <pt x="165" y="831" on="0"/>
        <pt x="95" y="782" on="1"/>
        <pt x="95" y="995" on="1"/>
        <pt x="205" y="1079" on="0"/>
        <pt x="366" y="1079" on="1"/>
        <pt x="419" y="1079" on="0"/>
        <pt x="543" y="1054" on="0"/>
        <pt x="685" y="1006" on="1"/>
        <pt x="806" y="963" on="0"/>
        <pt x="885" y="963" on="1"/>
        <pt x="1019" y="963" on="0"/>
        <pt x="1133" y="1055" on="1"/>
        <pt x="1133" y="836" on="1"/>
        <pt x="1070" y="791" on="0"/>
        <pt x="950" y="756" on="0"/>
      </contour>
      <contour>
        <pt x="866" y="274" on="1"/>
        <pt x="791" y="274" on="0"/>
        <pt x="646" y="318" on="0"/>
        <pt x="571" y="344" on="1"/>
        <pt x="442" y="389" on="0"/>
        <pt x="350" y="389" on="1"/>
        <pt x="279" y="389" on="0"/>
        <pt x="160" y="346" on="0"/>
        <pt x="95" y="301" on="1"/>
        <pt x="95" y="514" on="1"/>
        <pt x="208" y="598" on="0"/>
        <pt x="366" y="598" on="1"/>
        <pt x="449" y="598" on="0"/>
        <pt x="609" y="552" on="0"/>
        <pt x="685" y="526" on="1"/>
        <pt x="787" y="494" on="0"/>
        <pt x="857" y="481" on="0"/>
        <pt x="885" y="481" on="1"/>
        <pt x="1019" y="481" on="0"/>
        <pt x="1133" y="573" on="1"/>
        <pt x="1133" y="354" on="1"/>
        <pt x="1069" y="310" on="0"/>
        <pt x="952" y="274" on="0"/>
      </contour>
    </TTGlyph>
    <TTGlyph name="aring" xMin="106" yMin="-20" xMax="1178" yMax="1547">
      <component glyphName="a" x="0" y="0" flags="0x204"/>
      <component glyphName="ring" x="-8" y="0" flags="0x4"/>
    </TTGlyph>
    <TTGlyph name="aringacute" xMin="106" yMin="-20" xMax="1178" yMax="1705">
      <component glyphName="a" x="0" y="0" flags="0x204"/>
      <component glyphName="ring" x="-9" y="-147" flags="0x4"/>
      <component glyphName="acute" x="116" y="247" flags="0x4"/>
    </TTGlyph>
    <TTGlyph name="arrowboth" xMin="8" yMin="100" xMax="1220" yMax="580">
      <contour>
        <pt x="231" y="297" on="1"/>
        <pt x="288" y="230" on="0"/>
        <pt x="350" y="100" on="1"/>
        <pt x="278" y="100" on="1"/>
        <pt x="151" y="249" on="0"/>
        <pt x="8" y="322" on="1"/>
        <pt x="8" y="358" on="1"/>
        <pt x="151" y="431" on="0"/>
        <pt x="278" y="580" on="1"/>
        <pt x="350" y="580" on="1"/>
        <pt x="288" y="450" on="0"/>
        <pt x="231" y="383" on="1"/>
        <pt x="997" y="383" on="1"/>
        <pt x="940" y="450" on="0"/>
        <pt x="878" y="580" on="1"/>
        <pt x="950" y="580" on="1"/>
        <pt x="1077" y="431" on="0"/>
        <pt x="1220" y="358" on="1"/>
        <pt x="1220" y="322" on="1"/>
        <pt x="1077" y="249" on="0"/>
        <pt x="950" y="100" on="1"/>
        <pt x="878" y="100" on="1"/>
        <pt x="940" y="230" on="0"/>
        <pt x="997" y="297" on="1"/>
      </contour>
    </TTGlyph>
    <TTGlyph name="arrowdown" xMin="374" yMin="-61" xMax="854" yMax="1151">
      <contour>
        <pt x="657" y="162" on="1"/>
        <pt x="724" y="219" on="0"/>
        <pt x="854" y="281" on="1"/>
        <pt x="854" y="209" on="1"/>
        <pt x="705" y="82" on="0"/>
        <pt x="632" y="-61" on="1"/>
        <pt x="596" y="-61" on="1"/>
        <pt x="523" y="82" on="0"/>
        <pt x="374" y="209" on="1"/>
        <pt x="374" y="281" on="1"/>
        <pt x="504" y="219" on="0"/>
        <pt x="571" y="162" on="1"/>
        <pt x="571" y="1151" on="1"/>
        <pt x="657" y="1151" on="1"/>
      </contour>
    </TTGlyph>
    <TTGlyph name="arrowleft" xMin="8" yMin="100" xMax="1220" yMax="580">
      <contour>
        <pt x="231" y="297" on="1"/>
        <pt x="288" y="230" on="0"/>
        <pt x="350" y="100" on="1"/>
        <pt x="278" y="100" on="1"/>
        <pt x="151" y="249" on="0"/>
        <pt x="8" y="322" on="1"/>
        <pt x="8" y="358" on="1"/>
        <pt x="151" y="431" on="0"/>
        <pt x="278" y="580" on="1"/>
        <pt x="350" y="580" on="1"/>
        <pt x="288" y="450" on="0"/>
        <pt x="231" y="383" on="1"/>
        <pt x="1220" y="383" on="1"/>
        <pt x="1220" y="297" on="1"/>
      </contour>
    </TTGlyph>
    <TTGlyph name="arrowright" xMin="8" yMin="100" xMax="1220" yMax="580">
      <contour>
        <pt x="997" y="383" on="1"/>
        <pt x="940" y="450" on="0"/>
        <pt x="878" y="580" on="1"/>
        <pt x="950" y="580" on="1"/>
        <pt x="1077" y="431" on="0"/>
        <pt x="1220" y="358" on="1"/>
        <pt x="1220" y="322" on="1"/>
        <pt x="1077" y="249" on="0"/>
        <pt x="950" y="100" on="1"/>
        <pt x="878" y="100" on="1"/>
        <pt x="940" y="230" on="0"/>
        <pt x="997" y="297" on="1"/>
        <pt x="8" y="297" on="1"/>
        <pt x="8" y="383" on="1"/>
      </contour>
    </TTGlyph>
    <TTGlyph name="arrowup" xMin="374" yMin="-61" xMax="854" yMax="1151">
      <contour>
        <pt x="571" y="928" on="1"/>
        <pt x="504" y="871" on="0"/>
        <pt x="374" y="809" on="1"/>
        <pt x="374" y="881" on="1"/>
        <pt x="523" y="1008" on="0"/>
        <pt x="596" y="1151" on="1"/>
        <pt x="632" y="1151" on="1"/>
        <pt x="705" y="1008" on="0"/>
        <pt x="854" y="881" on="1"/>
        <pt x="854" y="809" on="1"/>
        <pt x="724" y="871" on="0"/>
        <pt x="657" y="928" on="1"/>
        <pt x="657" y="-61" on="1"/>
        <pt x="571" y="-61" on="1"/>
      </contour>
    </TTGlyph>
    <TTGlyph name="arrowupdn" xMin="374" yMin="-61" xMax="854" yMax="1151">
      <contour>
        <pt x="571" y="928" on="1"/>
        <pt x="504" y="871" on="0"/>
        <pt x="374" y="809" on="1"/>
        <pt x="374" y="881" on="1"/>
        <pt x="523" y="1008" on="0"/>
        <pt x="596" y="1151" on="1"/>
        <pt x="632" y="1151" on="1"/>
        <pt x="705" y="1008" on="0"/>
        <pt x="854" y="881" on="1"/>
        <pt x="854" y="809" on="1"/>
        <pt x="724" y="871" on="0"/>
        <pt x="657" y="928" on="1"/>
        <pt x="657" y="162" on="1"/>
        <pt x="724" y="219" on="0"/>
        <pt x="854" y="281" on="1"/>
        <pt x="854" y="209" on="1"/>
        <pt x="705" y="82" on="0"/>
        <pt x="632" y="-61" on="1"/>
        <pt x="596" y="-61" on="1"/>
        <pt x="523" y="82" on="0"/>
        <pt x="374" y="209" on="1"/>
        <pt x="374" y="281" on="1"/>
        <pt x="504" y="219" on="0"/>
        <pt x="571" y="162" on="1"/>
      </contour>
    </TTGlyph>
    <TTGlyph name="arrowupdnbse" xMin="374" yMin="-184" xMax="854" yMax="1151">
      <contour>
        <pt x="374" y="-104" on="1"/>
        <pt x="854" y="-104" on="1"/>
        <pt x="854" y="-184" on="1"/>
        <pt x="374" y="-184" on="1"/>
      </contour>
      <contour>
        <pt x="571" y="928" on="1"/>
        <pt x="504" y="871" on="0"/>
        <pt x="374" y="809" on="1"/>
        <pt x="374" y="881" on="1"/>
        <pt x="523" y="1008" on="0"/>
        <pt x="596" y="1151" on="1"/>
        <pt x="632" y="1151" on="1"/>
        <pt x="705" y="1008" on="0"/>
        <pt x="854" y="881" on="1"/>
        <pt x="854" y="809" on="1"/>
        <pt x="724" y="871" on="0"/>
        <pt x="657" y="928" on="1"/>
        <pt x="657" y="162" on="1"/>
        <pt x="724" y="219" on="0"/>
        <pt x="854" y="281" on="1"/>
        <pt x="854" y="209" on="1"/>
        <pt x="705" y="82" on="0"/>
        <pt x="632" y="-61" on="1"/>
        <pt x="596" y="-61" on="1"/>
        <pt x="523" y="82" on="0"/>
        <pt x="374" y="209" on="1"/>
        <pt x="374" y="281" on="1"/>
        <pt x="504" y="219" on="0"/>
        <pt x="571" y="162" on="1"/>
      </contour>
    </TTGlyph>
    <TTGlyph name="asciicircum" xMin="45" yMin="514" xMax="1151" yMax="1409">
      <contour>
        <pt x="922" y="514" on="1"/>
        <pt x="596" y="1266" on="1"/>
        <pt x="272" y="514" on="1"/>
        <pt x="45" y="514" on="1"/>
        <pt x="436" y="1409" on="1"/>
        <pt x="758" y="1409" on="1"/>
        <pt x="1151" y="514" on="1"/>
      </contour>
    </TTGlyph>
    <TTGlyph name="asciitilde" xMin="95" yMin="516" xMax="1133" yMax="840">
      <contour>
        <pt x="866" y="516" on="1"/>
        <pt x="791" y="516" on="0"/>
        <pt x="646" y="558" on="0"/>
        <pt x="571" y="584" on="1"/>
        <pt x="436" y="631" on="0"/>
        <pt x="350" y="631" on="1"/>
        <pt x="279" y="631" on="0"/>
        <pt x="160" y="588" on="0"/>
        <pt x="95" y="543" on="1"/>
        <pt x="95" y="756" on="1"/>
        <pt x="208" y="840" on="0"/>
        <pt x="366" y="840" on="1"/>
        <pt x="471" y="840" on="0"/>
        <pt x="608" y="793" on="1"/>
        <pt x="740" y="747" on="0"/>
        <pt x="840" y="723" on="0"/>
        <pt x="885" y="723" on="1"/>
        <pt x="1019" y="723" on="0"/>
        <pt x="1133" y="815" on="1"/>
        <pt x="1133" y="596" on="1"/>
        <pt x="1069" y="552" on="0"/>
        <pt x="952" y="516" on="0"/>
      </contour>
    </TTGlyph>
    <TTGlyph name="asterisk" xMin="220" yMin="721" xMax="1009" yMax="1483">
      <contour>
        <pt x="706" y="1209" on="1"/>
        <pt x="941" y="1313" on="1"/>
        <pt x="1009" y="1116" on="1"/>
        <pt x="759" y="1055" on="1"/>
        <pt x="945" y="842" on="1"/>
        <pt x="761" y="721" on="1"/>
        <pt x="615" y="973" on="1"/>
        <pt x="466" y="721" on="1"/>
        <pt x="280" y="844" on="1"/>
        <pt x="470" y="1055" on="1"/>
        <pt x="220" y="1116" on="1"/>
        <pt x="288" y="1313" on="1"/>
        <pt x="527" y="1209" on="1"/>
        <pt x="509" y="1483" on="1"/>
        <pt x="724" y="1483" on="1"/>
      </contour>
    </TTGlyph>
    <TTGlyph name="at" xMin="44" yMin="-283" xMax="1189" yMax="1484">
      <contour>
        <pt x="1189" y="755" on="1"/>
        <pt x="1189" y="457" on="0"/>
        <pt x="1024" y="104" on="0"/>
        <pt x="884" y="104" on="1"/>
        <pt x="741" y="104" on="0"/>
        <pt x="741" y="261" on="1"/>
        <pt x="741" y="270" on="1"/>
        <pt x="743" y="309" on="1"/>
        <pt x="737" y="309" on="1"/>
        <pt x="701" y="215" on="0"/>
        <pt x="575" y="104" on="0"/>
        <pt x="502" y="104" on="1"/>
        <pt x="396" y="104" on="0"/>
        <pt x="277" y="304" on="0"/>
        <pt x="277" y="489" on="1"/>
        <pt x="277" y="650" on="0"/>
        <pt x="374" y="936" on="0"/>
        <pt x="541" y="1101" on="0"/>
        <pt x="644" y="1101" on="1"/>
        <pt x="710" y="1101" on="0"/>
        <pt x="794" y="1014" on="0"/>
        <pt x="808" y="928" on="1"/>
        <pt x="813" y="928" on="1"/>
        <pt x="846" y="1079" on="1"/>
        <pt x="981" y="1079" on="1"/>
        <pt x="882" y="572" on="1"/>
        <pt x="842" y="362" on="0"/>
        <pt x="842" y="294" on="1"/>
        <pt x="842" y="260" on="0"/>
        <pt x="862" y="226" on="0"/>
        <pt x="891" y="226" on="1"/>
        <pt x="965" y="226" on="0"/>
        <pt x="1058" y="513" on="0"/>
        <pt x="1058" y="753" on="1"/>
        <pt x="1058" y="1024" on="0"/>
        <pt x="846" y="1358" on="0"/>
        <pt x="670" y="1358" on="1"/>
        <pt x="521" y="1358" on="0"/>
        <pt x="299" y="1141" on="0"/>
        <pt x="180" y="753" on="0"/>
        <pt x="180" y="514" on="1"/>
        <pt x="180" y="206" on="0"/>
        <pt x="409" y="-155" on="0"/>
        <pt x="604" y="-155" on="1"/>
        <pt x="698" y="-155" on="0"/>
        <pt x="872" y="-85" on="0"/>
        <pt x="973" y="3" on="1"/>
        <pt x="1044" y="-94" on="1"/>
        <pt x="929" y="-193" on="0"/>
        <pt x="713" y="-283" on="0"/>
        <pt x="594" y="-283" on="1"/>
        <pt x="429" y="-283" on="0"/>
        <pt x="178" y="-89" on="0"/>
        <pt x="44" y="276" on="0"/>
        <pt x="44" y="514" on="1"/>
        <pt x="44" y="800" on="0"/>
        <pt x="198" y="1243" on="0"/>
        <pt x="484" y="1484" on="0"/>
        <pt x="672" y="1484" on="1"/>
        <pt x="830" y="1484" on="0"/>
        <pt x="1063" y="1303" on="0"/>
        <pt x="1189" y="972" on="0"/>
      </contour>
      <contour>
        <pt x="755" y="784" on="1"/>
        <pt x="755" y="979" on="0"/>
        <pt x="646" y="979" on="1"/>
        <pt x="586" y="979" on="0"/>
        <pt x="488" y="842" on="0"/>
        <pt x="432" y="612" on="0"/>
        <pt x="432" y="491" on="1"/>
        <pt x="432" y="230" on="0"/>
        <pt x="526" y="230" on="1"/>
        <pt x="596" y="230" on="0"/>
        <pt x="699" y="402" on="0"/>
        <pt x="755" y="716" on="0"/>
      </contour>
    </TTGlyph>
    <TTGlyph name="atilde" xMin="106" yMin="-20" xMax="1178" yMax="1466">
      <component glyphName="a" x="0" y="0" flags="0x204"/>
      <component glyphName="tilde" x="-8" y="0" flags="0x4"/>
    </TTGlyph>
    <TTGlyph name="ayin" xMin="53" yMin="-47" xMax="1176" yMax="1241">
      <contour>
        <pt x="53" y="219" on="1"/>
        <pt x="310" y="223" on="0"/>
        <pt x="455" y="270" on="1"/>
        <pt x="100" y="1241" on="1"/>
        <pt x="393" y="1241" on="1"/>
        <pt x="688" y="391" on="1"/>
        <pt x="803" y="484" on="0"/>
        <pt x="897" y="879" on="0"/>
        <pt x="897" y="1241" on="1"/>
        <pt x="1176" y="1241" on="1"/>
        <pt x="1176" y="765" on="0"/>
        <pt x="964" y="227" on="0"/>
        <pt x="487" y="-29" on="0"/>
        <pt x="53" y="-47" on="1"/>
      </contour>
    </TTGlyph>
    <TTGlyph name="b" xMin="140" yMin="-20" xMax="1132" yMax="1484">
      <contour>
        <pt x="140" y="0" on="1"/>
        <pt x="148" y="136" on="0"/>
        <pt x="148" y="236" on="1"/>
        <pt x="148" y="1484" on="1"/>
        <pt x="429" y="1484" on="1"/>
        <pt x="429" y="1090" on="1"/>
        <pt x="427" y="912" on="1"/>
        <pt x="429" y="912" on="1"/>
        <pt x="470" y="1003" on="0"/>
        <pt x="635" y="1103" on="0"/>
        <pt x="746" y="1103" on="1"/>
        <pt x="932" y="1103" on="0"/>
        <pt x="1132" y="809" on="0"/>
        <pt x="1132" y="540" on="1"/>
        <pt x="1132" y="286" on="0"/>
        <pt x="920" y="-20" on="0"/>
        <pt x="737" y="-20" on="1"/>
        <pt x="633" y="-20" on="0"/>
        <pt x="476" y="79" on="0"/>
        <pt x="431" y="176" on="1"/>
        <pt x="427" y="176" on="1"/>
        <pt x="427" y="143" on="0"/>
        <pt x="418" y="26" on="0"/>
        <pt x="412" y="0" on="1"/>
      </contour>
      <contour>
        <pt x="425" y="547" on="1"/>
        <pt x="425" y="427" on="0"/>
        <pt x="478" y="261" on="0"/>
        <pt x="575" y="172" on="0"/>
        <pt x="638" y="172" on="1"/>
        <pt x="734" y="172" on="0"/>
        <pt x="839" y="356" on="0"/>
        <pt x="839" y="540" on="1"/>
        <pt x="839" y="723" on="0"/>
        <pt x="736" y="912" on="0"/>
        <pt x="636" y="912" on="1"/>
        <pt x="538" y="912" on="0"/>
        <pt x="425" y="720" on="0"/>
      </contour>
    </TTGlyph>
    <TTGlyph name="backslash" xMin="91" yMin="-20" xMax="1140" yMax="1484">
      <contour>
        <pt x="908" y="-20" on="1"/>
        <pt x="91" y="1484" on="1"/>
        <pt x="319" y="1484" on="1"/>
        <pt x="1140" y="-20" on="1"/>
      </contour>
    </TTGlyph>
    <TTGlyph name="bar" xMin="483" yMin="-455" xMax="745" yMax="1484">
      <contour>
        <pt x="483" y="-455" on="1"/>
        <pt x="483" y="1484" on="1"/>
        <pt x="745" y="1484" on="1"/>
        <pt x="745" y="-455" on="1"/>
      </contour>
    </TTGlyph>
    <TTGlyph name="bari.dotless" xMin="118" yMin="0" xMax="1147" yMax="1082">
      <contour>
        <pt x="794" y="658" on="1"/>
        <pt x="1017" y="658" on="1"/>
        <pt x="1017" y="455" on="1"/>
        <pt x="794" y="455" on="1"/>
        <pt x="794" y="190" on="1"/>
        <pt x="1147" y="190" on="1"/>
        <pt x="1147" y="0" on="1"/>
        <pt x="118" y="0" on="1"/>
        <pt x="118" y="190" on="1"/>
        <pt x="513" y="190" on="1"/>
        <pt x="513" y="455" on="1"/>
        <pt x="292" y="455" on="1"/>
        <pt x="292" y="658" on="1"/>
        <pt x="513" y="658" on="1"/>
        <pt x="513" y="892" on="1"/>
        <pt x="223" y="892" on="1"/>
        <pt x="223" y="1082" on="1"/>
        <pt x="794" y="1082" on="1"/>
      </contour>
    </TTGlyph>
    <TTGlyph name="bet" xMin="76" yMin="0" xMax="1151" yMax="1241">
      <contour>
        <pt x="123" y="999" on="1"/>
        <pt x="123" y="1241" on="1"/>
        <pt x="463" y="1241" on="1"/>
        <pt x="755" y="1241" on="0"/>
        <pt x="1018" y="997" on="0"/>
        <pt x="1018" y="719" on="1"/>
        <pt x="1018" y="242" on="1"/>
        <pt x="1151" y="242" on="1"/>
        <pt x="1151" y="0" on="1"/>
        <pt x="76" y="0" on="1"/>
        <pt x="76" y="242" on="1"/>
        <pt x="748" y="242" on="1"/>
        <pt x="748" y="684" on="1"/>
        <pt x="748" y="859" on="0"/>
        <pt x="617" y="999" on="0"/>
        <pt x="459" y="999" on="1"/>
      </contour>
    </TTGlyph>
    <TTGlyph name="beta" xMin="142" yMin="-425" xMax="1171" yMax="1484">
      <contour>
        <pt x="1171" y="405" on="1"/>
        <pt x="1171" y="202" on="0"/>
        <pt x="941" y="-20" on="0"/>
        <pt x="728" y="-20" on="1"/>
        <pt x="558" y="-20" on="0"/>
        <pt x="425" y="74" on="1"/>
        <pt x="416" y="74" on="1"/>
        <pt x="424" y="-17" on="0"/>
        <pt x="424" y="-128" on="1"/>
        <pt x="424" y="-425" on="1"/>
        <pt x="142" y="-425" on="1"/>
        <pt x="142" y="1027" on="1"/>
        <pt x="142" y="1264" on="0"/>
        <pt x="391" y="1484" on="0"/>
        <pt x="638" y="1484" on="1"/>
        <pt x="849" y="1484" on="0"/>
        <pt x="1072" y="1305" on="0"/>
        <pt x="1072" y="1135" on="1"/>
        <pt x="1072" y="886" on="0"/>
        <pt x="859" y="795" on="1"/>
        <pt x="951" y="776" on="0"/>
        <pt x="1093" y="671" on="0"/>
        <pt x="1171" y="511" on="0"/>
      </contour>
      <contour>
        <pt x="897" y="419" on="1"/>
        <pt x="897" y="544" on="0"/>
        <pt x="730" y="676" on="0"/>
        <pt x="576" y="676" on="1"/>
        <pt x="576" y="874" on="1"/>
        <pt x="696" y="896" on="0"/>
        <pt x="806" y="1009" on="0"/>
        <pt x="806" y="1109" on="1"/>
        <pt x="806" y="1192" on="0"/>
        <pt x="720" y="1281" on="0"/>
        <pt x="637" y="1281" on="1"/>
        <pt x="524" y="1281" on="0"/>
        <pt x="424" y="1143" on="0"/>
        <pt x="424" y="991" on="1"/>
        <pt x="424" y="255" on="1"/>
        <pt x="471" y="219" on="0"/>
        <pt x="607" y="172" on="0"/>
        <pt x="672" y="172" on="1"/>
        <pt x="783" y="172" on="0"/>
        <pt x="897" y="301" on="0"/>
      </contour>
    </TTGlyph>
    <TTGlyph name="betdagesh" xMin="76" yMin="0" xMax="1151" yMax="1241">
      <component glyphName="bet" x="0" y="0" flags="0x204"/>
      <component glyphName="dagesh" x="-194" y="-81" flags="0x4"/>
    </TTGlyph>
    <TTGlyph name="betrafe" xMin="76" yMin="0" xMax="1151" yMax="1457">
      <component glyphName="bet" x="0" y="0" flags="0x204"/>
      <component glyphName="rafe" x="-60" y="0" flags="0x4"/>
    </TTGlyph>
    <TTGlyph name="block" xMin="0" yMin="-615" xMax="1229" yMax="1705">
      <contour>
        <pt x="1229" y="-615" on="1"/>
        <pt x="0" y="-615" on="1"/>
        <pt x="0" y="1705" on="1"/>
        <pt x="1229" y="1705" on="1"/>
      </contour>
    </TTGlyph>
    <TTGlyph name="braceleft" xMin="194" yMin="-425" xMax="1045" yMax="1484">
      <contour>
        <pt x="718" y="-425" on="1"/>
        <pt x="584" y="-425" on="0"/>
        <pt x="423" y="-268" on="0"/>
        <pt x="423" y="-126" on="1"/>
        <pt x="423" y="202" on="1"/>
        <pt x="423" y="316" on="0"/>
        <pt x="313" y="429" on="0"/>
        <pt x="194" y="431" on="1"/>
        <pt x="194" y="626" on="1"/>
        <pt x="315" y="631" on="0"/>
        <pt x="423" y="744" on="0"/>
        <pt x="423" y="857" on="1"/>
        <pt x="423" y="1185" on="1"/>
        <pt x="423" y="1331" on="0"/>
        <pt x="580" y="1484" on="0"/>
        <pt x="718" y="1484" on="1"/>
        <pt x="1045" y="1484" on="1"/>
        <pt x="1045" y="1294" on="1"/>
        <pt x="857" y="1294" on="1"/>
        <pt x="766" y="1294" on="0"/>
        <pt x="685" y="1190" on="0"/>
        <pt x="685" y="1085" on="1"/>
        <pt x="685" y="784" on="1"/>
        <pt x="685" y="689" on="0"/>
        <pt x="570" y="551" on="0"/>
        <pt x="478" y="532" on="1"/>
        <pt x="478" y="528" on="1"/>
        <pt x="573" y="506" on="0"/>
        <pt x="685" y="369" on="0"/>
        <pt x="685" y="276" on="1"/>
        <pt x="685" y="-25" on="1"/>
        <pt x="685" y="-131" on="0"/>
        <pt x="766" y="-234" on="0"/>
        <pt x="857" y="-234" on="1"/>
        <pt x="1045" y="-234" on="1"/>
        <pt x="1045" y="-425" on="1"/>
      </contour>
    </TTGlyph>
    <TTGlyph name="braceright" xMin="184" yMin="-425" xMax="1035" yMax="1484">
      <contour>
        <pt x="184" y="-425" on="1"/>
        <pt x="184" y="-234" on="1"/>
        <pt x="372" y="-234" on="1"/>
        <pt x="463" y="-234" on="0"/>
        <pt x="544" y="-131" on="0"/>
        <pt x="544" y="-25" on="1"/>
        <pt x="544" y="276" on="1"/>
        <pt x="544" y="369" on="0"/>
        <pt x="656" y="506" on="0"/>
        <pt x="751" y="528" on="1"/>
        <pt x="751" y="532" on="1"/>
        <pt x="658" y="552" on="0"/>
        <pt x="544" y="690" on="0"/>
        <pt x="544" y="784" on="1"/>
        <pt x="544" y="1085" on="1"/>
        <pt x="544" y="1190" on="0"/>
        <pt x="463" y="1294" on="0"/>
        <pt x="372" y="1294" on="1"/>
        <pt x="184" y="1294" on="1"/>
        <pt x="184" y="1484" on="1"/>
        <pt x="511" y="1484" on="1"/>
        <pt x="649" y="1484" on="0"/>
        <pt x="806" y="1331" on="0"/>
        <pt x="806" y="1185" on="1"/>
        <pt x="806" y="857" on="1"/>
        <pt x="806" y="744" on="0"/>
        <pt x="914" y="631" on="0"/>
        <pt x="1035" y="626" on="1"/>
        <pt x="1035" y="431" on="1"/>
        <pt x="916" y="429" on="0"/>
        <pt x="806" y="316" on="0"/>
        <pt x="806" y="202" on="1"/>
        <pt x="806" y="-126" on="1"/>
        <pt x="806" y="-267" on="0"/>
        <pt x="646" y="-425" on="0"/>
        <pt x="511" y="-425" on="1"/>
      </contour>
    </TTGlyph>
    <TTGlyph name="bracketleft" xMin="373" yMin="-425" xMax="975" yMax="1484">
      <contour>
        <pt x="373" y="-425" on="1"/>
        <pt x="373" y="1484" on="1"/>
        <pt x="975" y="1484" on="1"/>
        <pt x="975" y="1294" on="1"/>
        <pt x="639" y="1294" on="1"/>
        <pt x="639" y="-234" on="1"/>
        <pt x="975" y="-234" on="1"/>
        <pt x="975" y="-425" on="1"/>
      </contour>
    </TTGlyph>
    <TTGlyph name="bracketright" xMin="254" yMin="-425" xMax="856" yMax="1484">
      <contour>
        <pt x="254" y="-425" on="1"/>
        <pt x="254" y="-234" on="1"/>
        <pt x="590" y="-234" on="1"/>
        <pt x="590" y="1294" on="1"/>
        <pt x="254" y="1294" on="1"/>
        <pt x="254" y="1484" on="1"/>
        <pt x="856" y="1484" on="1"/>
        <pt x="856" y="-425" on="1"/>
      </contour>
    </TTGlyph>
    <TTGlyph name="breve" xMin="260" yMin="1183" xMax="968" yMax="1461">
      <contour>
        <pt x="612" y="1183" on="1"/>
        <pt x="451" y="1183" on="0"/>
        <pt x="271" y="1328" on="0"/>
        <pt x="260" y="1461" on="1"/>
        <pt x="423" y="1461" on="1"/>
        <pt x="438" y="1340" on="0"/>
        <pt x="614" y="1340" on="1"/>
        <pt x="702" y="1340" on="0"/>
        <pt x="790" y="1398" on="0"/>
        <pt x="804" y="1461" on="1"/>
        <pt x="968" y="1461" on="1"/>
        <pt x="934" y="1183" on="0"/>
      </contour>
    </TTGlyph>
    <TTGlyph name="breve.cyr" xMin="207" yMin="1184" xMax="1021" yMax="1524">
      <contour>
        <pt x="614" y="1184" on="1"/>
        <pt x="478" y="1184" on="0"/>
        <pt x="303" y="1260" on="0"/>
        <pt x="213" y="1401" on="0"/>
        <pt x="207" y="1524" on="1"/>
        <pt x="431" y="1524" on="1"/>
        <pt x="441" y="1325" on="0"/>
        <pt x="614" y="1325" on="1"/>
        <pt x="787" y="1325" on="0"/>
        <pt x="797" y="1524" on="1"/>
        <pt x="1021" y="1524" on="1"/>
        <pt x="1015" y="1402" on="0"/>
        <pt x="926" y="1260" on="0"/>
        <pt x="749" y="1184" on="0"/>
      </contour>
    </TTGlyph>
    <TTGlyph name="breve.uc" xMin="-13" yMin="1429" xMax="695" yMax="1707">
      <contour>
        <pt x="339" y="1429" on="1"/>
        <pt x="178" y="1429" on="0"/>
        <pt x="-2" y="1574" on="0"/>
        <pt x="-13" y="1707" on="1"/>
        <pt x="150" y="1707" on="1"/>
        <pt x="165" y="1586" on="0"/>
        <pt x="341" y="1586" on="1"/>
        <pt x="429" y="1586" on="0"/>
        <pt x="517" y="1644" on="0"/>
        <pt x="531" y="1707" on="1"/>
        <pt x="695" y="1707" on="1"/>
        <pt x="661" y="1429" on="0"/>
      </contour>
    </TTGlyph>
    <TTGlyph name="breveacute" xMin="-313" yMin="1429" xMax="313" yMax="1802">
      <contour>
        <pt x="35" y="1802" on="1"/>
        <pt x="261" y="1802" on="1"/>
        <pt x="261" y="1790" on="1"/>
        <pt x="40" y="1644" on="1"/>
        <pt x="-90" y="1644" on="1"/>
        <pt x="-90" y="1654" on="1"/>
      </contour>
      <contour>
        <pt x="-1" y="1429" on="1"/>
        <pt x="-130" y="1429" on="0"/>
        <pt x="-295" y="1562" on="0"/>
        <pt x="-313" y="1678" on="1"/>
        <pt x="-206" y="1678" on="1"/>
        <pt x="-189" y="1610" on="0"/>
        <pt x="-83" y="1555" on="0"/>
        <pt x="1" y="1555" on="1"/>
        <pt x="85" y="1555" on="0"/>
        <pt x="189" y="1611" on="0"/>
        <pt x="206" y="1678" on="1"/>
        <pt x="313" y="1678" on="1"/>
        <pt x="291" y="1558" on="0"/>
        <pt x="128" y="1429" on="0"/>
      </contour>
    </TTGlyph>
    <TTGlyph name="breveacute.lc" xMin="-354" yMin="1183" xMax="381" yMax="1786">
      <contour>
        <pt x="-2" y="1183" on="1"/>
        <pt x="-163" y="1183" on="0"/>
        <pt x="-343" y="1328" on="0"/>
        <pt x="-354" y="1461" on="1"/>
        <pt x="-191" y="1461" on="1"/>
        <pt x="-176" y="1340" on="0"/>
        <pt x="0" y="1340" on="1"/>
        <pt x="88" y="1340" on="0"/>
        <pt x="176" y="1398" on="0"/>
        <pt x="190" y="1461" on="1"/>
        <pt x="354" y="1461" on="1"/>
        <pt x="320" y="1183" on="0"/>
      </contour>
      <contour>
        <pt x="-129" y="1512" on="1"/>
        <pt x="-129" y="1543" on="1"/>
        <pt x="123" y="1786" on="1"/>
        <pt x="381" y="1786" on="1"/>
        <pt x="381" y="1743" on="1"/>
        <pt x="41" y="1512" on="1"/>
      </contour>
    </TTGlyph>
    <TTGlyph name="brevegrave" xMin="-313" yMin="1429" xMax="313" yMax="1802">
      <contour>
        <pt x="92" y="1654" on="1"/>
        <pt x="92" y="1644" on="1"/>
        <pt x="-38" y="1644" on="1"/>
        <pt x="-259" y="1790" on="1"/>
        <pt x="-259" y="1802" on="1"/>
        <pt x="-33" y="1802" on="1"/>
      </contour>
      <contour>
        <pt x="-1" y="1429" on="1"/>
        <pt x="-130" y="1429" on="0"/>
        <pt x="-295" y="1562" on="0"/>
        <pt x="-313" y="1678" on="1"/>
        <pt x="-206" y="1678" on="1"/>
        <pt x="-189" y="1610" on="0"/>
        <pt x="-83" y="1555" on="0"/>
        <pt x="1" y="1555" on="1"/>
        <pt x="85" y="1555" on="0"/>
        <pt x="189" y="1611" on="0"/>
        <pt x="206" y="1678" on="1"/>
        <pt x="313" y="1678" on="1"/>
        <pt x="291" y="1558" on="0"/>
        <pt x="128" y="1429" on="0"/>
      </contour>
    </TTGlyph>
    <TTGlyph name="brevegrave.lc" xMin="-384" yMin="1183" xMax="351" yMax="1786">
      <contour>
        <pt x="-1" y="1183" on="1"/>
        <pt x="-323" y="1183" on="0"/>
        <pt x="-357" y="1461" on="1"/>
        <pt x="-193" y="1461" on="1"/>
        <pt x="-179" y="1398" on="0"/>
        <pt x="-91" y="1340" on="0"/>
        <pt x="-3" y="1340" on="1"/>
        <pt x="173" y="1340" on="0"/>
        <pt x="188" y="1461" on="1"/>
        <pt x="351" y="1461" on="1"/>
        <pt x="340" y="1328" on="0"/>
        <pt x="160" y="1183" on="0"/>
      </contour>
      <contour>
        <pt x="-44" y="1512" on="1"/>
        <pt x="-384" y="1743" on="1"/>
        <pt x="-384" y="1786" on="1"/>
        <pt x="-126" y="1786" on="1"/>
        <pt x="126" y="1543" on="1"/>
        <pt x="126" y="1512" on="1"/>
      </contour>
    </TTGlyph>
    <TTGlyph name="brevehook" xMin="-313" yMin="1429" xMax="313" yMax="1802">
      <contour>
        <pt x="-1" y="1429" on="1"/>
        <pt x="-130" y="1429" on="0"/>
        <pt x="-295" y="1562" on="0"/>
        <pt x="-313" y="1678" on="1"/>
        <pt x="-206" y="1678" on="1"/>
        <pt x="-189" y="1610" on="0"/>
        <pt x="-83" y="1555" on="0"/>
        <pt x="1" y="1555" on="1"/>
        <pt x="85" y="1555" on="0"/>
        <pt x="189" y="1611" on="0"/>
        <pt x="206" y="1678" on="1"/>
        <pt x="313" y="1678" on="1"/>
        <pt x="291" y="1558" on="0"/>
        <pt x="128" y="1429" on="0"/>
      </contour>
      <contour>
        <pt x="29" y="1699" on="1"/>
        <pt x="29" y="1734" on="0"/>
        <pt x="-30" y="1734" on="1"/>
        <pt x="-81" y="1734" on="0"/>
        <pt x="-121" y="1718" on="1"/>
        <pt x="-141" y="1782" on="1"/>
        <pt x="-83" y="1802" on="0"/>
        <pt x="-16" y="1802" on="1"/>
        <pt x="136" y="1802" on="0"/>
        <pt x="136" y="1706" on="1"/>
        <pt x="136" y="1658" on="0"/>
        <pt x="62" y="1606" on="0"/>
        <pt x="-11" y="1606" on="1"/>
        <pt x="-46" y="1606" on="1"/>
        <pt x="-46" y="1661" on="1"/>
        <pt x="29" y="1661" on="0"/>
      </contour>
    </TTGlyph>
    <TTGlyph name="brevehook.lc" xMin="-354" yMin="1183" xMax="354" yMax="1794">
      <contour>
        <pt x="71" y="1627" on="1"/>
        <pt x="71" y="1689" on="0"/>
        <pt x="-76" y="1689" on="1"/>
        <pt x="-128" y="1689" on="0"/>
        <pt x="-184" y="1681" on="1"/>
        <pt x="-195" y="1783" on="1"/>
        <pt x="-140" y="1794" on="0"/>
        <pt x="-28" y="1794" on="1"/>
        <pt x="113" y="1794" on="0"/>
        <pt x="261" y="1715" on="0"/>
        <pt x="261" y="1642" on="1"/>
        <pt x="261" y="1589" on="0"/>
        <pt x="173" y="1517" on="0"/>
        <pt x="79" y="1510" on="1"/>
        <pt x="79" y="1480" on="1"/>
        <pt x="-71" y="1480" on="1"/>
        <pt x="-71" y="1570" on="1"/>
        <pt x="71" y="1570" on="0"/>
      </contour>
      <contour>
        <pt x="-2" y="1183" on="1"/>
        <pt x="-163" y="1183" on="0"/>
        <pt x="-343" y="1328" on="0"/>
        <pt x="-354" y="1461" on="1"/>
        <pt x="-191" y="1461" on="1"/>
        <pt x="-176" y="1340" on="0"/>
        <pt x="0" y="1340" on="1"/>
        <pt x="88" y="1340" on="0"/>
        <pt x="176" y="1398" on="0"/>
        <pt x="190" y="1461" on="1"/>
        <pt x="354" y="1461" on="1"/>
        <pt x="320" y="1183" on="0"/>
      </contour>
    </TTGlyph>
    <TTGlyph name="brevetilde" xMin="-318" yMin="1429" xMax="319" yMax="1802">
      <contour>
        <pt x="1" y="1429" on="1"/>
        <pt x="-101" y="1429" on="0"/>
        <pt x="-234" y="1535" on="0"/>
        <pt x="-248" y="1628" on="1"/>
        <pt x="-163" y="1628" on="1"/>
        <pt x="-134" y="1545" on="0"/>
        <pt x="3" y="1545" on="1"/>
        <pt x="138" y="1545" on="0"/>
        <pt x="167" y="1628" on="1"/>
        <pt x="252" y="1628" on="1"/>
        <pt x="231" y="1528" on="0"/>
        <pt x="102" y="1429" on="0"/>
      </contour>
      <contour>
        <pt x="127" y="1648" on="1"/>
        <pt x="92" y="1648" on="0"/>
        <pt x="24" y="1667" on="0"/>
        <pt x="-41" y="1689" on="0"/>
        <pt x="-102" y="1708" on="0"/>
        <pt x="-129" y="1708" on="1"/>
        <pt x="-210" y="1708" on="0"/>
        <pt x="-227" y="1648" on="1"/>
        <pt x="-318" y="1648" on="1"/>
        <pt x="-306" y="1713" on="0"/>
        <pt x="-264" y="1770" on="0"/>
        <pt x="-189" y="1802" on="0"/>
        <pt x="-125" y="1802" on="1"/>
        <pt x="-89" y="1802" on="0"/>
        <pt x="-19" y="1783" on="0"/>
        <pt x="45" y="1761" on="0"/>
        <pt x="104" y="1742" on="0"/>
        <pt x="130" y="1742" on="1"/>
        <pt x="178" y="1742" on="0"/>
        <pt x="221" y="1773" on="0"/>
        <pt x="227" y="1802" on="1"/>
        <pt x="319" y="1802" on="1"/>
        <pt x="308" y="1738" on="0"/>
        <pt x="266" y="1679" on="0"/>
        <pt x="190" y="1648" on="0"/>
      </contour>
    </TTGlyph>
    <TTGlyph name="brevetilde.lc" xMin="-354" yMin="1183" xMax="359" yMax="1785">
      <contour>
        <pt x="157" y="1521" on="1"/>
        <pt x="117" y="1521" on="0"/>
        <pt x="37" y="1556" on="0"/>
        <pt x="-39" y="1597" on="0"/>
        <pt x="-107" y="1632" on="0"/>
        <pt x="-134" y="1632" on="1"/>
        <pt x="-171" y="1632" on="0"/>
        <pt x="-212" y="1585" on="0"/>
        <pt x="-222" y="1521" on="1"/>
        <pt x="-346" y="1521" on="1"/>
        <pt x="-338" y="1623" on="0"/>
        <pt x="-295" y="1726" on="0"/>
        <pt x="-211" y="1785" on="0"/>
        <pt x="-143" y="1785" on="1"/>
        <pt x="-102" y="1785" on="0"/>
        <pt x="-20" y="1751" on="0"/>
        <pt x="55" y="1709" on="0"/>
        <pt x="122" y="1675" on="0"/>
        <pt x="148" y="1675" on="1"/>
        <pt x="192" y="1675" on="0"/>
        <pt x="228" y="1733" on="0"/>
        <pt x="237" y="1785" on="1"/>
        <pt x="359" y="1785" on="1"/>
        <pt x="354" y="1687" on="0"/>
        <pt x="310" y="1582" on="0"/>
        <pt x="226" y="1521" on="0"/>
      </contour>
      <contour>
        <pt x="-2" y="1183" on="1"/>
        <pt x="-163" y="1183" on="0"/>
        <pt x="-343" y="1328" on="0"/>
        <pt x="-354" y="1461" on="1"/>
        <pt x="-191" y="1461" on="1"/>
        <pt x="-176" y="1340" on="0"/>
        <pt x="0" y="1340" on="1"/>
        <pt x="88" y="1340" on="0"/>
        <pt x="176" y="1398" on="0"/>
        <pt x="190" y="1461" on="1"/>
        <pt x="354" y="1461" on="1"/>
        <pt x="320" y="1183" on="0"/>
      </contour>
    </TTGlyph>
    <TTGlyph name="brokenbar" xMin="483" yMin="-455" xMax="745" yMax="1454">
      <contour>
        <pt x="483" y="676" on="1"/>
        <pt x="483" y="1454" on="1"/>
        <pt x="745" y="1454" on="1"/>
        <pt x="745" y="676" on="1"/>
      </contour>
      <contour>
        <pt x="483" y="-455" on="1"/>
        <pt x="483" y="324" on="1"/>
        <pt x="745" y="324" on="1"/>
        <pt x="745" y="-455" on="1"/>
      </contour>
    </TTGlyph>
    <TTGlyph name="bullet" xMin="321" yMin="386" xMax="907" yMax="974">
      <contour>
        <pt x="907" y="681" on="1"/>
        <pt x="907" y="560" on="0"/>
        <pt x="733" y="386" on="0"/>
        <pt x="612" y="386" on="1"/>
        <pt x="493" y="386" on="0"/>
        <pt x="321" y="559" on="0"/>
        <pt x="321" y="681" on="1"/>
        <pt x="321" y="803" on="0"/>
        <pt x="492" y="974" on="0"/>
        <pt x="612" y="974" on="1"/>
        <pt x="734" y="974" on="0"/>
        <pt x="907" y="803" on="0"/>
      </contour>
    </TTGlyph>
    <TTGlyph name="c" xMin="110" yMin="-20" xMax="1109" yMax="1102">
      <contour>
        <pt x="624" y="-20" on="1"/>
        <pt x="378" y="-20" on="0"/>
        <pt x="110" y="273" on="0"/>
        <pt x="110" y="535" on="1"/>
        <pt x="110" y="803" on="0"/>
        <pt x="380" y="1102" on="0"/>
        <pt x="628" y="1102" on="1"/>
        <pt x="819" y="1102" on="0"/>
        <pt x="1069" y="910" on="0"/>
        <pt x="1101" y="741" on="1"/>
        <pt x="818" y="727" on="1"/>
        <pt x="806" y="810" on="0"/>
        <pt x="710" y="909" on="0"/>
        <pt x="622" y="909" on="1"/>
        <pt x="405" y="909" on="0"/>
        <pt x="405" y="546" on="1"/>
        <pt x="405" y="172" on="0"/>
        <pt x="626" y="172" on="1"/>
        <pt x="706" y="172" on="0"/>
        <pt x="814" y="273" on="0"/>
        <pt x="827" y="373" on="1"/>
        <pt x="1109" y="360" on="1"/>
        <pt x="1094" y="249" on="0"/>
        <pt x="965" y="75" on="0"/>
        <pt x="755" y="-20" on="0"/>
      </contour>
    </TTGlyph>
    <TTGlyph name="cacute" xMin="110" yMin="-20" xMax="1109" yMax="1458">
      <component glyphName="c" x="0" y="0" flags="0x204"/>
      <component glyphName="acute" x="102" y="0" flags="0x4"/>
    </TTGlyph>
    <TTGlyph name="caron" xMin="246" yMin="1183" xMax="983" yMax="1461">
      <contour>
        <pt x="733" y="1183" on="1"/>
        <pt x="504" y="1183" on="1"/>
        <pt x="246" y="1432" on="1"/>
        <pt x="246" y="1461" on="1"/>
        <pt x="406" y="1461" on="1"/>
        <pt x="617" y="1327" on="1"/>
        <pt x="621" y="1327" on="1"/>
        <pt x="824" y="1461" on="1"/>
        <pt x="983" y="1461" on="1"/>
        <pt x="983" y="1432" on="1"/>
      </contour>
    </TTGlyph>
    <TTGlyph name="caron.uc" xMin="-27" yMin="1427" xMax="710" yMax="1705">
      <contour>
        <pt x="460" y="1427" on="1"/>
        <pt x="231" y="1427" on="1"/>
        <pt x="-27" y="1676" on="1"/>
        <pt x="-27" y="1705" on="1"/>
        <pt x="133" y="1705" on="1"/>
        <pt x="344" y="1571" on="1"/>
        <pt x="348" y="1571" on="1"/>
        <pt x="551" y="1705" on="1"/>
        <pt x="710" y="1705" on="1"/>
        <pt x="710" y="1676" on="1"/>
      </contour>
    </TTGlyph>
    <TTGlyph name="caroncommaaccent" xMin="435" yMin="1129" xMax="781" yMax="1484">
      <contour>
        <pt x="435" y="1129" on="1"/>
        <pt x="435" y="1162" on="1"/>
        <pt x="524" y="1484" on="1"/>
        <pt x="781" y="1484" on="1"/>
        <pt x="781" y="1447" on="1"/>
        <pt x="600" y="1129" on="1"/>
      </contour>
    </TTGlyph>
    <TTGlyph name="ccaron" xMin="110" yMin="-20" xMax="1109" yMax="1461">
      <component glyphName="c" x="0" y="0" flags="0x204"/>
      <component glyphName="caron" x="-4" y="0" flags="0x4"/>
    </TTGlyph>
    <TTGlyph name="ccedilla" xMin="110" yMin="-445" xMax="1109" yMax="1102">
      <component glyphName="c" x="0" y="0" flags="0x204"/>
      <component glyphName="cedilla" x="337" y="0" flags="0x4"/>
    </TTGlyph>
    <TTGlyph name="ccircumflex" xMin="110" yMin="-20" xMax="1109" yMax="1461">
      <component glyphName="c" x="0" y="0" flags="0x204"/>
      <component glyphName="circumflex" x="0" y="0" flags="0x4"/>
    </TTGlyph>
    <TTGlyph name="cdotaccent" xMin="110" yMin="-20" xMax="1109" yMax="1474">
      <component glyphName="c" x="0" y="0" flags="0x204"/>
      <component glyphName="dotaccent" x="20" y="0" flags="0x4"/>
    </TTGlyph>
    <TTGlyph name="cedilla" xMin="89" yMin="-445" xMax="493" yMax="0">
      <contour>
        <pt x="493" y="-255" on="1"/>
        <pt x="493" y="-349" on="0"/>
        <pt x="337" y="-445" on="0"/>
        <pt x="190" y="-445" on="1"/>
        <pt x="145" y="-445" on="0"/>
        <pt x="89" y="-439" on="1"/>
        <pt x="89" y="-321" on="1"/>
        <pt x="124" y="-328" on="0"/>
        <pt x="173" y="-328" on="1"/>
        <pt x="310" y="-328" on="0"/>
        <pt x="310" y="-259" on="1"/>
        <pt x="310" y="-224" on="0"/>
        <pt x="254" y="-190" on="0"/>
        <pt x="188" y="-190" on="1"/>
        <pt x="150" y="-190" on="0"/>
        <pt x="136" y="-192" on="1"/>
        <pt x="205" y="0" on="1"/>
        <pt x="348" y="0" on="1"/>
        <pt x="308" y="-102" on="1"/>
        <pt x="402" y="-107" on="0"/>
        <pt x="493" y="-189" on="0"/>
      </contour>
    </TTGlyph>
    <TTGlyph name="cent" xMin="98" yMin="-60" xMax="1139" yMax="1380">
      <contour>
        <pt x="635" y="311" on="1"/>
        <pt x="723" y="311" on="0"/>
        <pt x="842" y="420" on="0"/>
        <pt x="856" y="520" on="1"/>
        <pt x="1139" y="508" on="1"/>
        <pt x="1117" y="355" on="0"/>
        <pt x="893" y="152" on="0"/>
        <pt x="715" y="131" on="1"/>
        <pt x="715" y="-60" on="1"/>
        <pt x="553" y="-60" on="1"/>
        <pt x="553" y="129" on="1"/>
        <pt x="338" y="150" on="0"/>
        <pt x="98" y="422" on="0"/>
        <pt x="98" y="657" on="1"/>
        <pt x="98" y="889" on="0"/>
        <pt x="333" y="1171" on="0"/>
        <pt x="553" y="1196" on="1"/>
        <pt x="553" y="1380" on="1"/>
        <pt x="715" y="1380" on="1"/>
        <pt x="715" y="1196" on="1"/>
        <pt x="884" y="1177" on="0"/>
        <pt x="1102" y="990" on="0"/>
        <pt x="1130" y="839" on="1"/>
        <pt x="848" y="825" on="1"/>
        <pt x="833" y="916" on="0"/>
        <pt x="721" y="1015" on="0"/>
        <pt x="633" y="1015" on="1"/>
        <pt x="509" y="1015" on="0"/>
        <pt x="381" y="831" on="0"/>
        <pt x="381" y="667" on="1"/>
        <pt x="381" y="493" on="0"/>
        <pt x="514" y="311" on="0"/>
      </contour>
    </TTGlyph>
    <TTGlyph name="chi" xMin="41" yMin="-424" xMax="1197" yMax="1104">
      <contour>
        <pt x="261" y="1104" on="1"/>
        <pt x="364" y="1104" on="0"/>
        <pt x="482" y="995" on="0"/>
        <pt x="636" y="662" on="0"/>
        <pt x="648" y="618" on="1"/>
        <pt x="674" y="692" on="0"/>
        <pt x="707" y="757" on="1"/>
        <pt x="862" y="1082" on="1"/>
        <pt x="1159" y="1082" on="1"/>
        <pt x="784" y="392" on="1"/>
        <pt x="1197" y="-424" on="1"/>
        <pt x="897" y="-424" on="1"/>
        <pt x="702" y="8" on="1"/>
        <pt x="689" y="35" on="0"/>
        <pt x="635" y="177" on="0"/>
        <pt x="630" y="198" on="1"/>
        <pt x="621" y="169" on="0"/>
        <pt x="569" y="42" on="0"/>
        <pt x="555" y="13" on="1"/>
        <pt x="341" y="-424" on="1"/>
        <pt x="41" y="-424" on="1"/>
        <pt x="493" y="405" on="1"/>
        <pt x="374" y="648" on="1"/>
        <pt x="321" y="756" on="0"/>
        <pt x="257" y="858" on="0"/>
        <pt x="203" y="899" on="0"/>
        <pt x="166" y="899" on="1"/>
        <pt x="125" y="899" on="0"/>
        <pt x="85" y="883" on="1"/>
        <pt x="45" y="1074" on="1"/>
        <pt x="130" y="1104" on="0"/>
      </contour>
    </TTGlyph>
    <TTGlyph name="circle" xMin="163" yMin="162" xMax="1066" yMax="1065">
      <contour>
        <pt x="163" y="612" on="1"/>
        <pt x="163" y="734" on="0"/>
        <pt x="283" y="944" on="0"/>
        <pt x="492" y="1065" on="0"/>
        <pt x="613" y="1065" on="1"/>
        <pt x="735" y="1065" on="0"/>
        <pt x="945" y="944" on="0"/>
        <pt x="1066" y="733" on="0"/>
        <pt x="1066" y="612" on="1"/>
        <pt x="1066" y="491" on="0"/>
        <pt x="945" y="282" on="0"/>
        <pt x="736" y="162" on="0"/>
        <pt x="613" y="162" on="1"/>
        <pt x="491" y="162" on="0"/>
        <pt x="283" y="282" on="0"/>
        <pt x="163" y="490" on="0"/>
      </contour>
      <contour>
        <pt x="249" y="612" on="1"/>
        <pt x="249" y="514" on="0"/>
        <pt x="347" y="345" on="0"/>
        <pt x="514" y="248" on="0"/>
        <pt x="613" y="248" on="1"/>
        <pt x="711" y="248" on="0"/>
        <pt x="880" y="344" on="0"/>
        <pt x="980" y="514" on="0"/>
        <pt x="980" y="612" on="1"/>
        <pt x="980" y="710" on="0"/>
        <pt x="882" y="881" on="0"/>
        <pt x="711" y="979" on="0"/>
        <pt x="613" y="979" on="1"/>
        <pt x="516" y="979" on="0"/>
        <pt x="347" y="881" on="0"/>
        <pt x="249" y="712" on="0"/>
      </contour>
    </TTGlyph>
    <TTGlyph name="circumflex" xMin="246" yMin="1183" xMax="983" yMax="1461">
      <contour>
        <pt x="983" y="1211" on="1"/>
        <pt x="983" y="1183" on="1"/>
        <pt x="824" y="1183" on="1"/>
        <pt x="621" y="1317" on="1"/>
        <pt x="617" y="1317" on="1"/>
        <pt x="406" y="1183" on="1"/>
        <pt x="246" y="1183" on="1"/>
        <pt x="246" y="1211" on="1"/>
        <pt x="504" y="1461" on="1"/>
        <pt x="733" y="1461" on="1"/>
      </contour>
    </TTGlyph>
    <TTGlyph name="circumflex.uc" xMin="-27" yMin="1429" xMax="710" yMax="1707">
      <contour>
        <pt x="710" y="1457" on="1"/>
        <pt x="710" y="1429" on="1"/>
        <pt x="551" y="1429" on="1"/>
        <pt x="348" y="1563" on="1"/>
        <pt x="344" y="1563" on="1"/>
        <pt x="133" y="1429" on="1"/>
        <pt x="-27" y="1429" on="1"/>
        <pt x="-27" y="1457" on="1"/>
        <pt x="231" y="1707" on="1"/>
        <pt x="460" y="1707" on="1"/>
      </contour>
    </TTGlyph>
    <TTGlyph name="circumflexacute" xMin="-329" yMin="1427" xMax="529" yMax="1800">
      <contour>
        <pt x="312" y="1800" on="1"/>
        <pt x="529" y="1800" on="1"/>
        <pt x="529" y="1788" on="1"/>
        <pt x="303" y="1612" on="1"/>
        <pt x="207" y="1612" on="1"/>
        <pt x="207" y="1622" on="1"/>
      </contour>
      <contour>
        <pt x="323" y="1447" on="1"/>
        <pt x="323" y="1427" on="1"/>
        <pt x="218" y="1427" on="1"/>
        <pt x="-1" y="1596" on="1"/>
        <pt x="-3" y="1596" on="1"/>
        <pt x="-225" y="1427" on="1"/>
        <pt x="-329" y="1427" on="1"/>
        <pt x="-329" y="1447" on="1"/>
        <pt x="-105" y="1717" on="1"/>
        <pt x="99" y="1717" on="1"/>
      </contour>
    </TTGlyph>
    <TTGlyph name="circumflexacute.lc" xMin="-368" yMin="1183" xMax="569" yMax="1574">
      <contour>
        <pt x="352" y="1574" on="1"/>
        <pt x="569" y="1574" on="1"/>
        <pt x="569" y="1562" on="1"/>
        <pt x="363" y="1386" on="1"/>
        <pt x="247" y="1386" on="1"/>
        <pt x="247" y="1396" on="1"/>
      </contour>
      <contour>
        <pt x="369" y="1211" on="1"/>
        <pt x="369" y="1183" on="1"/>
        <pt x="210" y="1183" on="1"/>
        <pt x="7" y="1375" on="1"/>
        <pt x="3" y="1375" on="1"/>
        <pt x="-208" y="1183" on="1"/>
        <pt x="-368" y="1183" on="1"/>
        <pt x="-368" y="1211" on="1"/>
        <pt x="-110" y="1529" on="1"/>
        <pt x="119" y="1529" on="1"/>
      </contour>
    </TTGlyph>
    <TTGlyph name="circumflexgrave" xMin="-530" yMin="1427" xMax="328" yMax="1800">
      <contour>
        <pt x="-208" y="1622" on="1"/>
        <pt x="-208" y="1612" on="1"/>
        <pt x="-304" y="1612" on="1"/>
        <pt x="-530" y="1788" on="1"/>
        <pt x="-530" y="1800" on="1"/>
        <pt x="-313" y="1800" on="1"/>
      </contour>
      <contour>
        <pt x="-100" y="1717" on="1"/>
        <pt x="104" y="1717" on="1"/>
        <pt x="328" y="1447" on="1"/>
        <pt x="328" y="1427" on="1"/>
        <pt x="224" y="1427" on="1"/>
        <pt x="2" y="1596" on="1"/>
        <pt x="0" y="1596" on="1"/>
        <pt x="-219" y="1427" on="1"/>
        <pt x="-324" y="1427" on="1"/>
        <pt x="-324" y="1447" on="1"/>
      </contour>
    </TTGlyph>
    <TTGlyph name="circumflexgrave.lc" xMin="-563" yMin="1183" xMax="374" yMax="1574">
      <contour>
        <pt x="-241" y="1396" on="1"/>
        <pt x="-241" y="1386" on="1"/>
        <pt x="-357" y="1386" on="1"/>
        <pt x="-563" y="1562" on="1"/>
        <pt x="-563" y="1574" on="1"/>
        <pt x="-346" y="1574" on="1"/>
      </contour>
      <contour>
        <pt x="-113" y="1529" on="1"/>
        <pt x="116" y="1529" on="1"/>
        <pt x="374" y="1211" on="1"/>
        <pt x="374" y="1183" on="1"/>
        <pt x="214" y="1183" on="1"/>
        <pt x="3" y="1375" on="1"/>
        <pt x="-1" y="1375" on="1"/>
        <pt x="-204" y="1183" on="1"/>
        <pt x="-363" y="1183" on="1"/>
        <pt x="-363" y="1211" on="1"/>
      </contour>
    </TTGlyph>
    <TTGlyph name="circumflexhook" xMin="-329" yMin="1426" xMax="447" yMax="1799">
      <contour>
        <pt x="340" y="1696" on="1"/>
        <pt x="340" y="1731" on="0"/>
        <pt x="281" y="1731" on="1"/>
        <pt x="230" y="1731" on="0"/>
        <pt x="190" y="1715" on="1"/>
        <pt x="170" y="1779" on="1"/>
        <pt x="228" y="1799" on="0"/>
        <pt x="295" y="1799" on="1"/>
        <pt x="447" y="1799" on="0"/>
        <pt x="447" y="1703" on="1"/>
        <pt x="447" y="1659" on="0"/>
        <pt x="380" y="1603" on="0"/>
        <pt x="326" y="1603" on="1"/>
        <pt x="326" y="1580" on="1"/>
        <pt x="265" y="1580" on="1"/>
        <pt x="265" y="1658" on="1"/>
        <pt x="340" y="1658" on="0"/>
      </contour>
      <contour>
        <pt x="323" y="1446" on="1"/>
        <pt x="323" y="1426" on="1"/>
        <pt x="218" y="1426" on="1"/>
        <pt x="-1" y="1595" on="1"/>
        <pt x="-3" y="1595" on="1"/>
        <pt x="-225" y="1426" on="1"/>
        <pt x="-329" y="1426" on="1"/>
        <pt x="-329" y="1446" on="1"/>
        <pt x="-105" y="1716" on="1"/>
        <pt x="99" y="1716" on="1"/>
      </contour>
    </TTGlyph>
    <TTGlyph name="circumflexhook.lc" xMin="-368" yMin="1183" xMax="510" yMax="1653">
      <contour>
        <pt x="369" y="1211" on="1"/>
        <pt x="369" y="1183" on="1"/>
        <pt x="210" y="1183" on="1"/>
        <pt x="7" y="1317" on="1"/>
        <pt x="3" y="1317" on="1"/>
        <pt x="-208" y="1183" on="1"/>
        <pt x="-368" y="1183" on="1"/>
        <pt x="-368" y="1211" on="1"/>
        <pt x="-110" y="1461" on="1"/>
        <pt x="119" y="1461" on="1"/>
      </contour>
      <contour>
        <pt x="375" y="1524" on="1"/>
        <pt x="375" y="1568" on="0"/>
        <pt x="299" y="1568" on="1"/>
        <pt x="238" y="1568" on="0"/>
        <pt x="185" y="1549" on="1"/>
        <pt x="159" y="1629" on="1"/>
        <pt x="229" y="1653" on="0"/>
        <pt x="318" y="1653" on="1"/>
        <pt x="510" y="1653" on="0"/>
        <pt x="510" y="1541" on="1"/>
        <pt x="510" y="1493" on="0"/>
        <pt x="444" y="1424" on="0"/>
        <pt x="371" y="1415" on="1"/>
        <pt x="371" y="1377" on="1"/>
        <pt x="280" y="1377" on="1"/>
        <pt x="280" y="1471" on="1"/>
        <pt x="322" y="1473" on="0"/>
        <pt x="375" y="1491" on="0"/>
      </contour>
    </TTGlyph>
    <TTGlyph name="circumflextilde" xMin="-318" yMin="1427" xMax="319" yMax="1800">
      <contour>
        <pt x="127" y="1606" on="1"/>
        <pt x="76" y="1606" on="0"/>
        <pt x="-8" y="1644" on="1"/>
        <pt x="-93" y="1681" on="0"/>
        <pt x="-129" y="1681" on="1"/>
        <pt x="-174" y="1681" on="0"/>
        <pt x="-219" y="1646" on="0"/>
        <pt x="-227" y="1606" on="1"/>
        <pt x="-318" y="1606" on="1"/>
        <pt x="-307" y="1688" on="0"/>
        <pt x="-264" y="1760" on="0"/>
        <pt x="-188" y="1800" on="0"/>
        <pt x="-125" y="1800" on="1"/>
        <pt x="-70" y="1800" on="0"/>
        <pt x="13" y="1763" on="1"/>
        <pt x="96" y="1725" on="0"/>
        <pt x="130" y="1725" on="1"/>
        <pt x="178" y="1725" on="0"/>
        <pt x="221" y="1763" on="0"/>
        <pt x="227" y="1800" on="1"/>
        <pt x="319" y="1800" on="1"/>
        <pt x="307" y="1719" on="0"/>
        <pt x="265" y="1645" on="0"/>
        <pt x="190" y="1606" on="0"/>
      </contour>
      <contour>
        <pt x="1" y="1494" on="1"/>
        <pt x="-150" y="1427" on="1"/>
        <pt x="-305" y="1427" on="1"/>
        <pt x="-305" y="1439" on="1"/>
        <pt x="-96" y="1580" on="1"/>
        <pt x="99" y="1580" on="1"/>
        <pt x="307" y="1437" on="1"/>
        <pt x="307" y="1427" on="1"/>
        <pt x="152" y="1427" on="1"/>
      </contour>
    </TTGlyph>
    <TTGlyph name="circumflextilde.lc" xMin="-368" yMin="1183" xMax="369" yMax="1787">
      <contour>
        <pt x="151" y="1523" on="1"/>
        <pt x="111" y="1523" on="0"/>
        <pt x="31" y="1558" on="0"/>
        <pt x="-45" y="1599" on="0"/>
        <pt x="-113" y="1634" on="0"/>
        <pt x="-140" y="1634" on="1"/>
        <pt x="-177" y="1634" on="0"/>
        <pt x="-218" y="1587" on="0"/>
        <pt x="-228" y="1523" on="1"/>
        <pt x="-352" y="1523" on="1"/>
        <pt x="-344" y="1625" on="0"/>
        <pt x="-301" y="1728" on="0"/>
        <pt x="-217" y="1787" on="0"/>
        <pt x="-149" y="1787" on="1"/>
        <pt x="-108" y="1787" on="0"/>
        <pt x="-26" y="1753" on="0"/>
        <pt x="49" y="1711" on="0"/>
        <pt x="116" y="1677" on="0"/>
        <pt x="142" y="1677" on="1"/>
        <pt x="186" y="1677" on="0"/>
        <pt x="222" y="1735" on="0"/>
        <pt x="231" y="1787" on="1"/>
        <pt x="353" y="1787" on="1"/>
        <pt x="348" y="1689" on="0"/>
        <pt x="304" y="1584" on="0"/>
        <pt x="220" y="1523" on="0"/>
      </contour>
      <contour>
        <pt x="369" y="1211" on="1"/>
        <pt x="369" y="1183" on="1"/>
        <pt x="210" y="1183" on="1"/>
        <pt x="7" y="1317" on="1"/>
        <pt x="3" y="1317" on="1"/>
        <pt x="-208" y="1183" on="1"/>
        <pt x="-368" y="1183" on="1"/>
        <pt x="-368" y="1211" on="1"/>
        <pt x="-110" y="1461" on="1"/>
        <pt x="119" y="1461" on="1"/>
      </contour>
    </TTGlyph>
    <TTGlyph name="club" xMin="97" yMin="0" xMax="1131" yMax="1195">
      <contour>
        <pt x="614" y="1195" on="1"/>
        <pt x="699" y="1195" on="0"/>
        <pt x="823" y="1134" on="0"/>
        <pt x="891" y="1025" on="0"/>
        <pt x="891" y="961" on="1"/>
        <pt x="891" y="894" on="0"/>
        <pt x="824" y="761" on="0"/>
        <pt x="773" y="725" on="1"/>
        <pt x="828" y="728" on="1"/>
        <pt x="963" y="728" on="0"/>
        <pt x="1131" y="591" on="0"/>
        <pt x="1131" y="478" on="1"/>
        <pt x="1131" y="370" on="0"/>
        <pt x="995" y="240" on="0"/>
        <pt x="896" y="240" on="1"/>
        <pt x="835" y="240" on="0"/>
        <pt x="699" y="299" on="0"/>
        <pt x="662" y="340" on="1"/>
        <pt x="662" y="207" on="0"/>
        <pt x="837" y="56" on="0"/>
        <pt x="982" y="56" on="1"/>
        <pt x="982" y="0" on="1"/>
        <pt x="246" y="0" on="1"/>
        <pt x="246" y="56" on="1"/>
        <pt x="391" y="56" on="0"/>
        <pt x="566" y="207" on="0"/>
        <pt x="566" y="340" on="1"/>
        <pt x="530" y="299" on="0"/>
        <pt x="395" y="240" on="0"/>
        <pt x="332" y="240" on="1"/>
        <pt x="232" y="240" on="0"/>
        <pt x="97" y="370" on="0"/>
        <pt x="97" y="478" on="1"/>
        <pt x="97" y="592" on="0"/>
        <pt x="265" y="728" on="0"/>
        <pt x="400" y="728" on="1"/>
        <pt x="455" y="725" on="1"/>
        <pt x="404" y="761" on="0"/>
        <pt x="337" y="894" on="0"/>
        <pt x="337" y="961" on="1"/>
        <pt x="337" y="1025" on="0"/>
        <pt x="405" y="1134" on="0"/>
        <pt x="529" y="1195" on="0"/>
      </contour>
    </TTGlyph>
    <TTGlyph name="colon" xMin="470" yMin="0" xMax="759" yMax="1085">
      <contour>
        <pt x="470" y="0" on="1"/>
        <pt x="470" y="305" on="1"/>
        <pt x="759" y="305" on="1"/>
        <pt x="759" y="0" on="1"/>
      </contour>
      <contour>
        <pt x="470" y="780" on="1"/>
        <pt x="470" y="1085" on="1"/>
        <pt x="759" y="1085" on="1"/>
        <pt x="759" y="780" on="1"/>
      </contour>
    </TTGlyph>
    <TTGlyph name="comma" xMin="258" yMin="-363" xMax="742" yMax="299">
      <contour>
        <pt x="258" y="-363" on="1"/>
        <pt x="427" y="299" on="1"/>
        <pt x="742" y="299" on="1"/>
        <pt x="431" y="-363" on="1"/>
      </contour>
    </TTGlyph>
    <TTGlyph name="commaaccentrotate" xMin="445" yMin="1211" xMax="791" yMax="1566">
      <contour>
        <pt x="791" y="1566" on="1"/>
        <pt x="791" y="1533" on="1"/>
        <pt x="702" y="1211" on="1"/>
        <pt x="445" y="1211" on="1"/>
        <pt x="445" y="1248" on="1"/>
        <pt x="626" y="1566" on="1"/>
      </contour>
    </TTGlyph>
    <TTGlyph name="copyright" xMin="31" yMin="38" xMax="1197" yMax="1484">
      <contour>
        <pt x="628" y="333" on="1"/>
        <pt x="460" y="333" on="0"/>
        <pt x="275" y="560" on="0"/>
        <pt x="275" y="763" on="1"/>
        <pt x="275" y="965" on="0"/>
        <pt x="453" y="1187" on="0"/>
        <pt x="621" y="1187" on="1"/>
        <pt x="838" y="1187" on="0"/>
        <pt x="924" y="978" on="1"/>
        <pt x="786" y="935" on="1"/>
        <pt x="737" y="1062" on="0"/>
        <pt x="623" y="1062" on="1"/>
        <pt x="528" y="1062" on="0"/>
        <pt x="428" y="909" on="0"/>
        <pt x="428" y="763" on="1"/>
        <pt x="428" y="621" on="0"/>
        <pt x="535" y="457" on="0"/>
        <pt x="628" y="457" on="1"/>
        <pt x="741" y="457" on="0"/>
        <pt x="799" y="611" on="1"/>
        <pt x="928" y="569" on="1"/>
        <pt x="891" y="456" on="0"/>
        <pt x="736" y="333" on="0"/>
      </contour>
      <contour>
        <pt x="1197" y="761" on="1"/>
        <pt x="1197" y="534" on="0"/>
        <pt x="1055" y="207" on="0"/>
        <pt x="791" y="38" on="0"/>
        <pt x="614" y="38" on="1"/>
        <pt x="437" y="38" on="0"/>
        <pt x="174" y="209" on="0"/>
        <pt x="31" y="535" on="0"/>
        <pt x="31" y="761" on="1"/>
        <pt x="31" y="987" on="0"/>
        <pt x="173" y="1313" on="0"/>
        <pt x="438" y="1484" on="0"/>
        <pt x="614" y="1484" on="1"/>
        <pt x="790" y="1484" on="0"/>
        <pt x="1055" y="1314" on="0"/>
        <pt x="1197" y="989" on="0"/>
      </contour>
      <contour>
        <pt x="1071" y="761" on="1"/>
        <pt x="1071" y="1049" on="0"/>
        <pt x="832" y="1368" on="0"/>
        <pt x="614" y="1368" on="1"/>
        <pt x="399" y="1368" on="0"/>
        <pt x="160" y="1049" on="0"/>
        <pt x="160" y="761" on="1"/>
        <pt x="160" y="470" on="0"/>
        <pt x="400" y="153" on="0"/>
        <pt x="614" y="153" on="1"/>
        <pt x="831" y="153" on="0"/>
        <pt x="1071" y="470" on="0"/>
      </contour>
    </TTGlyph>
    <TTGlyph name="currency" xMin="102" yMin="170" xMax="1126" yMax="1196">
      <contour>
        <pt x="179" y="684" on="1"/>
        <pt x="179" y="804" on="0"/>
        <pt x="239" y="905" on="1"/>
        <pt x="106" y="1038" on="1"/>
        <pt x="263" y="1194" on="1"/>
        <pt x="394" y="1061" on="1"/>
        <pt x="495" y="1120" on="0"/>
        <pt x="614" y="1120" on="1"/>
        <pt x="735" y="1120" on="0"/>
        <pt x="833" y="1061" on="1"/>
        <pt x="968" y="1196" on="1"/>
        <pt x="1126" y="1038" on="1"/>
        <pt x="990" y="903" on="1"/>
        <pt x="1050" y="804" on="0"/>
        <pt x="1050" y="684" on="1"/>
        <pt x="1050" y="566" on="0"/>
        <pt x="992" y="467" on="1"/>
        <pt x="1126" y="334" on="1"/>
        <pt x="968" y="174" on="1"/>
        <pt x="835" y="309" on="1"/>
        <pt x="735" y="250" on="0"/>
        <pt x="614" y="250" on="1"/>
        <pt x="492" y="250" on="0"/>
        <pt x="394" y="307" on="1"/>
        <pt x="259" y="170" on="1"/>
        <pt x="102" y="328" on="1"/>
        <pt x="237" y="465" on="1"/>
        <pt x="179" y="564" on="0"/>
      </contour>
      <contour>
        <pt x="405" y="686" on="1"/>
        <pt x="405" y="600" on="0"/>
        <pt x="527" y="477" on="0"/>
        <pt x="614" y="477" on="1"/>
        <pt x="699" y="477" on="0"/>
        <pt x="822" y="601" on="0"/>
        <pt x="822" y="686" on="1"/>
        <pt x="822" y="772" on="0"/>
        <pt x="700" y="895" on="0"/>
        <pt x="614" y="895" on="1"/>
        <pt x="528" y="895" on="0"/>
        <pt x="405" y="773" on="0"/>
      </contour>
    </TTGlyph>
    <TTGlyph name="cyrillic_otmark" xMin="-457" yMin="1160" xMax="457" yMax="1375">
      <contour>
        <pt x="457" y="1375" on="1"/>
        <pt x="367" y="1160" on="1"/>
        <pt x="328" y="1160" on="1"/>
        <pt x="281" y="1271" on="1"/>
        <pt x="67" y="1271" on="1"/>
        <pt x="20" y="1160" on="1"/>
        <pt x="-20" y="1160" on="1"/>
        <pt x="-67" y="1271" on="1"/>
        <pt x="-281" y="1271" on="1"/>
        <pt x="-328" y="1160" on="1"/>
        <pt x="-367" y="1160" on="1"/>
        <pt x="-457" y="1375" on="1"/>
      </contour>
    </TTGlyph>
    <TTGlyph name="cyrillicbreve" xMin="207" yMin="1184" xMax="1021" yMax="1475">
      <contour>
        <pt x="615" y="1184" on="1"/>
        <pt x="473" y="1184" on="0"/>
        <pt x="296" y="1245" on="0"/>
        <pt x="212" y="1363" on="0"/>
        <pt x="207" y="1475" on="1"/>
        <pt x="431" y="1475" on="1"/>
        <pt x="434" y="1418" on="0"/>
        <pt x="469" y="1353" on="0"/>
        <pt x="537" y="1325" on="0"/>
        <pt x="615" y="1325" on="1"/>
        <pt x="692" y="1325" on="0"/>
        <pt x="760" y="1353" on="0"/>
        <pt x="794" y="1419" on="0"/>
        <pt x="797" y="1475" on="1"/>
        <pt x="1021" y="1475" on="1"/>
        <pt x="1016" y="1364" on="0"/>
        <pt x="933" y="1245" on="0"/>
        <pt x="759" y="1184" on="0"/>
      </contour>
    </TTGlyph>
    <TTGlyph name="d" xMin="97" yMin="-20" xMax="1089" yMax="1484">
      <contour>
        <pt x="817" y="0" on="1"/>
        <pt x="813" y="15" on="0"/>
        <pt x="802" y="136" on="0"/>
        <pt x="802" y="176" on="1"/>
        <pt x="798" y="176" on="1"/>
        <pt x="745" y="69" on="0"/>
        <pt x="589" y="-20" on="0"/>
        <pt x="482" y="-20" on="1"/>
        <pt x="303" y="-20" on="0"/>
        <pt x="97" y="280" on="0"/>
        <pt x="97" y="539" on="1"/>
        <pt x="97" y="804" on="0"/>
        <pt x="304" y="1100" on="0"/>
        <pt x="493" y="1100" on="1"/>
        <pt x="600" y="1100" on="0"/>
        <pt x="758" y="1003" on="0"/>
        <pt x="800" y="909" on="1"/>
        <pt x="802" y="909" on="1"/>
        <pt x="800" y="1087" on="1"/>
        <pt x="800" y="1484" on="1"/>
        <pt x="1081" y="1484" on="1"/>
        <pt x="1081" y="236" on="1"/>
        <pt x="1081" y="136" on="0"/>
        <pt x="1089" y="0" on="1"/>
      </contour>
      <contour>
        <pt x="804" y="546" on="1"/>
        <pt x="804" y="719" on="0"/>
        <pt x="692" y="909" on="0"/>
        <pt x="593" y="909" on="1"/>
        <pt x="493" y="909" on="0"/>
        <pt x="390" y="722" on="0"/>
        <pt x="390" y="539" on="1"/>
        <pt x="390" y="355" on="0"/>
        <pt x="495" y="172" on="0"/>
        <pt x="591" y="172" on="1"/>
        <pt x="653" y="172" on="0"/>
        <pt x="751" y="261" on="0"/>
        <pt x="804" y="427" on="0"/>
      </contour>
    </TTGlyph>
    <TTGlyph name="dagesh" xMin="535" yMin="625" xMax="694" yMax="782">
      <contour>
        <pt x="535" y="702" on="1"/>
        <pt x="535" y="737" on="0"/>
        <pt x="582" y="782" on="0"/>
        <pt x="614" y="782" on="1"/>
        <pt x="646" y="782" on="0"/>
        <pt x="694" y="737" on="0"/>
        <pt x="694" y="702" on="1"/>
        <pt x="694" y="670" on="0"/>
        <pt x="646" y="625" on="0"/>
        <pt x="614" y="625" on="1"/>
        <pt x="582" y="625" on="0"/>
        <pt x="535" y="670" on="0"/>
      </contour>
    </TTGlyph>
    <TTGlyph name="dagger" xMin="172" yMin="-213" xMax="1056" yMax="1484">
      <contour>
        <pt x="713" y="960" on="1"/>
        <pt x="691" y="-213" on="1"/>
        <pt x="536" y="-213" on="1"/>
        <pt x="514" y="960" on="1"/>
        <pt x="172" y="933" on="1"/>
        <pt x="172" y="1137" on="1"/>
        <pt x="514" y="1108" on="1"/>
        <pt x="486" y="1484" on="1"/>
        <pt x="741" y="1484" on="1"/>
        <pt x="713" y="1108" on="1"/>
        <pt x="1056" y="1137" on="1"/>
        <pt x="1056" y="933" on="1"/>
      </contour>
    </TTGlyph>
    <TTGlyph name="daggerdbl" xMin="172" yMin="-211" xMax="1057" yMax="1484">
      <contour>
        <pt x="513" y="980" on="1"/>
        <pt x="173" y="953" on="1"/>
        <pt x="173" y="1157" on="1"/>
        <pt x="513" y="1128" on="1"/>
        <pt x="497" y="1484" on="1"/>
        <pt x="712" y="1484" on="1"/>
        <pt x="696" y="1128" on="1"/>
        <pt x="1057" y="1157" on="1"/>
        <pt x="1057" y="953" on="1"/>
        <pt x="696" y="980" on="1"/>
        <pt x="670" y="635" on="1"/>
        <pt x="696" y="293" on="1"/>
        <pt x="1056" y="320" on="1"/>
        <pt x="1056" y="116" on="1"/>
        <pt x="696" y="145" on="1"/>
        <pt x="712" y="-211" on="1"/>
        <pt x="497" y="-211" on="1"/>
        <pt x="513" y="145" on="1"/>
        <pt x="172" y="116" on="1"/>
        <pt x="172" y="320" on="1"/>
        <pt x="513" y="293" on="1"/>
        <pt x="539" y="635" on="1"/>
      </contour>
    </TTGlyph>
    <TTGlyph name="dalet" xMin="39" yMin="0" xMax="1135" yMax="1241">
      <contour>
        <pt x="981" y="0" on="1"/>
        <pt x="711" y="0" on="1"/>
        <pt x="711" y="999" on="1"/>
        <pt x="39" y="999" on="1"/>
        <pt x="39" y="1241" on="1"/>
        <pt x="1135" y="1241" on="1"/>
        <pt x="1135" y="999" on="1"/>
        <pt x="981" y="999" on="1"/>
      </contour>
    </TTGlyph>
    <TTGlyph name="daletdagesh" xMin="66" yMin="0" xMax="1162" yMax="1241">
      <component glyphName="dalet" x="27" y="0" flags="0x4"/>
      <component glyphName="dagesh" x="-177" y="-153" flags="0x4"/>
    </TTGlyph>
    <TTGlyph name="daletwide" xMin="66" yMin="0" xMax="1162" yMax="1241">
      <component glyphName="dalet" x="27" y="0" flags="0x4"/>
    </TTGlyph>
    <TTGlyph name="dcaron" xMin="28" yMin="-20" xMax="1231" yMax="1484">
      <contour>
        <pt x="640" y="0" on="1"/>
        <pt x="636" y="15" on="0"/>
        <pt x="625" y="136" on="0"/>
        <pt x="625" y="176" on="1"/>
        <pt x="621" y="176" on="1"/>
        <pt x="568" y="69" on="0"/>
        <pt x="439" y="-20" on="0"/>
        <pt x="355" y="-20" on="1"/>
        <pt x="207" y="-20" on="0"/>
        <pt x="28" y="288" on="0"/>
        <pt x="28" y="539" on="1"/>
        <pt x="28" y="798" on="0"/>
        <pt x="209" y="1100" on="0"/>
        <pt x="366" y="1100" on="1"/>
        <pt x="537" y="1100" on="0"/>
        <pt x="623" y="909" on="1"/>
        <pt x="625" y="909" on="1"/>
        <pt x="623" y="1087" on="1"/>
        <pt x="623" y="1484" on="1"/>
        <pt x="894" y="1484" on="1"/>
        <pt x="894" y="236" on="1"/>
        <pt x="894" y="136" on="0"/>
        <pt x="902" y="0" on="1"/>
      </contour>
      <contour>
        <pt x="627" y="546" on="1"/>
        <pt x="627" y="664" on="0"/>
        <pt x="585" y="825" on="0"/>
        <pt x="512" y="909" on="0"/>
        <pt x="466" y="909" on="1"/>
        <pt x="394" y="909" on="0"/>
        <pt x="313" y="715" on="0"/>
        <pt x="313" y="539" on="1"/>
        <pt x="313" y="370" on="0"/>
        <pt x="393" y="172" on="0"/>
        <pt x="464" y="172" on="1"/>
        <pt x="509" y="172" on="0"/>
        <pt x="584" y="264" on="0"/>
        <pt x="627" y="429" on="0"/>
      </contour>
      <contour>
        <pt x="971" y="1129" on="1"/>
        <pt x="971" y="1162" on="1"/>
        <pt x="1000" y="1484" on="1"/>
        <pt x="1231" y="1484" on="1"/>
        <pt x="1231" y="1447" on="1"/>
        <pt x="1110" y="1129" on="1"/>
      </contour>
    </TTGlyph>
    <TTGlyph name="dcroat" xMin="92" yMin="-20" xMax="1209" yMax="1484">
      <contour>
        <pt x="1209" y="1180" on="1"/>
        <pt x="1076" y="1180" on="1"/>
        <pt x="1076" y="236" on="1"/>
        <pt x="1076" y="136" on="0"/>
        <pt x="1084" y="0" on="1"/>
        <pt x="812" y="0" on="1"/>
        <pt x="808" y="15" on="0"/>
        <pt x="797" y="136" on="0"/>
        <pt x="797" y="176" on="1"/>
        <pt x="793" y="176" on="1"/>
        <pt x="740" y="69" on="0"/>
        <pt x="584" y="-20" on="0"/>
        <pt x="477" y="-20" on="1"/>
        <pt x="296" y="-20" on="0"/>
        <pt x="92" y="269" on="0"/>
        <pt x="92" y="523" on="1"/>
        <pt x="92" y="785" on="0"/>
        <pt x="297" y="1068" on="0"/>
        <pt x="488" y="1068" on="1"/>
        <pt x="595" y="1068" on="0"/>
        <pt x="753" y="971" on="0"/>
        <pt x="795" y="877" on="1"/>
        <pt x="797" y="877" on="1"/>
        <pt x="795" y="1087" on="1"/>
        <pt x="795" y="1180" on="1"/>
        <pt x="513" y="1180" on="1"/>
        <pt x="513" y="1349" on="1"/>
        <pt x="795" y="1349" on="1"/>
        <pt x="795" y="1484" on="1"/>
        <pt x="1076" y="1484" on="1"/>
        <pt x="1076" y="1349" on="1"/>
        <pt x="1209" y="1349" on="1"/>
      </contour>
      <contour>
        <pt x="799" y="530" on="1"/>
        <pt x="799" y="698" on="0"/>
        <pt x="692" y="877" on="0"/>
        <pt x="588" y="877" on="1"/>
        <pt x="485" y="877" on="0"/>
        <pt x="385" y="702" on="0"/>
        <pt x="385" y="523" on="1"/>
        <pt x="385" y="172" on="0"/>
        <pt x="586" y="172" on="1"/>
        <pt x="687" y="172" on="0"/>
        <pt x="799" y="358" on="0"/>
      </contour>
    </TTGlyph>
    <TTGlyph name="degree" xMin="294" yMin="795" xMax="935" yMax="1425">
      <contour>
        <pt x="935" y="1110" on="1"/>
        <pt x="935" y="980" on="0"/>
        <pt x="748" y="795" on="0"/>
        <pt x="614" y="795" on="1"/>
        <pt x="482" y="795" on="0"/>
        <pt x="294" y="977" on="0"/>
        <pt x="294" y="1110" on="1"/>
        <pt x="294" y="1196" on="0"/>
        <pt x="379" y="1342" on="0"/>
        <pt x="526" y="1425" on="0"/>
        <pt x="614" y="1425" on="1"/>
        <pt x="749" y="1425" on="0"/>
        <pt x="935" y="1240" on="0"/>
      </contour>
      <contour>
        <pt x="777" y="1110" on="1"/>
        <pt x="777" y="1180" on="0"/>
        <pt x="684" y="1276" on="0"/>
        <pt x="614" y="1276" on="1"/>
        <pt x="543" y="1276" on="0"/>
        <pt x="448" y="1179" on="0"/>
        <pt x="448" y="1110" on="1"/>
        <pt x="448" y="1041" on="0"/>
        <pt x="546" y="942" on="0"/>
        <pt x="614" y="942" on="1"/>
        <pt x="681" y="942" on="0"/>
        <pt x="777" y="1040" on="0"/>
      </contour>
    </TTGlyph>
    <TTGlyph name="delta" xMin="76" yMin="-20" xMax="1146" yMax="1484">
      <contour>
        <pt x="856" y="487" on="1"/>
        <pt x="856" y="597" on="0"/>
        <pt x="765" y="795" on="0"/>
        <pt x="657" y="903" on="1"/>
        <pt x="516" y="853" on="0"/>
        <pt x="366" y="638" on="0"/>
        <pt x="366" y="481" on="1"/>
        <pt x="366" y="336" on="0"/>
        <pt x="490" y="176" on="0"/>
        <pt x="602" y="176" on="1"/>
        <pt x="726" y="176" on="0"/>
        <pt x="856" y="332" on="0"/>
      </contour>
      <contour>
        <pt x="724" y="1294" on="1"/>
        <pt x="577" y="1301" on="1"/>
        <pt x="900" y="1008" on="1"/>
        <pt x="1031" y="889" on="0"/>
        <pt x="1146" y="636" on="0"/>
        <pt x="1146" y="483" on="1"/>
        <pt x="1146" y="335" on="0"/>
        <pt x="1017" y="106" on="0"/>
        <pt x="771" y="-20" on="0"/>
        <pt x="607" y="-20" on="1"/>
        <pt x="355" y="-20" on="0"/>
        <pt x="76" y="245" on="0"/>
        <pt x="76" y="481" on="1"/>
        <pt x="76" y="863" on="0"/>
        <pt x="541" y="1023" on="1"/>
        <pt x="229" y="1337" on="1"/>
        <pt x="229" y="1484" on="1"/>
        <pt x="1082" y="1484" on="1"/>
        <pt x="1082" y="1294" on="1"/>
      </contour>
    </TTGlyph>
    <TTGlyph name="diamond" xMin="132" yMin="-1" xMax="1096" yMax="1198">
      <contour>
        <pt x="132" y="597" on="1"/>
        <pt x="132" y="600" on="1"/>
        <pt x="381" y="884" on="0"/>
        <pt x="608" y="1198" on="1"/>
        <pt x="620" y="1198" on="1"/>
        <pt x="847" y="884" on="0"/>
        <pt x="1096" y="600" on="1"/>
        <pt x="1096" y="597" on="1"/>
        <pt x="847" y="313" on="0"/>
        <pt x="620" y="-1" on="1"/>
        <pt x="608" y="-1" on="1"/>
        <pt x="381" y="313" on="0"/>
      </contour>
    </TTGlyph>
    <TTGlyph name="dieresis" xMin="289" yMin="1219" xMax="940" yMax="1438">
      <contour>
        <pt x="713" y="1219" on="1"/>
        <pt x="713" y="1438" on="1"/>
        <pt x="940" y="1438" on="1"/>
        <pt x="940" y="1219" on="1"/>
      </contour>
      <contour>
        <pt x="289" y="1219" on="1"/>
        <pt x="289" y="1438" on="1"/>
        <pt x="513" y="1438" on="1"/>
        <pt x="513" y="1219" on="1"/>
      </contour>
    </TTGlyph>
    <TTGlyph name="dieresis.uc" xMin="15" yMin="1429" xMax="666" yMax="1648">
      <contour>
        <pt x="439" y="1429" on="1"/>
        <pt x="439" y="1648" on="1"/>
        <pt x="666" y="1648" on="1"/>
        <pt x="666" y="1429" on="1"/>
      </contour>
      <contour>
        <pt x="15" y="1429" on="1"/>
        <pt x="15" y="1648" on="1"/>
        <pt x="239" y="1648" on="1"/>
        <pt x="239" y="1429" on="1"/>
      </contour>
    </TTGlyph>
    <TTGlyph name="dieresistonos" xMin="249" yMin="1201" xMax="981" yMax="1632">
      <contour>
        <pt x="516" y="1201" on="1"/>
        <pt x="516" y="1234" on="1"/>
        <pt x="575" y="1632" on="1"/>
        <pt x="812" y="1632" on="1"/>
        <pt x="812" y="1595" on="1"/>
        <pt x="631" y="1201" on="1"/>
      </contour>
      <contour>
        <pt x="249" y="1231" on="1"/>
        <pt x="249" y="1453" on="1"/>
        <pt x="449" y="1453" on="1"/>
        <pt x="449" y="1231" on="1"/>
      </contour>
      <contour>
        <pt x="781" y="1231" on="1"/>
        <pt x="781" y="1453" on="1"/>
        <pt x="981" y="1453" on="1"/>
        <pt x="981" y="1231" on="1"/>
      </contour>
    </TTGlyph>
    <TTGlyph name="divide" xMin="101" yMin="170" xMax="1128" yMax="1194">
      <contour>
        <pt x="494" y="961" on="1"/>
        <pt x="494" y="1194" on="1"/>
        <pt x="732" y="1194" on="1"/>
        <pt x="732" y="961" on="1"/>
      </contour>
      <contour>
        <pt x="101" y="569" on="1"/>
        <pt x="101" y="793" on="1"/>
        <pt x="1128" y="793" on="1"/>
        <pt x="1128" y="569" on="1"/>
      </contour>
      <contour>
        <pt x="494" y="170" on="1"/>
        <pt x="494" y="403" on="1"/>
        <pt x="732" y="403" on="1"/>
        <pt x="732" y="170" on="1"/>
      </contour>
    </TTGlyph>
    <TTGlyph name="dkshade" xMin="0" yMin="-615" xMax="1230" yMax="1705">
      <contour>
        <pt x="1230" y="-615" on="1"/>
        <pt x="0" y="-615" on="1"/>
        <pt x="0" y="-325" on="1"/>
        <pt x="102" y="-325" on="1"/>
        <pt x="102" y="-228" on="1"/>
        <pt x="0" y="-228" on="1"/>
        <pt x="0" y="62" on="1"/>
        <pt x="102" y="62" on="1"/>
        <pt x="102" y="159" on="1"/>
        <pt x="0" y="159" on="1"/>
        <pt x="0" y="450" on="1"/>
        <pt x="102" y="450" on="1"/>
        <pt x="102" y="546" on="1"/>
        <pt x="0" y="546" on="1"/>
        <pt x="0" y="835" on="1"/>
        <pt x="102" y="835" on="1"/>
        <pt x="102" y="933" on="1"/>
        <pt x="0" y="933" on="1"/>
        <pt x="0" y="1222" on="1"/>
        <pt x="102" y="1222" on="1"/>
        <pt x="102" y="1320" on="1"/>
        <pt x="0" y="1320" on="1"/>
        <pt x="0" y="1609" on="1"/>
        <pt x="102" y="1609" on="1"/>
        <pt x="102" y="1705" on="1"/>
        <pt x="205" y="1705" on="1"/>
        <pt x="205" y="1609" on="1"/>
        <pt x="307" y="1609" on="1"/>
        <pt x="307" y="1705" on="1"/>
        <pt x="410" y="1705" on="1"/>
        <pt x="410" y="1609" on="1"/>
        <pt x="512" y="1609" on="1"/>
        <pt x="512" y="1705" on="1"/>
        <pt x="615" y="1705" on="1"/>
        <pt x="615" y="1609" on="1"/>
        <pt x="717" y="1609" on="1"/>
        <pt x="717" y="1705" on="1"/>
        <pt x="820" y="1705" on="1"/>
        <pt x="820" y="1609" on="1"/>
        <pt x="922" y="1609" on="1"/>
        <pt x="922" y="1705" on="1"/>
        <pt x="1025" y="1705" on="1"/>
        <pt x="1025" y="1609" on="1"/>
        <pt x="1127" y="1609" on="1"/>
        <pt x="1127" y="1705" on="1"/>
        <pt x="1230" y="1705" on="1"/>
        <pt x="1230" y="1512" on="1"/>
        <pt x="1127" y="1512" on="1"/>
        <pt x="1127" y="1414" on="1"/>
        <pt x="1230" y="1414" on="1"/>
        <pt x="1230" y="1125" on="1"/>
        <pt x="1127" y="1125" on="1"/>
        <pt x="1127" y="1029" on="1"/>
        <pt x="1230" y="1029" on="1"/>
        <pt x="1230" y="738" on="1"/>
        <pt x="1127" y="738" on="1"/>
        <pt x="1127" y="642" on="1"/>
        <pt x="1230" y="642" on="1"/>
        <pt x="1230" y="351" on="1"/>
        <pt x="1127" y="351" on="1"/>
        <pt x="1127" y="255" on="1"/>
        <pt x="1230" y="255" on="1"/>
        <pt x="1230" y="-36" on="1"/>
        <pt x="1127" y="-36" on="1"/>
        <pt x="1127" y="-130" on="1"/>
        <pt x="1230" y="-130" on="1"/>
        <pt x="1230" y="-421" on="1"/>
        <pt x="1127" y="-421" on="1"/>
        <pt x="1127" y="-517" on="1"/>
        <pt x="1230" y="-517" on="1"/>
      </contour>
      <contour>
        <pt x="102" y="1125" on="1"/>
        <pt x="102" y="1029" on="1"/>
        <pt x="205" y="1029" on="1"/>
        <pt x="205" y="1125" on="1"/>
      </contour>
      <contour>
        <pt x="307" y="1125" on="1"/>
        <pt x="307" y="1029" on="1"/>
        <pt x="410" y="1029" on="1"/>
        <pt x="410" y="1125" on="1"/>
      </contour>
      <contour>
        <pt x="512" y="1125" on="1"/>
        <pt x="512" y="1029" on="1"/>
        <pt x="615" y="1029" on="1"/>
        <pt x="615" y="1125" on="1"/>
      </contour>
      <contour>
        <pt x="717" y="1125" on="1"/>
        <pt x="717" y="1029" on="1"/>
        <pt x="820" y="1029" on="1"/>
        <pt x="820" y="1125" on="1"/>
      </contour>
      <contour>
        <pt x="922" y="933" on="1"/>
        <pt x="820" y="933" on="1"/>
        <pt x="820" y="835" on="1"/>
        <pt x="922" y="835" on="1"/>
      </contour>
      <contour>
        <pt x="717" y="933" on="1"/>
        <pt x="615" y="933" on="1"/>
        <pt x="615" y="835" on="1"/>
        <pt x="717" y="835" on="1"/>
      </contour>
      <contour>
        <pt x="512" y="933" on="1"/>
        <pt x="410" y="933" on="1"/>
        <pt x="410" y="835" on="1"/>
        <pt x="512" y="835" on="1"/>
      </contour>
      <contour>
        <pt x="307" y="933" on="1"/>
        <pt x="205" y="933" on="1"/>
        <pt x="205" y="835" on="1"/>
        <pt x="307" y="835" on="1"/>
      </contour>
      <contour>
        <pt x="102" y="738" on="1"/>
        <pt x="102" y="642" on="1"/>
        <pt x="205" y="642" on="1"/>
        <pt x="205" y="738" on="1"/>
      </contour>
      <contour>
        <pt x="307" y="738" on="1"/>
        <pt x="307" y="642" on="1"/>
        <pt x="410" y="642" on="1"/>
        <pt x="410" y="738" on="1"/>
      </contour>
      <contour>
        <pt x="512" y="738" on="1"/>
        <pt x="512" y="642" on="1"/>
        <pt x="615" y="642" on="1"/>
        <pt x="615" y="738" on="1"/>
      </contour>
      <contour>
        <pt x="717" y="738" on="1"/>
        <pt x="717" y="642" on="1"/>
        <pt x="820" y="642" on="1"/>
        <pt x="820" y="738" on="1"/>
      </contour>
      <contour>
        <pt x="307" y="546" on="1"/>
        <pt x="205" y="546" on="1"/>
        <pt x="205" y="450" on="1"/>
        <pt x="307" y="450" on="1"/>
      </contour>
      <contour>
        <pt x="410" y="546" on="1"/>
        <pt x="410" y="450" on="1"/>
        <pt x="512" y="450" on="1"/>
        <pt x="512" y="546" on="1"/>
      </contour>
      <contour>
        <pt x="615" y="546" on="1"/>
        <pt x="615" y="450" on="1"/>
        <pt x="717" y="450" on="1"/>
        <pt x="717" y="546" on="1"/>
      </contour>
      <contour>
        <pt x="820" y="546" on="1"/>
        <pt x="820" y="450" on="1"/>
        <pt x="922" y="450" on="1"/>
        <pt x="922" y="546" on="1"/>
      </contour>
      <contour>
        <pt x="102" y="351" on="1"/>
        <pt x="102" y="255" on="1"/>
        <pt x="205" y="255" on="1"/>
        <pt x="205" y="351" on="1"/>
      </contour>
      <contour>
        <pt x="512" y="351" on="1"/>
        <pt x="512" y="255" on="1"/>
        <pt x="615" y="255" on="1"/>
        <pt x="615" y="351" on="1"/>
      </contour>
      <contour>
        <pt x="410" y="255" on="1"/>
        <pt x="410" y="351" on="1"/>
        <pt x="307" y="351" on="1"/>
        <pt x="307" y="255" on="1"/>
      </contour>
      <contour>
        <pt x="717" y="351" on="1"/>
        <pt x="717" y="255" on="1"/>
        <pt x="820" y="255" on="1"/>
        <pt x="820" y="351" on="1"/>
      </contour>
      <contour>
        <pt x="922" y="62" on="1"/>
        <pt x="922" y="159" on="1"/>
        <pt x="820" y="159" on="1"/>
        <pt x="820" y="62" on="1"/>
      </contour>
      <contour>
        <pt x="717" y="62" on="1"/>
        <pt x="717" y="159" on="1"/>
        <pt x="615" y="159" on="1"/>
        <pt x="615" y="62" on="1"/>
      </contour>
      <contour>
        <pt x="512" y="62" on="1"/>
        <pt x="512" y="159" on="1"/>
        <pt x="410" y="159" on="1"/>
        <pt x="410" y="62" on="1"/>
      </contour>
      <contour>
        <pt x="307" y="62" on="1"/>
        <pt x="307" y="159" on="1"/>
        <pt x="205" y="159" on="1"/>
        <pt x="205" y="62" on="1"/>
      </contour>
      <contour>
        <pt x="102" y="-36" on="1"/>
        <pt x="102" y="-130" on="1"/>
        <pt x="205" y="-130" on="1"/>
        <pt x="205" y="-36" on="1"/>
      </contour>
      <contour>
        <pt x="307" y="-36" on="1"/>
        <pt x="307" y="-130" on="1"/>
        <pt x="410" y="-130" on="1"/>
        <pt x="410" y="-36" on="1"/>
      </contour>
      <contour>
        <pt x="512" y="-36" on="1"/>
        <pt x="512" y="-130" on="1"/>
        <pt x="615" y="-130" on="1"/>
        <pt x="615" y="-36" on="1"/>
      </contour>
      <contour>
        <pt x="717" y="-36" on="1"/>
        <pt x="717" y="-130" on="1"/>
        <pt x="820" y="-130" on="1"/>
        <pt x="820" y="-36" on="1"/>
      </contour>
      <contour>
        <pt x="922" y="-325" on="1"/>
        <pt x="922" y="-228" on="1"/>
        <pt x="820" y="-228" on="1"/>
        <pt x="820" y="-325" on="1"/>
      </contour>
      <contour>
        <pt x="717" y="-325" on="1"/>
        <pt x="717" y="-228" on="1"/>
        <pt x="615" y="-228" on="1"/>
        <pt x="615" y="-325" on="1"/>
      </contour>
      <contour>
        <pt x="512" y="-325" on="1"/>
        <pt x="512" y="-228" on="1"/>
        <pt x="410" y="-228" on="1"/>
        <pt x="410" y="-325" on="1"/>
      </contour>
      <contour>
        <pt x="307" y="-325" on="1"/>
        <pt x="307" y="-228" on="1"/>
        <pt x="205" y="-228" on="1"/>
        <pt x="205" y="-325" on="1"/>
      </contour>
      <contour>
        <pt x="102" y="-421" on="1"/>
        <pt x="102" y="-517" on="1"/>
        <pt x="205" y="-517" on="1"/>
        <pt x="205" y="-421" on="1"/>
      </contour>
      <contour>
        <pt x="307" y="-421" on="1"/>
        <pt x="307" y="-517" on="1"/>
        <pt x="410" y="-517" on="1"/>
        <pt x="410" y="-421" on="1"/>
      </contour>
      <contour>
        <pt x="512" y="-421" on="1"/>
        <pt x="512" y="-517" on="1"/>
        <pt x="615" y="-517" on="1"/>
        <pt x="615" y="-421" on="1"/>
      </contour>
      <contour>
        <pt x="717" y="-421" on="1"/>
        <pt x="717" y="-517" on="1"/>
        <pt x="820" y="-517" on="1"/>
        <pt x="820" y="-421" on="1"/>
      </contour>
      <contour>
        <pt x="922" y="1320" on="1"/>
        <pt x="820" y="1320" on="1"/>
        <pt x="820" y="1222" on="1"/>
        <pt x="922" y="1222" on="1"/>
      </contour>
      <contour>
        <pt x="717" y="1320" on="1"/>
        <pt x="615" y="1320" on="1"/>
        <pt x="615" y="1222" on="1"/>
        <pt x="717" y="1222" on="1"/>
      </contour>
      <contour>
        <pt x="512" y="1320" on="1"/>
        <pt x="410" y="1320" on="1"/>
        <pt x="410" y="1222" on="1"/>
        <pt x="512" y="1222" on="1"/>
      </contour>
      <contour>
        <pt x="307" y="1320" on="1"/>
        <pt x="205" y="1320" on="1"/>
        <pt x="205" y="1222" on="1"/>
        <pt x="307" y="1222" on="1"/>
      </contour>
      <contour>
        <pt x="820" y="1512" on="1"/>
        <pt x="717" y="1512" on="1"/>
        <pt x="717" y="1414" on="1"/>
        <pt x="820" y="1414" on="1"/>
      </contour>
      <contour>
        <pt x="615" y="1512" on="1"/>
        <pt x="512" y="1512" on="1"/>
        <pt x="512" y="1414" on="1"/>
        <pt x="615" y="1414" on="1"/>
      </contour>
      <contour>
        <pt x="410" y="1512" on="1"/>
        <pt x="307" y="1512" on="1"/>
        <pt x="307" y="1414" on="1"/>
        <pt x="410" y="1414" on="1"/>
      </contour>
      <contour>
        <pt x="205" y="1512" on="1"/>
        <pt x="102" y="1512" on="1"/>
        <pt x="102" y="1414" on="1"/>
        <pt x="205" y="1414" on="1"/>
      </contour>
      <contour>
        <pt x="922" y="1125" on="1"/>
        <pt x="922" y="1029" on="1"/>
        <pt x="1025" y="1029" on="1"/>
        <pt x="1025" y="1125" on="1"/>
      </contour>
      <contour>
        <pt x="1127" y="933" on="1"/>
        <pt x="1025" y="933" on="1"/>
        <pt x="1025" y="835" on="1"/>
        <pt x="1127" y="835" on="1"/>
      </contour>
      <contour>
        <pt x="922" y="738" on="1"/>
        <pt x="922" y="642" on="1"/>
        <pt x="1025" y="642" on="1"/>
        <pt x="1025" y="738" on="1"/>
      </contour>
      <contour>
        <pt x="1025" y="546" on="1"/>
        <pt x="1025" y="450" on="1"/>
        <pt x="1127" y="450" on="1"/>
        <pt x="1127" y="546" on="1"/>
      </contour>
      <contour>
        <pt x="922" y="351" on="1"/>
        <pt x="922" y="255" on="1"/>
        <pt x="1025" y="255" on="1"/>
        <pt x="1025" y="351" on="1"/>
      </contour>
      <contour>
        <pt x="1127" y="62" on="1"/>
        <pt x="1127" y="159" on="1"/>
        <pt x="1025" y="159" on="1"/>
        <pt x="1025" y="62" on="1"/>
      </contour>
      <contour>
        <pt x="922" y="-36" on="1"/>
        <pt x="922" y="-130" on="1"/>
        <pt x="1025" y="-130" on="1"/>
        <pt x="1025" y="-36" on="1"/>
      </contour>
      <contour>
        <pt x="1127" y="-325" on="1"/>
        <pt x="1127" y="-228" on="1"/>
        <pt x="1025" y="-228" on="1"/>
        <pt x="1025" y="-325" on="1"/>
      </contour>
      <contour>
        <pt x="922" y="-421" on="1"/>
        <pt x="922" y="-517" on="1"/>
        <pt x="1025" y="-517" on="1"/>
        <pt x="1025" y="-421" on="1"/>
      </contour>
      <contour>
        <pt x="1127" y="1320" on="1"/>
        <pt x="1025" y="1320" on="1"/>
        <pt x="1025" y="1222" on="1"/>
        <pt x="1127" y="1222" on="1"/>
      </contour>
      <contour>
        <pt x="1025" y="1512" on="1"/>
        <pt x="922" y="1512" on="1"/>
        <pt x="922" y="1414" on="1"/>
        <pt x="1025" y="1414" on="1"/>
      </contour>
    </TTGlyph>
    <TTGlyph name="dnblock" xMin="0" yMin="-615" xMax="1229" yMax="627">
      <contour>
        <pt x="1229" y="-615" on="1"/>
        <pt x="0" y="-615" on="1"/>
        <pt x="0" y="627" on="1"/>
        <pt x="1229" y="627" on="1"/>
      </contour>
    </TTGlyph>
    <TTGlyph name="dollar" xMin="69" yMin="-171" xMax="1152" yMax="1501">
      <contour>
        <pt x="1152" y="393" on="1"/>
        <pt x="1152" y="212" on="0"/>
        <pt x="909" y="13" on="0"/>
        <pt x="671" y="4" on="1"/>
        <pt x="671" y="-171" on="1"/>
        <pt x="562" y="-171" on="1"/>
        <pt x="562" y="1" on="1"/>
        <pt x="347" y="9" on="0"/>
        <pt x="107" y="196" on="0"/>
        <pt x="69" y="389" on="1"/>
        <pt x="325" y="436" on="1"/>
        <pt x="344" y="323" on="0"/>
        <pt x="457" y="218" on="0"/>
        <pt x="562" y="208" on="1"/>
        <pt x="562" y="599" on="1"/>
        <pt x="559" y="601" on="0"/>
        <pt x="535" y="606" on="0"/>
        <pt x="531" y="606" on="1"/>
        <pt x="370" y="643" on="0"/>
        <pt x="206" y="744" on="0"/>
        <pt x="117" y="899" on="0"/>
        <pt x="117" y="1011" on="1"/>
        <pt x="117" y="1177" on="0"/>
        <pt x="343" y="1358" on="0"/>
        <pt x="562" y="1367" on="1"/>
        <pt x="562" y="1501" on="1"/>
        <pt x="671" y="1501" on="1"/>
        <pt x="671" y="1367" on="1"/>
        <pt x="866" y="1360" on="0"/>
        <pt x="1076" y="1201" on="0"/>
        <pt x="1122" y="1017" on="1"/>
        <pt x="858" y="978" on="1"/>
        <pt x="828" y="1150" on="0"/>
        <pt x="671" y="1171" on="1"/>
        <pt x="671" y="819" on="1"/>
        <pt x="682" y="817" on="1"/>
        <pt x="711" y="817" on="0"/>
        <pt x="1006" y="721" on="0"/>
        <pt x="1152" y="534" on="0"/>
      </contour>
      <contour>
        <pt x="562" y="1175" on="1"/>
        <pt x="379" y="1161" on="0"/>
        <pt x="379" y="1015" on="1"/>
        <pt x="379" y="970" on="0"/>
        <pt x="409" y="913" on="0"/>
        <pt x="469" y="873" on="0"/>
        <pt x="562" y="843" on="1"/>
      </contour>
      <contour>
        <pt x="892" y="389" on="1"/>
        <pt x="892" y="439" on="0"/>
        <pt x="856" y="502" on="0"/>
        <pt x="787" y="542" on="0"/>
        <pt x="671" y="575" on="1"/>
        <pt x="671" y="208" on="1"/>
        <pt x="892" y="223" on="0"/>
      </contour>
    </TTGlyph>
    <TTGlyph name="dong" xMin="92" yMin="-361" xMax="1209" yMax="1484">
      <component glyphName="dcroat" x="0" y="0" flags="0x204"/>
      <component glyphName="endash" x="0" y="-779" flags="0x4"/>
    </TTGlyph>
    <TTGlyph name="dotaccent" xMin="474" yMin="1267" xMax="755" yMax="1474">
      <contour>
        <pt x="474" y="1267" on="1"/>
        <pt x="474" y="1474" on="1"/>
        <pt x="755" y="1474" on="1"/>
        <pt x="755" y="1267" on="1"/>
      </contour>
    </TTGlyph>
    <TTGlyph name="dotbelow.alt1" xMin="-352" yMin="-366" xMax="-71" yMax="-159">
      <contour>
        <pt x="-352" y="-366" on="1"/>
        <pt x="-352" y="-159" on="1"/>
        <pt x="-71" y="-159" on="1"/>
        <pt x="-71" y="-366" on="1"/>
      </contour>
    </TTGlyph>
    <TTGlyph name="dotbelowcomb" xMin="-141" yMin="-366" xMax="140" yMax="-159">
      <component glyphName="dotbelow.alt1" x="211" y="0" flags="0x4"/>
    </TTGlyph>
    <TTGlyph name="dotlessi" xMin="118" yMin="0" xMax="1147" yMax="1082">
      <contour>
        <pt x="794" y="190" on="1"/>
        <pt x="1147" y="190" on="1"/>
        <pt x="1147" y="0" on="1"/>
        <pt x="118" y="0" on="1"/>
        <pt x="118" y="190" on="1"/>
        <pt x="513" y="190" on="1"/>
        <pt x="513" y="892" on="1"/>
        <pt x="223" y="892" on="1"/>
        <pt x="223" y="1082" on="1"/>
        <pt x="794" y="1082" on="1"/>
      </contour>
    </TTGlyph>
</ttFont>
